/* XPM */
static char *result[] = {
/* columns rows colors chars-per-pixel */
"64 64 114 2 ",
"   c #010101",
".  c #0E0800",
"X  c #00070A",
"o  c #01080A",
"O  c #0B0C0C",
"+  c #140F0E",
"@  c #12100F",
"#  c #0E0F10",
"$  c #001016",
"%  c #0F1010",
"&  c #131414",
"*  c #161718",
"=  c #171819",
"-  c #1B1D1D",
";  c #1F2012",
":  c #342305",
">  c #001C25",
",  c #00232E",
"<  c #1E2020",
"1  c #10282E",
"2  c #212323",
"3  c #262929",
"4  c #2A2C2D",
"5  c #2E3232",
"6  c #313434",
"7  c #343738",
"8  c #363A3A",
"9  c #393D3E",
"0  c #6D4C0F",
"q  c #67521D",
"w  c #003B4C",
"e  c #3C3F40",
"r  c #004A5E",
"t  c #3E4142",
"y  c #0E5460",
"u  c #1C5D63",
"i  c #424546",
"p  c #494443",
"a  c #434748",
"s  c #454A4A",
"d  c #494D4E",
"f  c #4E5354",
"g  c #525555",
"h  c #555B5C",
"j  c #595C5C",
"k  c #595F60",
"l  c #5C6263",
"z  c #606262",
"x  c #616768",
"c  c #63696A",
"v  c #6B6C6B",
"b  c #686F70",
"n  c #6D7375",
"m  c #747575",
"M  c #757778",
"N  c #747B7C",
"B  c #927871",
"V  c #CE9B2E",
"C  c #91827E",
"Z  c #757F80",
"A  c #778081",
"S  c #7C8385",
"D  c #818484",
"F  c #8A8887",
"G  c #838C8D",
"H  c #8A8D8E",
"J  c #868F90",
"K  c #8C8F90",
"L  c #879091",
"P  c #8C9394",
"I  c #8D9798",
"U  c #8F999A",
"Y  c #919B9C",
"T  c #BBA29A",
"R  c #96A0A2",
"E  c #99A3A5",
"W  c #9CA6A8",
"Q  c #9DA8A9",
"!  c #AEA8A6",
"~  c #A3ACAD",
"^  c #A9ADAE",
"/  c #A4AFB1",
"(  c #ABAFB0",
")  c #A6B1B3",
"_  c #ABB3B4",
"`  c #ACB7B8",
"'  c #AEB9BB",
"]  c #BBB8B7",
"[  c #B3B7B8",
"{  c #B1BCBD",
"}  c #BBBEBE",
"|  c #C59B90",
" . c #C89D91",
".. c #D7AB9E",
"X. c #CBBEBA",
"o. c #D2BDB7",
"O. c #E2B9AD",
"+. c #D1C3BE",
"@. c #B3BEC0",
"#. c #BABFC0",
"$. c #B6C2C4",
"%. c #B9C4C6",
"&. c #BBC7C9",
"*. c #BDC9CB",
"=. c #C0C5C6",
"-. c #C0CCCE",
";. c #C9CDCE",
":. c #C2CED0",
">. c #CDD2D3",
",. c #D7DCDD",
"<. c #D8DDDE",
"1. c #DEE3E4",
"2. c #E0E5E6",
"3. c None",
/* pixels */
"3.3.3.3.3.3.3.3.3.3.3.3.3.3.3.3.3.3.3.3.3.3.3.3.3.3.3.3.3.3.3.3.3.3.3.3.3.3.3.3.3.3.3.3.3.3.3.3.3.3.3.3.3.3.3.3.3.3.3.3.3.3.3.3.",
"3.3.3.3.3.3.3.3.3.3.3.3.3.3.3.3.3.3.3.3.3.3.3.3.3.3.3.3.3.3.3.3.3.3.3.3.3.3.  3.3.3.3.3.3.3.3.3.3.3.3.3.3.3.3.3.3.3.3.3.3.3.3.3.",
"3.3.3.3.3.3.3.3.3.3.3.3.3.3.3.3.3.3.3.3.3.3.3.< < 3.3.3.3.3.3.3.3.3.3.3.3.3.2 3.3.3.3.3.3.3.3.3.3.3.3.3.3.3.3.3.3.3.3.3.3.3.3.3.",
"3.3.3.3.3.3.3.3.3.3.3.3.3.3.3.3.3.3.3.3.3.3.o F S   3.3.3.3.3.3.3.3.3.3.  3 ~ i   3.3.3.3.3.3.3.3.3.3.3.3.3.3.3.3.3.3.3.3.3.3.3.",
"3.3.3.3.3.3.3.3.3.3.3.3.3.3.3.3.3.3.3.3.3.3.o L ` n < 3.3.3.3.3.3.3.3.  d G %.i   3.3.3.3.3.3.3.3.3.3.3.3.3.3.3.3.3.3.3.3.3.3.3.",
"3.3.3.3.3.3.3.3.3.3.3.3.3.3.3.3.3.3.3.3.3.3.  H *.%.d < 3.3.3.3.3.3.3.3 S *.&.i   3.3.3.3.3.3.3.3.3.3.3.3.3.3.3.3.3.3.3.3.3.3.3.",
"3.3.3.3.3.3.3.3.3.3.3.3.3.3.3.3.3.3.3.3.3.3.  H *.%.%.N     o       - Q %.%.&.i   3.3.3.3.3.3.3.3.3.3.3.3.3.3.3.3.3.3.3.3.3.3.3.",
"3.3.3.3.3.3.3.3.3.3.3.3.3.3.3.3.3.3.3.3.3.3.o L R s ~ ) S S S S S S L %.N h @.s   3.3.3.3.3.3.3.3.3.3.3.3.3.3.3.3.3.3.3.3.3.3.3.",
"3.3.3.3.3.3.3.3.3.3.3.3.3.3.3.3.3.3.3.3.3.3.o L Y 7 N I Y %.*.*.*.) I P h d @.s   3.3.3.3.3.3.3.3.3.3.3.3.3.3.3.3.3.3.3.3.3.3.3.",
"3.3.3.3.3.3.3.3.3.3.3.3.3.3.3.3.3.3.3.  3.3.  J *.` 6 o = Q *.&.*.c O o b %.&.i   3.    3.3.3.3.3.3.3.3.3.3.3.3.3.3.3.3.3.3.3.3.",
"3.3.3.3.3.3.3.3.3.3.3.3.3.3.3.3.3.3.3.3.      P -.%.U L P @.&.&.&.~ L G / &.*.s     3.3.3.3.3.3.3.3.3.3.3.3.3.3.3.3.3.3.3.3.3.3.",
"3.3.3.3.3.3.3.3.3.3.3.3.3.3.3.3.3.3.3.3.      l E &.*.` P { &.&.&.~ Y %.*.@.L 6     3.3.3.3.3.3.3.3.3.3.3.3.3.3.3.3.3.3.3.3.3.3.",
"3.3.3.3.3.3.3.3.3.3.3.3.3.3.3.3.3.3.3.3.3.3.  o i %.*.N = W &.$.*.x < ` *.E =     3.3.3.3.3.3.3.3.3.3.3.3.3.3.3.3.3.3.3.3.3.3.3.",
"3.3.3.3.3.3.3.3.3.3.3.3.3.3.3.3.3.3.3.        c Q %.&.` I %.S t ` / I %.&.{ I 7         3.3.3.3.3.3.3.3.3.3.3.3.3.3.3.3.3.3.3.3.",
"3.3.3.3.3.3.3.3.3.3.3.3.3.3.3.3.3.3.3.        k Y &.&.*.&.L l i N Q *.&.&.' G 5         3.3.3.3.3.3.3.3.3.3.3.3.3.3.3.3.3.3.3.3.",
"3.3.3.3.3.3.3.3.3.3.3.3.3.3.3.3.3.3.3.3.3.3.  o i %.&.&.' 3 k _ < c *.&.*.E =     3.3.3.3.3.3.3.3.3.3.3.3.3.3.3.3.3.3.3.3.3.3.3.",
"3.3.3.3.3.3.3.3.3.3.3.3.3.3.3.3.3.3.3.3.3.3.  n / &.&.&.%.E / %.R ) &.&.&.$.E 7   3.3.3.3.3.3.3.3.3.3.3.3.3.3.3.3.3.3.3.3.3.3.3.",
"3.3.3.3.3.3.3.3.3.3.3.3.3.3.3.3.3.3.3.3.3.3.  l P &.&.*.&.*.*.*.*.*.*.&.&.' A 9 3.3.3.3.3.3.3.3.3.3.3.3.3.3.3.3.3.3.3.3.3.3.3.3.",
"3.3.3.3.3.3.3.3.3.3.3.3.3.3.3.3.3.3.3.3.3.3.3.  9 _ ` ` ' ` ` ` ' ' ' ' ' P O 3.3.3.3.3.3.3.3.3.3.3.3.3.3.3.3.3.3.3.3.3.3.3.3.3.",
"3.3.3.3.3.3.3.3.3.3.3.3.3.3.3.3.3.3.3.3.3.3.3.3.3.2 2 2 2 2 2 2 2 2 2 2 2 -   3.3.3.    3.    3.3.3.3.3.3.3.3.3.3.3.3.3.3.3.3.3.",
"3.3.3.3.3.3.3.3.3.3.3.3.3.3.3.3.3.3.3.3.3.3.3.3.$ , , , , , , , , , , , , >   3.3.3.    3.    3.3.3.3.3.3.3.3.3.3.3.3.3.3.3.3.3.",
"3.3.3.3.3.3.3.3.3.3.3.3.3.3.3.3.3.3.3.3.3.3.  & 1 r r r r r y u r r r r r w   3.3.= . o * O   3.3.3.3.3.3.3.3.3.3.3.3.3.3.3.3.3.",
"3.3.3.3.3.3.3.3.3.3.3.3.3.3.3.3.3.3.3.3.      N Z o X o X X q V ; X o o X X     5 E 5 2 E 6     3.3.3.3.3.3.3.3.3.3.3.3.3.3.3.3.",
"3.3.3.3.3.3.3.3.3.3.3.3.3.3.3.3.3.3.3.    < c ) / c c c k # : 0 . 6 c x x c c 2 4 #.F B o.F s   3.3.3.3.3.3.3.3.3.3.3.3.3.3.3.3.",
"3.3.3.3.3.3.3.3.3.3.3.3.3.3.3.3.3.3.3.  & g &.*.&.*.*.*.{ 9 - - - n -.*.*.*.*.h 9 E T  .| ! N o 3.3.3.3.3.3.3.3.3.3.3.3.3.3.3.3.",
"3.3.3.3.3.3.3.3.3.3.3.3.3.3.3.3.3.      A { &.&.&.&.&.*.&.' ` ` ` @.&.&.*.&.&.$.G = @ @ + & & 3.3.3.3.3.3.3.3.3.3.3.3.3.3.3.3.3.",
"3.3.3.3.3.3.3.3.3.3.3.3.3.3.3.3.    - n / *.&.&.&.&.&.*.*.*.*.*.*.*.*.&.&.&.&.*.I o d M b 2   3.3.3.3.3.3.3.3.3.3.3.3.3.3.3.3.3.",
"3.3.3.3.3.3.3.3.3.3.3.3.3.3.3.3.  * f %.*.&.&.&.&.&.&.' R R R R R R E %.&.&.&.*.I O G :.&.9   3.3.3.3.3.3.3.3.3.3.3.3.3.3.3.3.3.",
"3.3.3.3.3.3.3.3.3.3.3.3.3.3.3.3.  N $.&.&.&.&.&.&.&.*.N O O O + O O 3 _ *.&.&.*.U O D *.%.9   3.3.3.3.3.3.3.3.3.3.3.3.3.3.3.3.3.",
"3.3.3.3.3.3.3.3.3.3.3.3.3.3.3.3.  S -.&.&.&.&.&.*.%.l k K I K P K P S d J *.*.*.I o G *.%.9   3.3.3.3.3.3.3.3.3.3.3.3.3.3.3.3.3.",
"3.3.3.3.3.3.3.3.3.3.3.3.3.3.3.3.  S *.&.&.&.&.*.' P i M 2.] ^ ^ _ ;.;.i c E %.*.E 7 M E $.9   3.3.3.3.3.3.3.3.3.3.3.3.3.3.3.3.3.",
"3.3.3.3.3.3.3.3.3.3.3.3.3.3.3.3.  S *.*.&.&.&.*.G & ~ 1.>.5 O O O M 1.<.z 3 ' *.&.' e 6 ' 9   3.3.3.3.3.3.3.3.3.3.3.3.3.3.3.3.3.",
"3.3.3.3.3.3.3.3.3.3.3.3.3.3.3.3.  S *.&.&.&.*.*.D + ( 2.,.~ g O C { 1.2.z 2 [ &.&.&.Y n t &   3.3.3.3.3.3.3.3.3.3.3.3.3.3.3.3.3.",
"3.3.3.3.3.3.3.3.3.3.3.3.3.3.3.3.  S *.*.*.' I { D + [ 2.<.[ j & P =.1.1.z 2 ' &.&.%.Q N       3.3.3.3.3.3.3.3.3.3.3.3.3.3.3.3.3.",
"3.3.3.3.3.3.3.3.3.3.3.3.3.3.3.3.  S *.*.*.G O P J % ( 2.>.5     o M 2.2.z 2 { &.&.%.t   3.3.3.3.3.3.3.3.3.3.3.3.3.3.3.3.3.3.3.3.",
"3.3.3.3.3.3.3.3.3.3.3.3.3.3.3.3.  S *.*.*.D   L G # ( 2.<.( h + H =.2.2.z 2 ' *.&.%.9   3.3.3.3.3.3.3.3.3.3.3.3.3.3.3.3.3.3.3.3.",
"3.3.3.3.3.3.3.3.3.3.3.3.3.3.3.3.o S -.&.Y n t E S O _ 2.,.^ g O F %.1.2.z 2 ' *.&.%.9   3.3.3.3.3.3.3.3.3.3.3.3.3.3.3.3.3.3.3.3.",
"3.3.3.3.3.3.3.3.3.3.3.3.3.3.3.3.  S *.%.7 9 $.*.J * ~ 1.>.6 O O O M 2.,.x 3 ' *.&.%.9   3.3.3.3.3.3.3.3.3.3.3.3.3.3.3.3.3.3.3.3.",
"3.3.3.3.3.3.3.3.3.3.3.3.3.3.3.3.  S *.%.6 9 %.*.' P a M 2.] ^ _ ^ ;.;.a c E %.&.*.&.9   3.3.3.3.3.3.3.3.3.3.3.3.3.3.3.3.3.3.3.3.",
"3.3.3.3.3.3.3.3.3.3.3.3.3.3.3.3.  S *.%.7 7 %.&.&.%.l j K P K I K H D d G *.&.*.` N 3   3.3.3.3.3.3.3.3.3.3.3.3.3.3.3.3.3.3.3.3.",
"3.3.3.3.3.3.3.3.3.3.3.3.3.3.3.3.# D *.%.6 8 %.*.&.&.*.A O O O O + O 3 ) &.&.&.*.U o     3.3.3.3.3.3.3.3.3.3.3.3.3.3.3.3.3.3.3.3.",
"3.3.3.3.3.3.3.3.3.3.3.3.3.3.3.2 U ' *.%.6 7 %.*.&.&.*.' R E R R R R E %.&.&.&.*.Y O 3.3.3.3.3.3.3.3.3.3.3.3.3.3.3.3.3.3.3.3.3.3.",
"3.3.3.3.3.3.3.3.3.3.3.3.3.3.9 v +.=.+.o.m j n ) &.&.&.*.*.*.*.*.*.*.*.&.&.&.&.P g o 3.3.3.3.3.3.3.3.3.3.3.3.3.3.3.3.3.3.3.3.3.3.",
"3.3.3.3.3.3.3.3.3.3.3.3.3.  c ] O.....O.] N o G *.&.&.&.%.` ' *.&.&.&.&.&.&.&.i     3.3.3.3.3.3.3.3.3.3.3.3.3.3.3.3.3.3.3.3.3.3.",
"3.3.3.3.3.3.3.3.3.3.3.3.3.  O i } g p #.d @ o H *.*.&.&.' 7 l *.&.&.&.&.&.&.%.s   3.3.3.3.3.3.3.3.3.3.3.3.3.3.3.3.3.3.3.3.3.3.3.",
"3.3.3.3.3.3.3.3.3.3.3.3.3.3.  & j - = j 3     G *.&.&.*.' < 3 v ' &.&.&.&.&.&.i   3.3.3.3.3.3.3.3.3.3.3.3.3.3.3.3.3.3.3.3.3.3.3.",
"3.3.3.3.3.3.3.3.3.3.3.3.3.3.3.          3.3.o H *.&.&.*.' 2   & ~ *.&.&.&.&.&.s   3.3.3.3.3.3.3.3.3.3.3.3.3.3.3.3.3.3.3.3.3.3.3.",
"3.3.3.3.3.3.3.3.3.3.3.3.3.3.3.3.3.3.3.3.3.3.  G *.&.&.*.' 2   * ~ &.&.&.&.&.&.s   3.3.3.3.3.3.3.3.3.3.3.3.3.3.3.3.3.3.3.3.3.3.3.",
"3.3.3.3.3.3.3.3.3.3.3.3.3.3.3.3.3.3.3.3.3.3.  H -.&.&.*.' 2   & / *.&.&.&.&.&.a   3.3.3.3.3.3.3.3.3.3.3.3.3.3.3.3.3.3.3.3.3.3.3.",
"3.3.3.3.3.3.3.3.3.3.3.3.3.3.3.3.3.3.3.3.3.3.o G *.&.&.*.` 2   & J ` &.&.&.&.&.a   3.3.3.3.3.3.3.3.3.3.3.3.3.3.3.3.3.3.3.3.3.3.3.",
"3.3.3.3.3.3.3.3.3.3.3.3.3.3.3.3.3.3.3.3.3.3.o H *.&.&.&.' 2   3.O c *.*.&.&.&.i   3.3.3.3.3.3.3.3.3.3.3.3.3.3.3.3.3.3.3.3.3.3.3.",
"3.3.3.3.3.3.3.3.3.3.3.3.3.3.3.3.3.3.3.3.3.3.  H *.&.&.*.' <   3.  l *.&.&.&.&.i   3.3.3.3.3.3.3.3.3.3.3.3.3.3.3.3.3.3.3.3.3.3.3.",
"3.3.3.3.3.3.3.3.3.3.3.3.3.3.3.3.3.3.3.3.3.3.o H *.&.&.*.` 2   3.  l *.&.&.&.&.s   3.3.3.3.3.3.3.3.3.3.3.3.3.3.3.3.3.3.3.3.3.3.3.",
"3.3.3.3.3.3.3.3.3.3.3.3.3.3.3.3.3.3.3.3.3.3.  G *.*.&.&.` 2   3.  l *.&.&.&.&.i   3.3.3.3.3.3.3.3.3.3.3.3.3.3.3.3.3.3.3.3.3.3.3.",
"3.3.3.3.3.3.3.3.3.3.3.3.3.3.3.3.3.3.3.3.3.3.o H *.&.&.*.' 2   3.  l *.*.&.&.&.i   3.3.3.3.3.3.3.3.3.3.3.3.3.3.3.3.3.3.3.3.3.3.3.",
"3.3.3.3.3.3.3.3.3.3.3.3.3.3.3.3.3.3.3.3.3.3.  G -.&.&.&.` 2   3.  l *.&.&.&.&.i   3.3.3.3.3.3.3.3.3.3.3.3.3.3.3.3.3.3.3.3.3.3.3.",
"3.3.3.3.3.3.3.3.3.3.3.3.3.3.3.3.3.3.3.      o H *.*.%.*.' <   3.  l -.&.&.&.&.s         3.3.3.3.3.3.3.3.3.3.3.3.3.3.3.3.3.3.3.3.",
"3.3.3.3.3.3.3.3.3.3.3.3.3.3.3.3.3.3.    l G G ` *.*.*.-.{ 2   3.  l -.-.&.&.&.E G G 3   3.3.3.3.3.3.3.3.3.3.3.3.3.3.3.3.3.3.3.3.",
"3.3.3.3.3.3.3.3.3.3.3.3.3.3.3.3.3.3.    L -.-.&.` G H J S =   3.  i L G ~ &.&.E L L 4   3.3.3.3.3.3.3.3.3.3.3.3.3.3.3.3.3.3.3.3.",
"3.3.3.3.3.3.3.3.3.3.3.3.3.3.3.3.3.3.3.o G %.$.%.S O   o       3.    o   b %.#.s         3.3.3.3.3.3.3.3.3.3.3.3.3.3.3.3.3.3.3.3.",
"3.3.3.3.3.3.3.3.3.3.3.3.3.3.3.3.3.3.3.3.4 6 5 6 2   3.3.3.3.3.3.3.3.3.3.3 6 6 &   3.3.3.3.3.3.3.3.3.3.3.3.3.3.3.3.3.3.3.3.3.3.3.",
"3.3.3.3.3.3.3.3.3.3.3.3.3.3.3.3.3.3.3.3.3.          3.3.3.3.3.3.3.3.3.3.3.      3.3.3.3.3.3.3.3.3.3.3.3.3.3.3.3.3.3.3.3.3.3.3.3.",
"3.3.3.3.3.3.3.3.3.3.3.3.3.3.3.3.3.3.3.3.3.3.3.3.3.3.3.3.3.3.3.3.3.3.3.3.3.3.3.3.3.3.3.3.3.3.3.3.3.3.3.3.3.3.3.3.3.3.3.3.3.3.3.3.",
"3.3.3.3.3.3.3.3.3.3.3.3.3.3.3.3.3.3.3.3.3.3.3.3.3.3.3.3.3.3.3.3.3.3.3.3.3.3.3.3.3.3.3.3.3.3.3.3.3.3.3.3.3.3.3.3.3.3.3.3.3.3.3.3."
};
