/* XPM */
static char *result[] = {
/* columns rows colors chars-per-pixel */
"64 64 138 2 ",
"   c #010100",
".  c #090702",
"X  c #0C0902",
"o  c #0C0C0C",
"O  c #120D01",
"+  c #120A0A",
"@  c #1D0A09",
"#  c #1D1602",
"$  c #131313",
"%  c #1C1414",
"&  c #17191D",
"*  c #1E1E1E",
"=  c #260605",
"-  c #290403",
";  c #340705",
":  c #251C02",
">  c #291F02",
",  c #211E1D",
"<  c #2D2102",
"1  c #342601",
"2  c #3A2B03",
"3  c #23201F",
"4  c #232322",
"5  c #292826",
"6  c #2E2D2D",
"7  c #343435",
"8  c #383635",
"9  c #3B3937",
"0  c #3C3C3C",
"q  c #4D0A07",
"w  c #571C19",
"e  c #6B100C",
"r  c #70130F",
"t  c #402F04",
"y  c #433102",
"u  c #4A3704",
"i  c #4E3A04",
"p  c #533E04",
"a  c #512F2E",
"s  c #413F3D",
"d  c #6E2926",
"f  c #6C2C29",
"g  c #594203",
"h  c #624905",
"j  c #6A4F05",
"k  c #755706",
"l  c #775806",
"z  c #795A06",
"x  c #75590C",
"c  c #464544",
"v  c #4B4946",
"b  c #464749",
"n  c #474848",
"m  c #4C4C4C",
"M  c #535353",
"N  c #5B5B5B",
"B  c #646362",
"V  c #6A6663",
"C  c #646669",
"Z  c #6B6B6B",
"A  c #706C68",
"S  c #75716E",
"D  c #7B766A",
"F  c #737272",
"G  c #787470",
"H  c #7D7D7E",
"J  c #841712",
"K  c #861813",
"L  c #891813",
"P  c #921B16",
"I  c #9E1E18",
"U  c #A11D17",
"Y  c #A81F19",
"T  c #AA201A",
"R  c #BD241D",
"E  c #C2251D",
"W  c #805F06",
"Q  c #856207",
"!  c #896607",
"~  c #8D6907",
"^  c #916C07",
"/  c #A0760A",
"(  c #A37909",
")  c #AB7E09",
"_  c #AD8109",
"`  c #B38409",
"'  c #BF8E0A",
"]  c #C7940A",
"[  c #CA950A",
"{  c #CE990A",
"}  c #D59E0B",
"|  c #DDA40B",
" . c #E7AB0B",
".. c #ECAF0C",
"X. c #ECB00C",
"o. c #F3B40C",
"O. c #F7B80C",
"+. c #FABA0C",
"@. c #898372",
"#. c #868686",
"$. c #8E8686",
"%. c #8B8C8C",
"&. c #99938F",
"*. c gray58",
"=. c #A29C98",
"-. c #A9A39F",
";. c #A3A3A3",
":. c #AEA8A3",
">. c #B0ABA6",
",. c #BBB5AF",
"<. c #B5B5B5",
"1. c #BDB7B2",
"2. c #B7B8B8",
"3. c #BBBBBB",
"4. c #C0B9B4",
"5. c #C5C5C5",
"6. c #CCCCCC",
"7. c #D1CAC4",
"8. c #D6CFC9",
"9. c #D7D0CB",
"0. c #D9D3CD",
"q. c #D3D3D3",
"w. c #DBD5D0",
"e. c #D6D7D8",
"r. c #DCDCDC",
"t. c #E0DBD7",
"y. c #E3DEDA",
"u. c #E6E1DD",
"i. c #DFE0E0",
"p. c #E2E2E2",
"a. c #EAE6E2",
"s. c #ECE8E5",
"d. c #ECECEB",
"f. c #F3F1EF",
"g. c #F4F3F3",
"h. c #F9F8F7",
"j. c #FFFFFF",
"k. c None",
/* pixels */
"k.k.k.k.k.k.k.k.k.k.k.k.k.k.k.k.k.k.k.k.k.k.k.k.k.k.k.k.k.k.k.k.k.k.k.k.k.k.k.k.k.k.k.k.k.k.k.k.k.k.k.k.k.k.k.k.k.k.k.k.k.k.k.k.",
"k.k.k.k.k.k.k.k.k.k.k.k.k.k.k.k.k.k.k.k.k.k.k.k.k.k.k.k.k.k.k.k.k.k.k.k.k.k.k.k.k.k.k.k.k.k.k.k.k.k.k.k.k.k.k.k.k.k.k.k.k.k.k.k.",
"k.k.k.k.k.k.k.k.k.k.k.k.k.k.k.k.k.k.k.k.k.k.k.k.k.k.k.k.k.k.k.k.k.k.k.k.k.k.k.k.k.k.k.k.k.k.k.k.k.k.k.k.k.k.k.k.k.k.k.k.k.k.k.k.",
"k.k.k.k.k.k.k.k.k.k.k.k.k.k.k.k.k.k.k.k.k.k.k.k.k.k.k.k.k.k.k.k.k.k.k.k.k.k.k.k.k.k.k.k.k.k.k.k.k.k.k.k.k.k.k.k.k.k.k.k.k.k.k.k.",
"k.k.k.k.k.k.k.k.k.k.k.k.k.k.k.k.k.k.k.k.k.k.k.k.k.k.k.k.k.k.k.k.k.k.k.k.k.k.k.k.k.k.k.k.k.k.k.k.k.k.k.k.k.k.k.k.k.k.k.k.k.k.k.k.",
"k.k.k.k.k.k.k.k.k.k.k.k.k.k.k.k.k.k.k.k.k.k.k.k.k.k.k.k.k.k.k.k.k.k.k.k.k.k.k.k.k.k.k.k.k.k.k.k.k.k.k.k.k.k.k.k.k.k.k.k.k.k.k.k.",
"k.k.k.k.k.k.k.k.k.k.k.k.k.k.k.k.k.k.k.k.k.k.k.k.k.k.k.k.k.k.k.k.k.k.k.k.k.k.k.k.k.k.k.k.k.k.k.k.k.k.k.k.k.k.k.k.k.k.k.k.k.k.k.k.",
"k.k.k.k.k.k.k.k.k.k.k.k.k.k.k.k.k.k.k.k.k.k.k.k.k.k.k.k.k.k.b 8 7 m k.k.k.k.k.k.k.k.k.k.k.k.k.k.k.k.k.k.k.k.k.k.k.k.k.k.k.k.k.k.",
"k.k.k.k.k.k.k.k.k.k.k.k.k.k.k.k.k.k.k.k.k.k.k.k.k.k.k.k.k.$ 5.Z m 2.$ k.k.k.k.k.k.k.k.k.k.k.k.k.k.k.k.k.k.k.k.k.k.k.k.k.k.k.k.k.",
"k.k.k.k.k.k.k.k.k.k.k.k.k.k.k.k.k.k.k.k.k.k.k.k.k.k.k.k.k.o 5.Z . & k.k.k.k.k.k.k.k.k.k.k.k.k.k.k.k.k.k.k.k.k.k.k.k.k.k.k.k.k.k.",
"k.k.k.k.k.k.k.k.k.k.k.k.k.k.k.k.k.k.k.k.k.k.k.k.k.k.k.k.k.k.s &   k.k.k.k.k.k.k.k.k.k.k.k.k.k.k.k.k.k.k.k.k.k.k.k.k.k.k.k.k.k.k.",
"k.k.k.k.k.k.k.k.k.k.k.k.k.k.k.k.k.k.k.k.k.k.k.k.k.k.k.k.                  k.k.k.k.k.k.k.k.k.k.k.k.k.k.k.k.k.k.k.k.k.k.k.k.k.k.k.",
"k.k.k.k.k.k.k.k.k.k.k.k.k.k.k.k.k.k.k.k.k.k.k.k.k.k.k.  o n M m m m m M *   k.k.k.k.k.k.k.k.k.k.k.k.k.k.k.k.k.k.k.k.k.k.k.k.k.k.",
"k.k.k.k.k.k.k.k.k.k.k.k.k.k.k.k.k.k.k.k.k.k.k.k.k.  $ 4 c d.h.j.h.j.h.j.H 4 4 4 k.k.k.k.k.k.k.k.k.k.k.k.k.k.k.k.k.k.k.k.k.k.k.k.",
"k.k.k.k.k.k.k.k.k.k.k.k.k.k.k.k.k.k.k.k.k.k.k.k.    #.d.d.j.j.j.j.j.j.j.d.a.p.e.0 k.k.k.k.k.k.k.k.k.k.k.k.k.k.k.k.k.k.k.k.k.k.k.",
"k.k.k.k.k.k.k.k.k.k.k.k.k.k.k.k.k.k.k.k.k.k.k.  o *.a.j.j.j.j.j.j.j.j.j.j.j.j.j.6.N k.k.k.k.k.k.k.k.k.k.k.k.k.k.k.k.k.k.k.k.k.k.",
"k.k.k.k.k.k.k.k.k.k.k.k.k.k.k.k.k.k.k.k.k.k.k.  . 6.j.j.j.j.j.j.j.j.j.j.j.j.s.#.a.3.B k.k.k.k.k.k.k.k.k.k.k.k.k.k.k.k.k.k.k.k.k.",
"k.k.k.k.k.k.k.k.k.k.k.k.k.k.k.k.k.k.k.k.k.k.7 M N e.j.j.j.j.j.j.j.j.j.j.6.6.i.B e.j.;.  k.k.k.k.k.k.k.k.k.k.k.k.k.k.k.k.k.k.k.k.",
"k.k.k.k.k.k.k.k.k.k.k.k.k.k.k.k.k.k.k.k.k.  N h.j.j.j.j.j.j.j.j.j.j.j.j.H F j.h.j.d.$.  k.k.k.k.k.k.k.k.k.k.k.k.k.k.k.k.k.k.k.k.",
"k.k.k.k.k.k.k.k.k.k.k.k.k.k.k.k.k.k.k.k.k.  N j.j.j.j.j.j.j.j.j.j.j.j.j.d.d.j.h.h.H $   .   k.k.k.k.k.k.k.k.k.k.k.k.k.k.k.k.k.k.",
"k.k.k.k.k.k.k.k.k.k.k.k.k.k.k.k.k.k.k.k.    N j.j.j.j.j.j.j.j.j.j.j.j.j.j.j.p.N b & 2 _ _ _ p       k.k.k.k.k.k.k.k.k.k.k.k.k.k.",
"k.k.k.k.k.k.k.k.k.k.k.k.k.k.k.k.k.k.k.k.    N j.j.j.j.j.j.j.j.j.j.j.j.j.j.q.C . g l ) | Q | _ k h     k.k.k.k.k.k.k.k.k.k.k.k.k.",
"k.k.k.k.k.k.k.k.k.k.k.k.k.k.k.k.k.k.k.k.    N j.j.j.j.j.j.j.j.j.j.j.j.j.e.@.y i { [ ] } g [ o.O.} p X k.k.k.k.k.k.k.k.k.k.k.k.k.",
"k.k.k.k.k.k.k.k.k.k.k.k.k.k.k.k.k.k.k.k.    N j.j.j.j.j.j.j.j.j.j.j.j.j.Z p ..X.o.k j X.....o.o.X.[ < k.k.k.k.k.k.k.k.k.k.k.k.k.",
"k.k.k.k.k.k.k.k.k.k.k.k.k.k.k.k.k.k.k.k.k.  N j.j.j.j.j.j.j.j.j.j.j.j.j.Z p X.o.o.| | o.o.X.o.o.[ <   k.k.k.k.k.k.k.k.k.k.k.k.k.",
"k.k.k.k.k.k.k.k.k.k.k.k.k.k.k.k.k.k.k.k.k.  N j.j.j.j.j.j.j.j.j.j.j.j.j.e.@.h  .O.O.O.o.o.O.+.` 2   k.k.k.k.k.k.k.k.k.k.k.k.k.k.",
"k.k.k.k.k.k.k.k.k.k.k.k.k.k.k.k.k.k.k.k.k.k.c H #.a.j.j.j.j.j.j.j.j.j.j.j.q.D x l l l x k k l u     k.k.k.k.k.k.k.k.k.k.k.k.k.k.",
"k.k.k.k.k.k.k.k.k.k.k.k.k.k.k.k.k.k.k.k.k.k.      %.<.q.j.j.j.j.j.j.j.j.j.j.p.M o                 k.k.k.k.k.k.k.k.k.k.k.k.k.k.k.",
"k.k.k.k.k.k.k.k.k.k.k.k.k.k.k.k.  o 4 * * * 4 * 4 4 $ M i.i.i.i.p.y.i.p.i.p.y.q.6     k.k.k.k.k.k.k.k.k.k.k.k.k.k.k.k.k.k.k.k.k.",
"k.k.k.k.k.k.k.k.k.k.k.k.k.  . .   M r.p.p.p.r.p.i.i.N o 3 3 3 3 3 4 , 4 4 , * * o .     k.k.k.k.k.k.k.k.k.k.k.k.k.k.k.k.k.k.k.k.",
"k.k.k.k.k.k.k.k.k.k.k.k.  * ;.<.<.q.j.j.j.j.j.j.h.F f K K K K K K K L K K L r + %.3.F   k.k.k.k.k.k.k.k.k.k.k.k.k.k.k.k.k.k.k.k.",
"k.k.k.k.k.k.k.k.k.k.k.  5 *.j.j.j.j.j.j.j.j.j.j.g.7 e E E E E E E E E E E U q + 6.j.;.  k.k.k.k.k.k.k.k.k.k.k.k.k.k.k.k.k.k.k.k.",
"k.k.k.k.k.k.k.k.k.k.  * #.j.j.j.j.j.j.j.j.j.j.g.<.a J E R E R R E R R E U d b M e.j.;.  k.k.k.k.k.k.k.k.k.k.k.k.k.k.k.k.k.k.k.k.",
"k.k.k.k.k.k.k.k.k.k.  G y.h.j.j.j.j.j.j.j.j.j.q., P R E R T T T Y Y Y Y w F h.h.j.j.;.    k.k.k.k.k.k.k.k.k.k.k.k.k.k.k.k.k.k.k.",
"k.k.k.k.k.k.k.k.k.k.  G 9.t.h.j.j.j.j.j.j.j.j.6.% P R R I = @ @ @ @ @ @ $.d.j.j.j.j.;.    k.k.k.k.k.k.k.k.k.k.k.k.k.k.k.k.k.k.k.",
"k.k.k.k.k.k.k.k.k.k.  , S 9.y.h.j.j.j.j.j.j.3.9   - ; ; = . %.2.2.<.<.<.p.j.j.j.j.j.;.    k.k.k.k.k.k.k.k.k.k.k.k.k.k.k.k.k.k.k.",
"k.k.k.k.k.k.k.k.k.k.k.  v 9.8.u.h.j.j.j.j.j.6.H H H H H H #.s.j.j.j.j.j.j.j.j.j.j.j.;.    k.k.k.k.k.k.k.k.k.k.k.k.k.k.k.k.k.k.k.",
"k.k.k.k.k.k.k.k.k.k.k.k.s =.7.8.s.j.j.j.j.j.j.j.j.j.j.j.j.j.j.j.j.j.j.j.j.j.j.j.j.e.F   k.k.k.k.k.k.k.k.k.k.k.k.k.k.k.k.k.k.k.k.",
"k.k.k.k.k.k.k.k.k.k.k.k.k.5 :.7.s.h.h.j.j.j.j.j.j.j.j.j.j.j.j.j.j.j.j.j.j.j.j.j.s.N     k.k.k.k.k.k.k.k.k.k.k.k.k.k.k.k.k.k.k.k.",
"k.k.k.k.k.k.k.k.k.k.k.k.k.k.4 :.9.8.r.j.j.j.j.j.j.j.j.j.j.j.j.j.j.j.j.j.j.j.j.d.m o   k.k.k.k.k.k.k.k.k.k.k.k.k.k.k.k.k.k.k.k.k.",
"k.k.k.k.k.k.k.k.k.k.k.k.k.k.  6 9 S 0.y.t.f.j.j.j.j.j.j.j.j.j.j.j.j.j.j.j.j.p.M o   k.k.k.k.k.k.k.k.k.k.k.k.k.k.k.k.k.k.k.k.k.k.",
"k.k.k.k.k.k.k.k.k.k.k.k.k.k.k.k.  4 V Z 4.u.s.d.j.j.j.j.j.j.j.j.j.j.j.j.j.q.C .   k.k.k.k.k.k.k.k.k.k.k.k.k.k.k.k.k.k.k.k.k.k.k.",
"k.k.k.k.k.k.k.k.k.k.k.k.k.k.k.k.k.    . S &.>.0.g.f.h.j.j.j.j.j.j.j.j.j.j.;.      k.k.k.k.k.k.k.k.k.k.k.k.k.k.k.k.k.k.k.k.k.k.k.",
"k.k.k.k.k.k.k.k.k.k.k.k.k.k.k.k.k.k.        c ,.1.7.s.h.h.j.j.j.j.j.j.j.g.%.  k.k.k.k.k.k.k.k.k.k.k.k.k.k.k.k.k.k.k.k.k.k.k.k.k.",
"k.k.k.k.k.k.k.k.k.k.k.k.k.k.k.k.k.k.k.k.    o % 4 -.8.9.t.h.j.j.j.j.j.j.H o   k.k.k.k.k.k.k.k.k.k.k.k.k.k.k.k.k.k.k.k.k.k.k.k.k.",
"k.k.k.k.k.k.k.k.k.k.k.k.k.k.k.k.k.k.k.k.k.k.k.k.k.8 9 S 0.y.y.u.y.a.h.A 6 k.k.k.k.k.k.k.k.k.k.k.k.k.k.k.k.k.k.k.k.k.k.k.k.k.k.k.",
"k.k.k.k.k.k.k.k.k.k.k.k.k.k.k.k.k.k.k.k.k.k.k.k.k.    4 V V V V V Z H * k.k.k.k.k.k.k.k.k.k.k.k.k.k.k.k.k.k.k.k.k.k.k.k.k.k.k.k.",
"k.k.k.k.k.k.k.k.k.k.k.k.k.k.k.k.k.k.k.k.k.k.k.k.k.    O 1 <     O 1 1 X k.k.k.k.k.k.k.k.k.k.k.k.k.k.k.k.k.k.k.k.k.k.k.k.k.k.k.k.",
"k.k.k.k.k.k.k.k.k.k.k.k.k.k.k.k.k.k.k.k.k.k.k.k.k.k.  1 ( ` t . 2 ( ) : k.k.k.k.k.k.k.k.k.k.k.k.k.k.k.k.k.k.k.k.k.k.k.k.k.k.k.k.",
"k.k.k.k.k.k.k.k.k.k.k.k.k.k.k.k.k.k.k.k.k.k.k.k.k.k.    2 } | g   1 / : k.k.k.k.k.k.k.k.k.k.k.k.k.k.k.k.k.k.k.k.k.k.k.k.k.k.k.k.",
"k.k.k.k.k.k.k.k.k.k.k.k.k.k.k.k.k.k.k.k.k.k.k.k.k.k.k.  X u { } j . 1 X k.k.k.k.k.k.k.k.k.k.k.k.k.k.k.k.k.k.k.k.k.k.k.k.k.k.k.k.",
"k.k.k.k.k.k.k.k.k.k.k.k.k.k.k.k.k.k.k.k.k.k.k.k.k.k.k.k.    ' +.[ h     k.k.k.k.k.k.k.k.k.k.k.k.k.k.k.k.k.k.k.k.k.k.k.k.k.k.k.k.",
"k.k.k.k.k.k.k.k.k.k.k.k.k.k.k.k.k.k.k.k.k.k.k.k.k.k.k.k.  X ! } O.[ O     k.k.k.k.k.k.k.k.k.k.k.k.k.k.k.k.k.k.k.k.k.k.k.k.k.k.k.",
"k.k.k.k.k.k.k.k.k.k.k.k.k.k.k.k.k.k.k.k.k.k.k.k.k.k.k.k.k.    ~ +.[ < # # O     k.k.k.k.k.k.k.k.k.k.k.k.k.k.k.k.k.k.k.k.k.k.k.k.",
"k.k.k.k.k.k.k.k.k.k.k.k.k.k.k.k.k.k.k.k.k.k.k.k.k.k.          ~ o...} } } Q     k.k.k.k.k.k.k.k.k.k.k.k.k.k.k.k.k.k.k.k.k.k.k.k.",
"k.k.k.k.k.k.k.k.k.k.k.k.k.k.k.k.k.k.k.k.k.k.k.k.k.    2 _ ( : ~ O.o.O.O.~ >   k.k.k.k.k.k.k.k.k.k.k.k.k.k.k.k.k.k.k.k.k.k.k.k.k.",
"k.k.k.k.k.k.k.k.k.k.k.k.k.k.k.k.k.k.k.k.k.k.k.k.X j l _ +.X.1 ~ +.| Q l y k.k.k.k.k.k.k.k.k.k.k.k.k.k.k.k.k.k.k.k.k.k.k.k.k.k.k.",
"k.k.k.k.k.k.k.k.k.k.k.k.k.k.k.k.k.k.k.k.k.k.k.k.X ~ ` ` ) ( : h _ ^ X   k.k.k.k.k.k.k.k.k.k.k.k.k.k.k.k.k.k.k.k.k.k.k.k.k.k.k.k.",
"k.k.k.k.k.k.k.k.k.k.k.k.k.k.k.k.k.k.k.k.k.k.k.k.k.. X           .   k.k.k.k.k.k.k.k.k.k.k.k.k.k.k.k.k.k.k.k.k.k.k.k.k.k.k.k.k.k.",
"k.k.k.k.k.k.k.k.k.k.k.k.k.k.k.k.k.k.k.k.k.k.k.k.k.k.k.k.k.k.k.k.k.k.k.k.k.k.k.k.k.k.k.k.k.k.k.k.k.k.k.k.k.k.k.k.k.k.k.k.k.k.k.k.",
"k.k.k.k.k.k.k.k.k.k.k.k.k.k.k.k.k.k.k.k.k.k.k.k.k.k.k.k.k.k.k.k.k.k.k.k.k.k.k.k.k.k.k.k.k.k.k.k.k.k.k.k.k.k.k.k.k.k.k.k.k.k.k.k.",
"k.k.k.k.k.k.k.k.k.k.k.k.k.k.k.k.k.k.k.k.k.k.k.k.k.k.k.k.k.k.k.k.k.k.k.k.k.k.k.k.k.k.k.k.k.k.k.k.k.k.k.k.k.k.k.k.k.k.k.k.k.k.k.k.",
"k.k.k.k.k.k.k.k.k.k.k.k.k.k.k.k.k.k.k.k.k.k.k.k.k.k.k.k.k.k.k.k.k.k.k.k.k.k.k.k.k.k.k.k.k.k.k.k.k.k.k.k.k.k.k.k.k.k.k.k.k.k.k.k.",
"k.k.k.k.k.k.k.k.k.k.k.k.k.k.k.k.k.k.k.k.k.k.k.k.k.k.k.k.k.k.k.k.k.k.k.k.k.k.k.k.k.k.k.k.k.k.k.k.k.k.k.k.k.k.k.k.k.k.k.k.k.k.k.k."
};
