/* XPM */
static char *result[] = {
/* columns rows colors chars-per-pixel */
"64 64 135 2 ",
"   c #010101",
".  c #0C0302",
"X  c #0C0A04",
"o  c #0A0B0B",
"O  c #140303",
"+  c #1A0403",
"@  c #120D02",
"#  c #160B0A",
"$  c #161103",
"%  c #1B1503",
"&  c #151209",
"*  c #1C180B",
"=  c #141414",
"-  c #1A1A1A",
";  c #240705",
":  c #2E0604",
">  c #290806",
",  c #310705",
"<  c #380705",
"1  c #320907",
"2  c #380806",
"3  c #350A08",
"4  c #3C0B09",
"5  c #211902",
"6  c #2F2302",
"7  c #3E2D00",
"8  c #23211C",
"9  c #312914",
"0  c #3E3418",
"q  c #252525",
"w  c #292827",
"e  c #2D2D2D",
"r  c #33312F",
"t  c #343332",
"y  c #3C3C3C",
"u  c #430906",
"i  c #490B09",
"p  c #6E130E",
"a  c #73130F",
"s  c #721511",
"d  c #7D1611",
"f  c #443302",
"g  c #483604",
"h  c #4D3904",
"j  c #702A27",
"k  c #564004",
"l  c #5E4605",
"z  c #634902",
"x  c #725506",
"c  c #775806",
"v  c #7A5B06",
"b  c #544E3D",
"n  c #705F31",
"m  c #444444",
"M  c #4C4D4E",
"N  c #4D4E51",
"B  c #535353",
"V  c #595654",
"C  c #595A5A",
"Z  c #62605E",
"A  c #626363",
"S  c #696663",
"D  c #6A6A6B",
"F  c #727272",
"G  c #767878",
"H  c #7A7B7B",
"J  c #801813",
"K  c #951C17",
"L  c #9D1D17",
"P  c #9E1E18",
"I  c #AB201A",
"U  c #B1211B",
"Y  c #BD241D",
"T  c #C2241D",
"R  c #846206",
"E  c #8A6607",
"W  c #8C6808",
"Q  c #936D07",
"!  c #9D7408",
"~  c #A17706",
"^  c #A47906",
"/  c #A0770A",
"(  c #A67C0D",
")  c #AA7F09",
"_  c #827961",
"`  c #AE8108",
"'  c #B48609",
"]  c #BD8C09",
"[  c #C79309",
"{  c #CA9509",
"}  c #CC980A",
"|  c #D19B0A",
" . c #D7A00C",
".. c #DAA20B",
"X. c #ECAF0C",
"o. c #F5B60C",
"O. c #F9B90C",
"+. c #888380",
"@. c #8C8C8C",
"#. c #918C89",
"$. c #95908D",
"%. c #949494",
"&. c #9C9C9C",
"*. c #A5A5A5",
"=. c #A7A8A9",
"-. c #AAAAAB",
";. c #B0AAA5",
":. c #B1AEAA",
">. c #AEAFB0",
",. c #B3B3B3",
"<. c #BBBAB6",
"1. c #BCBCBC",
"2. c #C2BCB6",
"3. c #C8C1BC",
"4. c #C3C3C4",
"5. c #CFC8C2",
"6. c #CBCBCB",
"7. c #D2CCC6",
"8. c #D6CFC8",
"9. c #D7D0CA",
"0. c #D9D2CC",
"q. c #D4D4D4",
"w. c #DCD6D1",
"e. c #DED8D3",
"r. c #DADADA",
"t. c #E2DCD7",
"y. c #E6E1DE",
"u. c #E3E3E3",
"i. c #EAE6E2",
"p. c #ECE9E6",
"a. c #ECECEC",
"s. c #F4F4F4",
"d. c #F8F7F6",
"f. c #FFFFFF",
"g. c None",
/* pixels */
"g.g.g.g.g.g.g.g.g.g.g.g.g.g.g.g.g.g.g.g.g.g.g.g.g.g.g.g.g.g.g.g.g.g.g.g.g.g.g.g.g.g.g.g.g.g.g.g.g.g.g.g.g.g.g.g.g.g.g.g.g.g.g.g.",
"g.g.g.g.g.g.g.g.g.g.g.g.g.g.g.g.g.g.g.g.g.g.g.g.g.g.g.g.g.g.g.g.g.g.g.g.g.g.g.g.g.g.g.g.g.g.g.g.g.g.g.g.g.g.g.g.g.g.g.g.g.g.g.g.",
"g.g.g.g.g.g.g.g.g.g.g.g.g.g.g.g.g.g.g.g.g.g.g.g.g.g.g.g.g.g.g.g.g.g.g.g.g.g.g.g.g.g.g.g.g.g.g.g.g.g.g.g.g.g.g.g.g.g.g.g.g.g.g.g.",
"g.g.g.g.g.g.g.g.g.g.g.g.g.g.g.g.g.g.g.g.g.g.g.g.g.g.g.g.g.g.g.g.g.g.g.g.g.g.g.g.g.g.g.g.g.g.g.g.g.g.g.g.g.g.g.g.g.g.g.g.g.g.g.g.",
"g.g.g.g.g.g.g.g.g.g.g.g.g.g.g.g.g.g.g.g.g.g.g.g.g.g.g.g.g.g.g.g.g.g.g.g.g.g.g.g.g.g.g.g.g.g.g.g.g.g.g.g.g.g.g.g.g.g.g.g.g.g.g.g.",
"g.g.g.g.g.g.g.g.g.g.g.g.g.g.g.g.g.g.g.g.g.g.g.g.g.g.g.g.g.g.g.g.g.g.g.g.g.g.g.g.g.g.g.g.g.g.g.g.g.g.g.g.g.g.g.g.g.g.g.g.g.g.g.g.",
"g.g.g.g.g.g.g.g.g.g.g.g.g.g.g.g.g.g.g.g.g.g.g.g.g.g.g.g.g.g.g.g.g.g.g.g.g.g.g.g.g.g.g.g.g.g.g.g.g.g.g.g.g.g.g.g.g.g.g.g.g.g.g.g.",
"g.g.g.g.g.g.g.g.g.g.g.g.g.g.g.g.g.g.g.g.g.g.g.g.g.g.g.g.g.g.g.g.g.g.g.g.g.g.g.g.g.g.g.g.g.g.g.g.g.g.g.g.g.g.g.g.g.g.g.g.g.g.g.g.",
"g.g.g.g.g.g.g.g.g.g.g.g.g.g.g.g.g.g.g.g.g.g.g.g.g.g.g.g.g.g.g.g.g.g.g.g.g.g.g.g.g.g.g.g.g.g.g.g.g.g.g.g.g.g.g.g.g.g.g.g.g.g.g.g.",
"g.g.g.g.g.g.g.g.g.g.g.g.g.g.g.g.g.g.g.g.g.g.g.g.g.g.g.g.g.g.g.g.g.g.g.g.g.g.g.g.g.g.g.g.g.g.g.g.g.g.g.g.g.g.g.g.g.g.g.g.g.g.g.g.",
"g.g.g.g.g.g.g.g.g.g.g.g.g.g.g.g.g.g.g.g.g.g.g.g.g.g.g.g.g.g.  g.g.g.g.X   g.g.g.g.g.g.g.g.g.g.g.g.g.g.g.g.g.g.g.g.g.g.g.g.g.g.g.",
"g.g.g.g.g.g.g.g.g.g.g.g.g.g.g.g.g.g.g.g.g.g.g.g.g.g.g.g.g.A &.= g.g.y *.q g.g.g.g.g.g.g.g.g.g.g.g.g.g.g.g.g.g.g.g.g.g.g.g.g.g.g.",
"g.g.g.g.g.g.g.g.g.g.g.g.g.g.g.g.g.g.g.g.g.g.g.g.g.g.g.g.  G r.=   B H @.w g.g.g.g.g.g.g.g.g.g.g.g.g.g.g.g.g.g.g.g.g.g.g.g.g.g.g.",
"g.g.g.g.g.g.g.g.g.g.g.g.g.g.g.g.g.g.g.g.g.g.g.g.g.g.g.g.  S ,.y X D &.  g.g.g.g.g.g.g.g.g.g.g.g.g.g.g.g.g.g.g.g.g.g.g.g.g.g.g.g.",
"g.g.g.g.g.g.g.g.g.g.g.g.g.g.g.g.g.g.g.g.g.g.g.g.g.g.g.g.g.= m r.m = - = = g.g.g.g.g.g.g.g.g.g.g.g.g.g.g.g.g.g.g.g.g.g.g.g.g.g.g.",
"g.g.g.g.g.g.g.g.g.g.g.g.g.g.g.g.g.g.g.g.g.g.g.g.g.g.g.g.  C q.d.q.4.4.4.4.C     g.g.g.g.g.g.g.g.g.g.g.g.g.g.g.g.g.g.g.g.g.g.g.g.",
"g.g.g.g.g.g.g.g.g.g.g.g.g.g.g.g.g.g.g.g.g.g.g.g.g.g.    S 1.f.f.f.f.f.f.f.1.C     g.g.g.g.g.g.g.g.g.g.g.g.g.g.g.g.g.g.g.g.g.g.g.",
"g.g.g.g.g.g.g.g.g.g.g.g.g.g.g.g.g.g.g.g.g.g.g.g.g.  o m 6.f.f.f.f.f.f.f.f.f.6.m o   g.g.g.g.g.g.g.g.g.g.g.g.g.g.g.g.g.g.g.g.g.g.",
"g.g.g.g.g.g.g.g.g.g.g.g.g.g.g.g.g.g.g.g.g.g.g.g.  o t u.f.f.f.a.d.d.s.f.f.f.f.r.e     g.g.g.g.g.g.g.g.g.g.g.g.g.g.g.g.g.g.g.g.g.",
"g.g.g.g.g.g.g.g.g.g.g.g.g.g.g.g.g.g.g.g.g.g.g.    m q.d.f.f.r.m q.%.A d.f.f.f.d.r.m   g.g.g.g.g.g.g.g.g.g.g.g.g.g.g.g.g.g.g.g.g.",
"g.g.g.g.g.g.g.g.g.g.g.g.g.g.g.g.g.g.g.g.g.g.g.  C 4.f.f.f.f.a.-.a.6.,.f.f.f.f.f.d.M   g.g.g.g.g.g.g.g.g.g.g.g.g.g.g.g.g.g.g.g.g.",
"g.g.g.g.g.g.g.g.g.g.g.g.g.g.g.g.g.g.g.g.g.g.g.  %.f.f.f.f.f.s.,.=.=.4.f.f.f.f.f.f.M   g.g.g.g.g.g.g.g.g.g.g.g.g.g.g.g.g.g.g.g.g.",
"g.g.g.g.g.g.g.g.g.g.g.g.g.g.g.g.g.g.g.g.g.g.  - *.f.f.f.p.r.<.9 5 5 b r.r.s.f.f.d.D =   g.g.g.g.g.g.g.g.g.g.g.g.g.g.g.g.g.g.g.g.",
"g.g.g.g.g.g.g.g.g.g.g.g.g.g.g.g.g.g.g.g.g.g.= 4.d.f.d.d.A - 0 [ ..| ( 8 - &.f.f.f.a.@.  g.g.g.g.g.g.g.g.g.g.g.g.g.g.g.g.g.g.g.g.",
"g.g.g.g.g.g.g.g.g.g.g.g.g.g.g.g.g.g.g.g.g.g.- r.f.4.N M = f Q k } ~ l ~ ^ n M A p.f.&.  g.g.g.g.g.g.g.g.g.g.g.g.g.g.g.g.g.g.g.g.",
"g.g.g.g.g.g.g.g.g.g.g.g.g.g.g.g.g.g.g.g.g.g.= r.4._ z z z ` ..c | ) E o.O.^ 7 - u.f.&.  g.g.g.g.g.g.g.g.g.g.g.g.g.g.g.g.g.g.g.g.",
"g.g.g.g.g.g.g.g.g.g.g.g.g.g.g.g.g.g.g.g.g.g.= r.D 7 [ [ [ [ [ [ [ [ [ [ [ [ E 8 u.f.&.  g.g.g.g.g.g.g.g.g.g.g.g.g.g.g.g.g.g.g.g.",
"g.g.g.g.g.g.g.g.g.g.g.g.g.g.g.g.g.g.g.g.g.g.- r.F X * * * * * & * * * * * * & w r.d.%.  g.g.g.g.g.g.g.g.g.g.g.g.g.g.g.g.g.g.g.g.",
"g.g.g.g.g.g.g.g.g.g.g.g.g.g.g.g.g.g.g.g.g.g.- r.u.4.4.4.4.4.4.4.1.4.4.4.4.4.4.,.M y q   g.g.g.g.g.g.g.g.g.g.g.g.g.g.g.g.g.g.g.g.",
"g.g.g.g.g.g.g.g.g.g.g.g.g.g.g.g.g.g.g.g.g.g.g.D H H @.d.f.f.f.f.f.f.f.f.%.H H D o     g.g.g.g.g.g.g.g.g.g.g.g.g.g.g.g.g.g.g.g.g.",
"g.g.g.g.g.g.g.g.g.g.g.g.g.g.g.g.g.g.g.g.g.g.g.      = =.1.1.1.1.1.1.1.>.- O 1 : 1 .   g.g.g.g.g.g.g.g.g.g.g.g.g.g.g.g.g.g.g.g.g.",
"g.g.g.g.g.g.g.g.g.g.g.g.g.g.g.g.g.g.g.g.    O . . . O # # # # # # # # # X s Y Y I 3     g.g.g.g.g.g.g.g.g.g.g.g.g.g.g.g.g.g.g.g.",
"g.g.g.g.g.g.g.g.g.g.g.g.g.g.g.g.g.g.g.    > K P P P P L L L L P L L P P P U T U 3 .       g.g.g.g.g.g.g.g.g.g.g.g.g.g.g.g.g.g.g.",
"g.g.g.g.g.g.g.g.g.g.g.g.g.g.g.g.g.g.o H m , Y T T T T T T T T T T T T T T T P u   S &.G X   g.g.g.g.g.g.g.g.g.g.g.g.g.g.g.g.g.g.",
"g.g.g.g.g.g.g.g.g.g.g.g.g.g.g.g.g.g.o 6.H : U T Y Y T Y Y Y Y Y Y T I d d J j B C 6.f.u.Z =   g.g.g.g.g.g.g.g.g.g.g.g.g.g.g.g.g.",
"g.g.g.g.g.g.g.g.g.g.g.g.g.g.g.g.  X w 6.H : Y Y T Y Y Y T Y Y I I I d . - - S d.f.f.f.f.s.m     g.g.g.g.g.g.g.g.g.g.g.g.g.g.g.g.",
"g.g.g.g.g.g.g.g.g.g.g.g.g.g.g.    t r.d.G : Y Y Y T Y Y Y Y P ; # + # = 1.u.a.f.f.f.f.f.d.m     g.g.g.g.g.g.g.g.g.g.g.g.g.g.g.g.",
"g.g.g.g.g.g.g.g.g.g.g.g.g.g.g.  M 4.f.f.G : Y T T K 4 2 2 2 :     V >.,.s.f.f.f.f.f.f.f.f.:.m   g.g.g.g.g.g.g.g.g.g.g.g.g.g.g.g.",
"g.g.g.g.g.g.g.g.g.g.g.g.g.g.g.  F f.f.f.G + p a s i     m A A A Z ,.f.f.f.f.f.f.f.f.f.f.f.t.S   g.g.g.g.g.g.g.g.g.g.g.g.g.g.g.g.",
"g.g.g.g.g.g.g.g.g.g.g.g.g.g.g.  F f.f.r.A o w e e e e t 1.f.f.f.f.f.f.f.f.f.f.f.f.f.f.f.d.t.S   g.g.g.g.g.g.g.g.g.g.g.g.g.g.g.g.",
"g.g.g.g.g.g.g.g.g.g.g.g.g.g.    F f.d.B o m u.a.a.a.a.a.d.f.f.f.f.f.f.f.f.f.f.f.f.f.f.d.w.9.S   g.g.g.g.g.g.g.g.g.g.g.g.g.g.g.g.",
"g.g.g.g.g.g.g.g.g.g.g.g.g.g.    F f.f.6.1.q.f.f.f.f.f.f.f.f.f.f.f.f.f.f.f.f.f.f.f.f.f.d.0.9.S   g.g.g.g.g.g.g.g.g.g.g.g.g.g.g.g.",
"g.g.g.g.g.g.g.g.g.g.g.g.g.g.g.  F f.f.f.f.f.f.f.f.f.f.f.f.f.f.f.f.f.f.f.f.f.f.f.f.f.d.y.7.+.r   g.g.g.g.g.g.g.g.g.g.g.g.g.g.g.g.",
"g.g.g.g.g.g.g.g.g.g.g.g.g.g.g.  B q.f.f.f.f.f.f.f.f.f.f.f.f.f.f.f.f.f.f.f.f.f.f.s.s.i.8.7.t     g.g.g.g.g.g.g.g.g.g.g.g.g.g.g.g.",
"g.g.g.g.g.g.g.g.g.g.g.g.g.g.g.    y u.a.d.f.f.f.f.f.f.f.f.f.f.f.f.f.f.f.f.f.f.d.w.9.7.3.2.t g.g.g.g.g.g.g.g.g.g.g.g.g.g.g.g.g.g.",
"g.g.g.g.g.g.g.g.g.g.g.g.g.g.g.g.  o r r &.f.f.f.f.f.f.f.f.f.f.f.f.f.f.f.f.p.w.t.9.0.#.w w g.g.g.g.g.g.g.g.g.g.g.g.g.g.g.g.g.g.g.",
"g.g.g.g.g.g.g.g.g.g.g.g.g.g.g.g.g.      t D H a.f.f.f.p.i.i.p.i.i.i.i.i.i.t.;.V V V t     g.g.g.g.g.g.g.g.g.g.g.g.g.g.g.g.g.g.g.",
"g.g.g.g.g.g.g.g.g.g.g.g.g.g.g.g.g.g.        o %.,.>.-.$.#.#.#.#.#.#.#.#.@.#.Z             g.g.g.g.g.g.g.g.g.g.g.g.g.g.g.g.g.g.g.",
"g.g.g.g.g.g.g.g.g.g.g.g.g.g.g.g.g.g.g.g.g.      @ % & .   X     X   X   % 5 $     g.g.g.g.g.g.g.g.g.g.g.g.g.g.g.g.g.g.g.g.g.g.g.",
"g.g.g.g.g.g.g.g.g.g.g.g.g.g.g.g.g.g.g.g.g.g.g.  l ( W @ g.g.g.g.g.g.g.@ `  .Q   g.g.g.g.g.g.g.g.g.g.g.g.g.g.g.g.g.g.g.g.g.g.g.g.",
"g.g.g.g.g.g.g.g.g.g.g.g.g.g.g.g.g.g.g.g.g.g.g.  v  .! $ g.g.g.g.g.g.g.@ } ! g g.g.g.g.g.g.g.g.g.g.g.g.g.g.g.g.g.g.g.g.g.g.g.g.g.",
"g.g.g.g.g.g.g.g.g.g.g.g.g.g.g.g.g.g.g.g.g.g.g.  W X.' $ g.g.g.g.g.g.g.X v h g.g.g.g.g.g.g.g.g.g.g.g.g.g.g.g.g.g.g.g.g.g.g.g.g.g.",
"g.g.g.g.g.g.g.g.g.g.g.g.g.g.g.g.g.g.g.g.g.g.g.5 ! O.| % g.g.g.g.g.g.g.    g.g.g.g.g.g.g.g.g.g.g.g.g.g.g.g.g.g.g.g.g.g.g.g.g.g.g.",
"g.g.g.g.g.g.g.g.g.g.g.g.g.g.g.g.g.g.g.g.g.  % ] X.o.| %   X g.g.g.g.g.g.g.g.g.g.g.g.g.g.g.g.g.g.g.g.g.g.g.g.g.g.g.g.g.g.g.g.g.g.",
"g.g.g.g.g.g.g.g.g.g.g.g.g.g.g.g.g.g.g.    6 ' X.o.o.X.] ' x   g.g.g.g.g.g.g.g.g.g.g.g.g.g.g.g.g.g.g.g.g.g.g.g.g.g.g.g.g.g.g.g.g.",
"g.g.g.g.g.g.g.g.g.g.g.g.g.g.g.g.g.g.g.    5 c c c c c v v g   g.g.g.g.g.g.g.g.g.g.g.g.g.g.g.g.g.g.g.g.g.g.g.g.g.g.g.g.g.g.g.g.g.",
"g.g.g.g.g.g.g.g.g.g.g.g.g.g.g.g.g.g.g.                        g.g.g.g.g.g.g.g.g.g.g.g.g.g.g.g.g.g.g.g.g.g.g.g.g.g.g.g.g.g.g.g.g.",
"g.g.g.g.g.g.g.g.g.g.g.g.g.g.g.g.g.g.g.g.g.g.g.g.g.g.g.g.g.g.g.g.g.g.g.g.g.g.g.g.g.g.g.g.g.g.g.g.g.g.g.g.g.g.g.g.g.g.g.g.g.g.g.g.",
"g.g.g.g.g.g.g.g.g.g.g.g.g.g.g.g.g.g.g.g.g.g.g.g.g.g.g.g.g.g.g.g.g.g.g.g.g.g.g.g.g.g.g.g.g.g.g.g.g.g.g.g.g.g.g.g.g.g.g.g.g.g.g.g.",
"g.g.g.g.g.g.g.g.g.g.g.g.g.g.g.g.g.g.g.g.g.g.g.g.g.g.g.g.g.g.g.g.g.g.g.g.g.g.g.g.g.g.g.g.g.g.g.g.g.g.g.g.g.g.g.g.g.g.g.g.g.g.g.g.",
"g.g.g.g.g.g.g.g.g.g.g.g.g.g.g.g.g.g.g.g.g.g.g.g.g.g.g.g.g.g.g.g.g.g.g.g.g.g.g.g.g.g.g.g.g.g.g.g.g.g.g.g.g.g.g.g.g.g.g.g.g.g.g.g.",
"g.g.g.g.g.g.g.g.g.g.g.g.g.g.g.g.g.g.g.g.g.g.g.g.g.g.g.g.g.g.g.g.g.g.g.g.g.g.g.g.g.g.g.g.g.g.g.g.g.g.g.g.g.g.g.g.g.g.g.g.g.g.g.g.",
"g.g.g.g.g.g.g.g.g.g.g.g.g.g.g.g.g.g.g.g.g.g.g.g.g.g.g.g.g.g.g.g.g.g.g.g.g.g.g.g.g.g.g.g.g.g.g.g.g.g.g.g.g.g.g.g.g.g.g.g.g.g.g.g.",
"g.g.g.g.g.g.g.g.g.g.g.g.g.g.g.g.g.g.g.g.g.g.g.g.g.g.g.g.g.g.g.g.g.g.g.g.g.g.g.g.g.g.g.g.g.g.g.g.g.g.g.g.g.g.g.g.g.g.g.g.g.g.g.g."
};
