/* XPM */
static char *result[] = {
/* columns rows colors chars-per-pixel */
"64 64 143 2 ",
"   c #010101",
".  c #090702",
"X  c #0D0A02",
"o  c #07080B",
"O  c #0B0B0B",
"+  c #150403",
"@  c #1A0505",
"#  c #120D01",
"$  c #170908",
"%  c #161101",
"&  c #1B1401",
"*  c #0F1010",
"=  c #161616",
"-  c #1C1C1C",
";  c #3C0805",
":  c #211902",
">  c #2A1F02",
",  c #241D1A",
"<  c #2E2202",
"1  c #382700",
"2  c #362803",
"3  c #3D2D03",
"4  c #302917",
"5  c #242424",
"6  c #2C2C2C",
"7  c #392727",
"8  c #302F2D",
"9  c #343333",
"0  c #393735",
"q  c #3B3B3C",
"w  c #430907",
"e  c #52100D",
"r  c #5D1C19",
"t  c #781712",
"y  c #402F03",
"u  c #493604",
"i  c #4E3A04",
"p  c #533E04",
"a  c #493F24",
"s  c #423F3E",
"d  c #702623",
"f  c #574005",
"g  c #5A4304",
"h  c #644A05",
"j  c #694E05",
"k  c #6E5206",
"l  c #7F5E07",
"z  c #5A4D2C",
"x  c #42403E",
"c  c #5D5131",
"v  c #434343",
"b  c #4B4B4B",
"n  c #53504E",
"m  c #545453",
"M  c #585552",
"N  c #5C5956",
"B  c #565658",
"V  c #5A5B5B",
"C  c #64615E",
"Z  c #616263",
"A  c #6A6764",
"S  c #6D6D6D",
"D  c #75716E",
"F  c #747373",
"G  c #777778",
"H  c #7A7A7A",
"J  c #951C16",
"K  c #9D1C16",
"L  c #941F1A",
"P  c #A11E18",
"I  c #A92019",
"U  c #B4221C",
"Y  c #BE241D",
"T  c #C1241D",
"R  c #846207",
"E  c #8B6707",
"W  c #8D6907",
"Q  c #886508",
"!  c #906B07",
"~  c #9D7409",
"^  c #A67B0A",
"/  c #AC7F09",
"(  c #806E6D",
")  c #827979",
"_  c #AD810A",
"`  c #B28409",
"'  c #B7880A",
"]  c #BC8C0B",
"[  c #C18F0A",
"{  c #C4920A",
"}  c #C9950A",
"|  c #CF9A0A",
" . c #D29B0A",
".. c #D7A00B",
"X. c #D9A10B",
"o. c #E0A70B",
"O. c #E2A80B",
"+. c #E9AD0C",
"@. c #EEB10C",
"#. c #F3B50C",
"$. c #F9B90C",
"%. c #87837F",
"&. c #838383",
"*. c #938F8C",
"=. c #96918D",
"-. c #959596",
";. c #9C9692",
":. c #9F9A96",
">. c #979899",
",. c #9A9B9B",
"<. c #A49F9B",
"1. c #A2A3A3",
"2. c #ABA5A0",
"3. c #A7A9A9",
"4. c #AAABAB",
"5. c #B2AEAA",
"6. c #B4B5B5",
"7. c #BDB6B1",
"8. c #BBBBBB",
"9. c #C2BBB6",
"0. c #C5BFB9",
"q. c #C2C1BF",
"w. c #C3C3C3",
"e. c #CBCBCB",
"r. c #D0CAC4",
"t. c #D5CEC8",
"y. c #D7D0CB",
"u. c #D9D3CD",
"i. c #D6D6D6",
"p. c #DED7D2",
"a. c #DFDAD5",
"s. c #DBDBDB",
"d. c #E1DAD5",
"f. c #E2DCD8",
"g. c #E4E4E4",
"h. c #EAE6E3",
"j. c #ECE8E6",
"k. c #ECECEB",
"l. c #F0EEEB",
"z. c #F2F0EE",
"x. c #F4F4F4",
"c. c #FFFFFF",
"v. c None",
/* pixels */
"v.v.v.v.v.v.v.v.v.v.v.v.v.v.v.v.v.v.v.v.v.v.v.v.v.v.v.v.v.v.v.v.v.v.v.v.v.v.v.v.v.v.v.v.v.v.v.v.v.v.v.v.v.v.v.v.v.v.v.v.v.v.v.v.",
"v.v.v.v.v.v.v.v.v.v.v.v.v.v.v.v.v.v.v.v.v.v.v.v.v.v.v.v.v.v.v.v.v.v.v.v.v.v.v.v.v.v.v.v.v.v.v.v.v.v.v.v.v.v.v.v.v.v.v.v.v.v.v.v.",
"v.v.v.v.v.v.v.v.v.v.v.v.v.v.v.v.v.v.v.v.v.v.v.v.v.v.v.v.v.v.v.v.v.v.v.v.v.v.v.v.v.v.v.v.v.v.v.v.v.v.v.v.v.v.v.v.v.v.v.v.v.v.v.v.",
"v.v.v.v.v.v.v.v.v.v.v.v.v.v.v.v.v.v.v.v.v.v.v.v.v.v.v.v.v.v.v.v.v.v.v.v.v.v.v.v.v.v.v.v.v.v.v.v.v.v.v.v.v.v.v.v.v.v.v.v.v.v.v.v.",
"v.v.v.v.v.v.v.v.v.v.v.v.v.v.v.v.v.v.v.v.v.v.v.v.v.v.v.v.v.v.v.v.v.v.v.v.v.v.v.v.v.v.v.v.v.v.v.v.v.v.v.v.v.v.v.v.v.v.v.v.v.v.v.v.",
"v.v.v.v.v.v.v.v.v.v.v.v.v.v.v.v.v.v.v.v.v.v.v.v.v.v.v.v.v.v.v.v.v.v.v.v.v.v.v.v.v.v.v.v.v.v.v.v.v.v.v.v.v.v.v.v.v.v.v.v.v.v.v.v.",
"v.v.v.v.v.v.v.v.v.v.v.v.v.v.v.v.v.v.v.v.v.v.v.v.v.v.v.v.v.v.  v.v.  v.v.v.v.v.v.v.v.v.v.v.v.v.v.v.v.v.v.v.v.v.v.v.v.v.v.v.v.v.v.",
"v.v.v.v.v.v.v.v.v.v.v.v.v.v.v.v.v.v.v.v.v.v.v.v.v.v.v.v.v.5 H 0 B H O v.v.v.v.v.v.v.v.v.v.v.v.v.v.v.v.v.v.v.v.v.v.v.v.v.v.v.v.v.",
"v.v.v.v.v.v.v.v.v.v.v.v.v.v.v.v.v.v.v.v.v.v.v.v.v.v.v.v.v.6 k.v B 1.O v.v.v.v.v.v.v.v.v.v.v.v.v.v.v.v.v.v.v.v.v.v.v.v.v.v.v.v.v.",
"v.v.v.v.v.v.v.v.v.v.v.v.v.v.v.v.v.v.v.v.v.v.v.v.v.v.v.v.v.6 i.q   O v.v.v.v.v.v.v.v.v.v.v.v.v.v.v.v.v.v.v.v.v.v.v.v.v.v.v.v.v.v.",
"v.v.v.v.v.v.v.v.v.v.v.v.v.v.v.v.v.v.v.v.v.v.v.v.v.v.v.v.v.v.6 O   v.v.v.v.v.v.v.v.v.v.v.v.v.v.v.v.v.v.v.v.v.v.v.v.v.v.v.v.v.v.v.",
"v.v.v.v.v.v.v.v.v.v.v.v.v.v.v.v.v.v.v.v.v.v.v.v.v.v.v.v.                  v.v.v.v.v.v.v.v.v.v.v.v.v.v.v.v.v.v.v.v.v.v.v.v.v.v.v.",
"v.v.v.v.v.v.v.v.v.v.v.v.v.v.v.v.v.v.v.v.v.v.v.v.v.v.v.  - m b m b b m n 5   v.v.v.v.v.v.v.v.v.v.v.v.v.v.v.v.v.v.v.v.v.v.v.v.v.v.",
"v.v.v.v.v.v.v.v.v.v.v.v.v.v.v.v.v.v.v.v.v.v.v.v.v.  = - G c.c.x.c.c.x.c.&.= - - v.v.v.v.v.v.v.v.v.v.v.v.v.v.v.v.v.v.v.v.v.v.v.v.",
"v.v.v.v.v.v.v.v.v.v.v.v.v.v.v.v.v.v.v.v.v.v.v.    - w.s.k.c.c.c.c.c.c.c.l.s.s.s.Z   v.v.v.v.v.v.v.v.v.v.v.v.v.v.v.v.v.v.v.v.v.v.",
"v.v.v.v.v.v.v.v.v.v.v.v.v.v.v.v.v.v.v.v.v.v.    q 6.x.c.c.c.c.c.c.c.c.c.c.c.c.c.e.H   v.v.v.v.v.v.v.v.v.v.v.v.v.v.v.v.v.v.v.v.v.",
"v.v.v.v.v.v.v.v.v.v.v.v.v.v.v.v.v.v.v.v.v.v.    V c.c.c.c.c.c.c.c.c.c.c.c.c.x.4.i.i.B v.v.v.v.v.v.v.v.v.v.v.v.v.v.v.v.v.v.v.v.v.",
"v.v.v.v.v.v.v.v.v.v.v.v.v.v.v.v.v.v.v.v.v.v.5 - F c.c.c.c.c.c.c.c.c.c.c.k.g.l.b 1.c.g.- v.v.v.v.v.v.v.v.v.v.v.v.v.v.v.v.v.v.v.v.",
"v.v.v.v.v.v.v.v.v.v.v.v.v.v.v.v.v.v.v.v.v.= w.g.k.c.c.c.c.c.c.c.c.c.c.c.&.B x.k.x.c.g.5 v.v.v.v.v.v.v.v.v.v.v.v.v.v.v.v.v.v.v.v.",
"v.v.v.v.v.v.v.v.v.v.v.v.v.v.v.v.v.v.v.v.v.- i.c.c.c.c.c.c.c.c.c.c.c.c.c.i.w.c.c.c.e.b o       v.v.v.v.v.v.v.v.v.v.v.v.v.v.v.v.v.",
"v.v.v.v.v.v.v.v.v.v.v.v.v.v.v.v.v.v.v.v.  = i.c.c.c.c.c.c.c.c.c.c.c.c.c.c.c.x.3.-.Z . p h h g v.v.v.v.v.v.v.v.v.v.v.v.v.v.v.v.v.",
"v.v.v.v.v.v.v.v.v.v.v.v.v.v.v.v.v.v.v.    = i.c.c.c.c.c.c.c.c.c.c.c.c.c.c.x.e.5 # > y X.......3 > %   v.v.v.v.v.v.v.v.v.v.v.v.v.",
"v.v.v.v.v.v.v.v.v.v.v.v.v.v.v.v.v.v.v.    = i.c.c.c.c.c.c.c.c.c.c.c.c.c.c.8., . Q o.X.@.h k @.X.O.R     v.v.v.v.v.v.v.v.v.v.v.v.",
"v.v.v.v.v.v.v.v.v.v.v.v.v.v.v.v.v.v.v.    - i.c.c.c.c.c.c.c.c.c.c.c.c.c.,.c _ ` X.] p  .} } #.#.#.X.! X v.v.v.v.v.v.v.v.v.v.v.v.",
"v.v.v.v.v.v.v.v.v.v.v.v.v.v.v.v.v.v.v.v.  = i.c.c.c.c.c.c.c.c.c.c.c.c.c.F 1 @.#.#.} R o.#.#.#.#.#.] h . v.v.v.v.v.v.v.v.v.v.v.v.",
"v.v.v.v.v.v.v.v.v.v.v.v.v.v.v.v.v.v.v.v.v.= i.c.c.c.c.c.c.c.c.c.c.c.c.c.>.z ' +.#.#.#.#.#.#.#.#.| h     v.v.v.v.v.v.v.v.v.v.v.v.",
"v.v.v.v.v.v.v.v.v.v.v.v.v.v.v.v.v.v.v.v.v.= e.x.x.c.c.c.c.c.c.c.c.c.c.c.c.8.4 ] O.O.O.O.O.O.O.X.u     v.v.v.v.v.v.v.v.v.v.v.v.v.",
"v.v.v.v.v.v.v.v.v.v.v.v.v.v.v.v.v.v.v.v.v.v.9 6 H c.c.c.c.c.c.c.c.c.c.c.c.z.8.z < < < < < < < < X   v.v.v.v.v.v.v.v.v.v.v.v.v.v.",
"v.v.v.v.v.v.v.v.v.v.v.v.v.v.v.v.                5 S G i.c.c.c.c.c.c.c.c.c.c.c.1.q       v.v.v.v.v.v.v.v.v.v.v.v.v.v.v.v.v.v.v.v.",
"v.v.v.v.v.v.v.v.v.v.v.v.v.v.v.  = v b b b v b b b q   H 8.6.6.6.6.6.6.6.6.6.6.8.b     v.v.v.v.v.v.v.v.v.v.v.v.v.v.v.v.v.v.v.v.v.",
"v.v.v.v.v.v.v.v.v.v.v.v.  = = = b x.x.x.x.x.c.x.x.w., + $ $ $ $ $ $ $ $ $ + $ o = = =   v.v.v.v.v.v.v.v.v.v.v.v.v.v.v.v.v.v.v.v.",
"v.v.v.v.v.v.v.v.v.v.    6 e.i.i.s.c.c.c.c.c.c.c.6.7 L P P P P P P P P P P P J @ H s.w.- v.v.v.v.v.v.v.v.v.v.v.v.v.v.v.v.v.v.v.v.",
"v.v.v.v.v.v.v.v.v.    x 6.x.c.c.c.c.c.c.c.c.c.c.1.@ P T T T T T T T T T T P w . -.c.g.5 v.v.v.v.v.v.v.v.v.v.v.v.v.v.v.v.v.v.v.v.",
"v.v.v.v.v.v.v.v.v.  8 ,.c.c.c.c.c.c.c.c.c.c.c.e.D e Y T T T T T T T T T P d m m 8.c.g.5   v.v.v.v.v.v.v.v.v.v.v.v.v.v.v.v.v.v.v.",
"v.v.v.v.v.v.v.v.v.  *.h.c.c.c.c.c.c.c.c.c.c.c.V w T T T Y P P P I P P U r B x.c.c.c.g.5     v.v.v.v.v.v.v.v.v.v.v.v.v.v.v.v.v.v.",
"v.v.v.v.v.v.v.v.v.  =.u.d.c.c.c.c.c.c.c.c.c.c.B w T T T t @ $ $ $ $ @ @ ) k.c.c.c.c.g.5     v.v.v.v.v.v.v.v.v.v.v.v.v.v.v.v.v.v.",
"v.v.v.v.v.v.v.v.v.  9 &.p.c.c.c.c.c.c.c.c.k.S = + ; ; ; @ = ,.4.3.3.3.3.i.c.c.c.c.c.g.5     v.v.v.v.v.v.v.v.v.v.v.v.v.v.v.v.v.v.",
"v.v.v.v.v.v.v.v.v.    N d.j.x.c.c.c.c.c.c.x.H Z Z Z Z Z Z &.x.c.c.c.c.c.c.c.c.c.c.c.g.5   v.v.v.v.v.v.v.v.v.v.v.v.v.v.v.v.v.v.v.",
"v.v.v.v.v.v.v.v.v.v.  M 7.t.k.c.c.c.c.c.c.c.c.c.c.c.c.c.c.c.c.c.c.c.c.c.c.c.c.c.c.x.w.- v.v.v.v.v.v.v.v.v.v.v.v.v.v.v.v.v.v.v.v.",
"v.v.v.v.v.v.v.v.v.v.v.v.0 0.y.h.c.c.c.c.c.c.c.c.c.c.c.c.c.c.c.c.c.c.c.c.c.c.c.c.c.6.-   v.v.v.v.v.v.v.v.v.v.v.v.v.v.v.v.v.v.v.v.",
"v.v.v.v.v.v.v.v.v.v.v.v.v.x 5.d.j.c.c.c.c.c.c.c.c.c.c.c.c.c.c.c.c.c.c.c.c.c.c.c.,.6   v.v.v.v.v.v.v.v.v.v.v.v.v.v.v.v.v.v.v.v.v.",
"v.v.v.v.v.v.v.v.v.v.v.v.v.  M D *.h.l.k.z.c.c.c.c.c.c.c.c.c.c.c.c.c.c.c.c.c.x.1.0     v.v.v.v.v.v.v.v.v.v.v.v.v.v.v.v.v.v.v.v.v.",
"v.v.v.v.v.v.v.v.v.v.v.v.v.      5 1.2.9.d.x.x.c.c.c.c.c.c.c.c.c.c.c.c.c.c.x.0.5     v.v.v.v.v.v.v.v.v.v.v.v.v.v.v.v.v.v.v.v.v.v.",
"v.v.v.v.v.v.v.v.v.v.v.v.v.v.v.    $ O D r.r.t.l.c.c.c.c.c.c.c.c.c.c.c.c.c.w.=       v.v.v.v.v.v.v.v.v.v.v.v.v.v.v.v.v.v.v.v.v.v.",
"v.v.v.v.v.v.v.v.v.v.v.v.v.v.v.v.v.    - 9 x 9.d.f.f.f.a.j.c.c.c.c.c.c.c.c.8.o v.v.v.v.v.v.v.v.v.v.v.v.v.v.v.v.v.v.v.v.v.v.v.v.v.",
"v.v.v.v.v.v.v.v.v.v.v.v.v.v.v.v.v.v.v.      n C C C C 5.f.j.j.j.j.l.c.>.G B     v.v.v.v.v.v.v.v.v.v.v.v.v.v.v.v.v.v.v.v.v.v.v.v.",
"v.v.v.v.v.v.v.v.v.v.v.v.v.v.v.v.v.v.v.v.              A <.;.;.;.;.<.6.5 # < < .   v.v.v.v.v.v.v.v.v.v.v.v.v.v.v.v.v.v.v.v.v.v.v.",
"v.v.v.v.v.v.v.v.v.v.v.v.v.v.v.v.v.v.v.v.v.v.v.v.v.  X $ #   O   o   o   f / ^ >     v.v.v.v.v.v.v.v.v.v.v.v.v.v.v.v.v.v.v.v.v.v.",
"v.v.v.v.v.v.v.v.v.v.v.v.v.v.v.v.v.v.v.v.v.v.v.v.v.% Q ~ f   v.v.v.v.v.  # u ` ~ 3     v.      v.v.v.v.v.v.v.v.v.v.v.v.v.v.v.v.v.",
"v.v.v.v.v.v.v.v.v.v.v.v.v.v.v.v.v.v.v.v.v.v.v.v.v.& { O.l   v.v.v.v.v.v.  # f { ` g     k f   v.v.v.v.v.v.v.v.v.v.v.v.v.v.v.v.v.",
"v.v.v.v.v.v.v.v.v.v.v.v.v.v.v.v.v.v.v.v.v.v.v.v.v.: X.$.E   v.v.v.v.v.v.v.  X } $.{ i i E h   v.v.v.v.v.v.v.v.v.v.v.v.v.v.v.v.v.",
"v.v.v.v.v.v.v.v.v.v.v.v.v.v.v.v.v.v.v.v.v.v.v.v.v.: X.#.E   v.v.v.v.v.v.v.v.# ` +.#.+.X.i     v.v.v.v.v.v.v.v.v.v.v.v.v.v.v.v.v.",
"v.v.v.v.v.v.v.v.v.v.v.v.v.v.v.v.v.v.v.v.v.v.v.v.v.:  .$.W   v.v.v.v.v.v.v.v.  & ~ #.X.3 .   v.v.v.v.v.v.v.v.v.v.v.v.v.v.v.v.v.v.",
"v.v.v.v.v.v.v.v.v.v.v.v.v.v.v.v.v.v.v.v.v.v.v.v.  & X.$.E       v.v.v.v.v.v.v.  E } p .   v.v.v.v.v.v.v.v.v.v.v.v.v.v.v.v.v.v.v.",
"v.v.v.v.v.v.v.v.v.v.v.v.v.v.v.v.v.v.v.v.v.v.v.u g k O.#.` g p %   v.v.v.v.v.v.p R j     v.v.v.v.v.v.v.v.v.v.v.v.v.v.v.v.v.v.v.v.",
"v.v.v.v.v.v.v.v.v.v.v.v.v.v.v.v.v.v.v.v.v.v.  R  . . . . .| } 2     v.v.v.v.# / f     v.v.v.v.v.v.v.v.v.v.v.v.v.v.v.v.v.v.v.v.v.",
"v.v.v.v.v.v.v.v.v.v.v.v.v.v.v.v.v.v.v.v.v.v.  # & & & & & & & .     v.v.v.v.  % .   v.v.v.v.v.v.v.v.v.v.v.v.v.v.v.v.v.v.v.v.v.v.",
"v.v.v.v.v.v.v.v.v.v.v.v.v.v.v.v.v.v.v.v.v.v.v.v.v.v.v.v.v.v.v.v.v.v.v.v.v.v.v.v.v.v.v.v.v.v.v.v.v.v.v.v.v.v.v.v.v.v.v.v.v.v.v.v.",
"v.v.v.v.v.v.v.v.v.v.v.v.v.v.v.v.v.v.v.v.v.v.v.v.v.v.v.v.v.v.v.v.v.v.v.v.v.v.v.v.v.v.v.v.v.v.v.v.v.v.v.v.v.v.v.v.v.v.v.v.v.v.v.v.",
"v.v.v.v.v.v.v.v.v.v.v.v.v.v.v.v.v.v.v.v.v.v.v.v.v.v.v.v.v.v.v.v.v.v.v.v.v.v.v.v.v.v.v.v.v.v.v.v.v.v.v.v.v.v.v.v.v.v.v.v.v.v.v.v.",
"v.v.v.v.v.v.v.v.v.v.v.v.v.v.v.v.v.v.v.v.v.v.v.v.v.v.v.v.v.v.v.v.v.v.v.v.v.v.v.v.v.v.v.v.v.v.v.v.v.v.v.v.v.v.v.v.v.v.v.v.v.v.v.v.",
"v.v.v.v.v.v.v.v.v.v.v.v.v.v.v.v.v.v.v.v.v.v.v.v.v.v.v.v.v.v.v.v.v.v.v.v.v.v.v.v.v.v.v.v.v.v.v.v.v.v.v.v.v.v.v.v.v.v.v.v.v.v.v.v.",
"v.v.v.v.v.v.v.v.v.v.v.v.v.v.v.v.v.v.v.v.v.v.v.v.v.v.v.v.v.v.v.v.v.v.v.v.v.v.v.v.v.v.v.v.v.v.v.v.v.v.v.v.v.v.v.v.v.v.v.v.v.v.v.v.",
"v.v.v.v.v.v.v.v.v.v.v.v.v.v.v.v.v.v.v.v.v.v.v.v.v.v.v.v.v.v.v.v.v.v.v.v.v.v.v.v.v.v.v.v.v.v.v.v.v.v.v.v.v.v.v.v.v.v.v.v.v.v.v.v."
};
