/* XPM */
static char *result[] = {
/* columns rows colors chars-per-pixel */
"64 64 144 2 ",
"   c #010100",
".  c #0B0501",
"X  c #0D0A05",
"o  c #05090B",
"O  c #100601",
"+  c #120D06",
"@  c #1E0B02",
"#  c #130F08",
"$  c #161109",
"%  c #1A150B",
"&  c #1F180C",
"*  c #091112",
"=  c #200B01",
"-  c #280F03",
";  c #291104",
":  c #20150A",
">  c #231B0E",
",  c #291E0E",
"<  c #331505",
"1  c #3E1B07",
"2  c #271E10",
"3  c #281F10",
"4  c #2C2211",
"5  c #312614",
"6  c #342915",
"7  c #3B2D17",
"8  c #3B2E18",
"9  c #3F3119",
"0  c #192729",
"q  c #1E3235",
"w  c #223638",
"e  c #243B3D",
"r  c #401B07",
"t  c #4A1D00",
"y  c #451D08",
"u  c #4D2109",
"i  c #592300",
"p  c #552409",
"a  c #5C270A",
"s  c #452A13",
"d  c #42331B",
"f  c #4C3B1F",
"g  c #632702",
"h  c #632A0B",
"j  c #742E02",
"k  c #75310D",
"l  c #79340D",
"z  c #4F3D20",
"x  c #523F21",
"c  c #534021",
"v  c #584423",
"b  c #614B27",
"n  c #664F29",
"m  c #6D552C",
"M  c #72572D",
"N  c #745A2F",
"B  c #785B2F",
"V  c #7B5E31",
"C  c #7E6032",
"Z  c #253D40",
"A  c #284245",
"S  c #2B474A",
"D  c #2E4A4C",
"F  c #345255",
"G  c #35565A",
"H  c #3E6467",
"J  c #746540",
"K  c #426A6E",
"L  c #436D70",
"P  c #82370E",
"I  c #8A3A0F",
"U  c #843405",
"Y  c #973C05",
"T  c #913C0F",
"R  c #803C12",
"E  c #864216",
"W  c #9C4211",
"Q  c #B64700",
"!  c #A44612",
"~  c #A94712",
"^  c #B34C14",
"/  c #B84F15",
"(  c #BF5115",
")  c #826334",
"_  c #866836",
"`  c #896A37",
"'  c #8B6C38",
"]  c #95733B",
"[  c #98763D",
"{  c #9B793E",
"}  c #A07A3F",
"|  c #C25215",
" . c #C95516",
".. c #D45A17",
"X. c #DD5D18",
"o. c #F05F08",
"O. c #E15F19",
"+. c #F26009",
"@. c #E46119",
"#. c #EE641A",
"$. c #F4671B",
"%. c #F6681B",
"&. c #FA6A1B",
"*. c #9F7B40",
"=. c #A17D41",
"-. c #A58042",
";. c #AB8444",
":. c #B28A47",
">. c #B48C48",
",. c #B98F4A",
"<. c #BD924C",
"1. c #C2954D",
"2. c #C8974F",
"3. c #C5994F",
"4. c #C69950",
"5. c #CA9C51",
"6. c #D19E52",
"7. c #D5A354",
"8. c #DBA757",
"9. c #D9A857",
"0. c #DEAB59",
"q. c #E2AE5A",
"w. c #E5B15C",
"e. c #EAB55E",
"r. c #EFB960",
"t. c #F4BD62",
"y. c #F7C063",
"u. c #FAC264",
"i. c #55898E",
"p. c #538489",
"a. c #578B90",
"s. c #5B9296",
"d. c #5D959A",
"f. c #5F989D",
"g. c #60999E",
"h. c #68A6AB",
"j. c #6DAFB5",
"k. c #6FB1B7",
"l. c #71B6BC",
"z. c #73B9BF",
"x. c #75BBC1",
"c. c #77C0C6",
"v. c #78C0C6",
"b. c None",
/* pixels */
"b.b.b.b.b.b.b.b.b.b.b.b.b.b.b.b.b.b.b.b.b.b.b.b.b.b.b.b.b.b.b.b.b.b.b.b.b.b.b.b.b.b.b.b.b.b.b.b.b.b.b.b.b.b.b.b.b.b.b.b.b.b.b.b.",
"b.b.b.b.b.b.b.b.b.b.b.b.b.b.b.b.b.b.b.b.b.b.b.b.b.b.b.b.b.b.b.b.b.b.b.b.b.b.b.b.b.b.b.b.b.b.b.b.b.b.b.b.b.b.b.b.b.b.b.b.b.b.b.b.",
"b.b.b.b.b.b.b.b.b.b.b.b.b.b.b.b.b.b.b.b.b.b.b.b.b.b.b.b.b.b.b.b.b.b.b.b.b.b.b.b.b.b.b.b.b.b.b.b.b.b.b.b.b.b.b.b.b.b.b.b.b.b.b.b.",
"b.b.b.b.b.b.b.b.b.b.b.b.b.b.b.b.b.b.b.b.b.b.b.b.b.b.b.b.b.b.b.b.b.b.b.b.b.b.b.b.b.b.b.b.b.b.b.b.b.b.b.b.b.b.b.b.b.b.b.b.b.b.b.b.",
"b.b.b.b.b.b.b.b.b.b.b.b.b.b.b.b.b.b.b.b.b.b.b.b.b.b.b.b.b.  b.b.b.b.b.      b.b.b.b.b.b.b.b.b.b.b.b.b.b.b.b.b.b.b.b.b.b.b.b.b.b.",
"b.b.b.b.b.b.b.b.b.b.b.b.b.b.b.b.b.b.b.b.b.b.b.b.b.b.b.b.d m 4 b.b.b.4 m 3   b.b.b.b.b.b.b.b.b.b.b.b.b.b.b.b.b.b.b.b.b.b.b.b.b.b.",
"b.b.b.b.b.b.b.b.b.b.b.b.b.b.b.b.b.b.b.b.b.b.b.b.b.b.b.  v t.7   b.+ f q.v   b.b.b.b.b.b.b.b.b.b.b.b.b.b.b.b.b.b.b.b.b.b.b.b.b.b.",
"b.b.b.b.b.b.b.b.b.b.b.b.b.b.b.b.b.b.b.b.b.b.b.b.b.b.b.  n t.7   . *.-.6 b.b.b.b.b.b.b.b.b.b.b.b.b.b.b.b.b.b.b.b.b.b.b.b.b.b.b.b.",
"b.b.b.b.b.b.b.b.b.b.b.b.b.b.b.b.b.b.b.b.b.b.b.b.b.b.b.b.z ] M d   M N     b.b.b.b.b.b.b.b.b.b.b.b.b.b.b.b.b.b.b.b.b.b.b.b.b.b.b.",
"b.b.b.b.b.b.b.b.b.b.b.b.b.b.b.b.b.b.b.b.b.b.b.b.b.b.b.b.b.# 4.:.X X o X X X b.b.b.b.b.b.b.b.b.b.b.b.b.b.b.b.b.b.b.b.b.b.b.b.b.b.",
"b.b.b.b.b.b.b.b.b.b.b.b.b.b.b.b.b.b.b.b.b.b.b.b.b.b.b.  c <.r.w.<.1.<.<.1.} X     b.b.b.b.b.b.b.b.b.b.b.b.b.b.b.b.b.b.b.b.b.b.b.",
"b.b.b.b.b.b.b.b.b.b.b.b.b.b.b.b.b.b.b.b.b.b.b.b.b.b.b.d ] u.u.u.u.u.u.u.u.9.v :   b.b.b.b.b.b.b.b.b.b.b.b.b.b.b.b.b.b.b.b.b.b.b.",
"b.b.b.b.b.b.b.b.b.b.b.b.b.b.b.b.b.b.b.b.b.b.b.b.    $ 5.u.u.u.u.u.u.u.u.u.u.u.n     b.b.b.b.b.b.b.b.b.b.b.b.b.b.b.b.b.b.b.b.b.b.",
"b.b.b.b.b.b.b.b.b.b.b.b.b.b.b.b.b.b.b.b.b.b.b.    z <.r.u.u.u.u.u.u.u.u.u.u.u.7.] X     b.b.b.b.b.b.b.b.b.b.b.b.b.b.b.b.b.b.b.b.",
"b.b.b.b.b.b.b.b.b.b.b.b.b.b.b.b.b.b.b.b.b.b.  o 6 [ u.u.u.t.4.5.u.5.5.t.t.u.u.u.0.c &   b.b.b.b.b.b.b.b.b.b.b.b.b.b.b.b.b.b.b.b.",
"b.b.b.b.b.b.b.b.b.b.b.b.b.b.b.b.b.b.b.b.b.    % 6.t.u.u.u.r.9 x r.f d t.u.u.u.t.u.t.M   b.b.b.b.b.b.b.b.b.b.b.b.b.b.b.b.b.b.b.b.",
"b.b.b.b.b.b.b.b.b.b.b.b.b.b.b.b.b.b.b.b.b.  x :.r.u.u.u.u.t.,.1.u.<.<.y.u.u.u.y.u.u.N   b.b.b.b.b.b.b.b.b.b.b.b.b.b.b.b.b.b.b.b.",
"b.b.b.b.b.b.b.b.b.b.b.b.b.b.b.b.b.b.b.b.b.  C u.u.u.u.u.u.t.9.5.5.5.9.y.y.y.u.u.u.u.N   b.b.b.b.b.b.b.b.b.b.b.b.b.b.b.b.b.b.b.b.",
"b.b.b.b.b.b.b.b.b.b.b.b.b.b.b.b.b.b.b.      C u.u.u.u.u.u.t.z o X X z t.u.u.y.u.u.u.N       b.b.b.b.b.b.b.b.b.b.b.b.b.b.b.b.b.b.",
"b.b.b.b.b.b.b.b.b.b.b.b.b.b.b.b.b.b.b.  $ _ 5.u.u.u.r.) n n R T I T E n b _ t.u.u.u.1.) #   b.b.b.b.b.b.b.b.b.b.b.b.b.b.b.b.b.b.",
"b.b.b.b.b.b.b.b.b.b.b.b.b.b.b.b.b.b.b.  2 w.u.y.9.7.1.& . ; ! @.&.@.! - @ s 3.7.0.t.u.w.>   b.b.b.b.b.b.b.b.b.b.b.b.b.b.b.b.b.b.",
"b.b.b.b.b.b.b.b.b.b.b.b.b.b.b.b.b.b.b.  > w.u.w.6 # #   p X.1 a #.u y X.@./ & + 7 w.u.0.>   b.b.b.b.b.b.b.b.b.b.b.b.b.b.b.b.b.b.",
"b.b.b.b.b.b.b.b.b.b.b.b.b.b.b.b.b.b.b.  > w.<.M R P P R ^ $.W ! $.! W &.&.@.I < 2 w.u.w.>   b.b.b.b.b.b.b.b.b.b.b.b.b.b.b.b.b.b.",
"b.b.b.b.b.b.b.b.b.b.b.b.b.b.b.b.b.b.b.  3 w.V O | O.O.X.X.X.X.X.X.X.X.X.X.X.O.p 2 w.u.0.>   b.b.b.b.b.b.b.b.b.b.b.b.b.b.b.b.b.b.",
"b.b.b.b.b.b.b.b.b.b.b.b.b.b.b.b.b.b.b.  > w.C   @ @ @ @ @ @ @ @ @ @ @ @ @ @ @ o > w.u.w.>   b.b.b.b.b.b.b.b.b.b.b.b.b.b.b.b.b.b.",
"b.b.b.b.b.b.b.b.b.b.b.b.b.b.b.b.b.b.b.  2 w.,.m m m m m M N M m m m M N M m m m N ` ' C $   b.b.b.b.b.b.b.b.b.b.b.b.b.b.b.b.b.b.",
"b.b.b.b.b.b.b.b.b.b.b.b.b.b.b.b.b.b.b.  2 7.e.e.e.t.u.u.u.u.u.u.u.u.u.u.r.e.e.e.3.#         b.b.b.b.b.b.b.b.b.b.b.b.b.b.b.b.b.b.",
"b.b.b.b.b.b.b.b.b.b.b.b.b.b.b.b.b.b.b.b.b.4 4 4 4 ' u.u.u.u.u.u.u.u.u.u.B , 3 3 :       b.b.b.b.b.b.b.b.b.b.b.b.b.b.b.b.b.b.b.b.",
"b.b.b.b.b.b.b.b.b.b.b.b.b.b.b.b.b.b.b.b.b.        d [ [ [ [ [ [ [ [ [ [ 6 o A D S D 0   b.b.b.b.b.b.b.b.b.b.b.b.b.b.b.b.b.b.b.b.",
"b.b.b.b.b.b.b.b.b.b.b.b.b.b.b.b.b.b.  o o o o o o o o o o o o o o o o o o 0 k.z.z.l.F       b.b.b.b.b.b.b.b.b.b.b.b.b.b.b.b.b.b.",
"b.b.b.b.b.b.b.b.b.b.b.b.b.b.b.b.b.    G d.d.s.s.s.s.s.d.s.s.s.s.s.s.s.s.s.f.z.x.h.w *         b.b.b.b.b.b.b.b.b.b.b.b.b.b.b.b.b.",
"b.b.b.b.b.b.b.b.b.b.b.b.b.b.b.b.d 9   L x.x.x.x.x.x.x.x.x.x.x.x.x.x.x.x.c.x.x.f.K o > z z 4   b.b.b.b.b.b.b.b.b.b.b.b.b.b.b.b.b.",
"b.b.b.b.b.b.b.b.b.b.b.b.b.b.b.  =.5.X L x.x.z.x.z.x.z.x.z.x.x.x.x.z.z.z.l.l.z.F .   ) u.u.'       b.b.b.b.b.b.b.b.b.b.b.b.b.b.b.",
"b.b.b.b.b.b.b.b.b.b.b.b.b.b.    } 5.+ L x.z.x.z.x.z.x.z.x.x.x.x.x.c.f.e q q q C ,.,.9.u.u.9.*.&     b.b.b.b.b.b.b.b.b.b.b.b.b.b.",
"b.b.b.b.b.b.b.b.b.b.b.b.b.  # 9 <.5.X L c.z.z.x.z.x.x.x.z.z.f.i.i.i.H   4 9 8 ;.u.u.u.u.u.u.r.2     b.b.b.b.b.b.b.b.b.b.b.b.b.b.",
"b.b.b.b.b.b.b.b.b.b.b.b.    d e.u.5.X L x.x.x.x.z.z.l.z.z.k.q   o o .   *.y.r.y.u.t.u.u.u.u.r.2     b.b.b.b.b.b.b.b.b.b.b.b.b.b.",
"b.b.b.b.b.b.b.b.b.b.b.b.  N <.u.u.3.+ L c.x.x.x.x.p.Z Z e e o     N ;.-.9.u.u.y.u.u.u.u.t.t.r.=.x   b.b.b.b.b.b.b.b.b.b.b.b.b.b.",
"b.b.b.b.b.b.b.b.b.b.b.b.. >.u.u.u.5.+ G f.d.f.d.f.F   > 5 4 4 6 6 4.u.u.y.y.u.u.u.u.t.u.t.t.t.q.)   b.b.b.b.b.b.b.b.b.b.b.b.b.b.",
"b.b.b.b.b.b.b.b.b.b.b.b.. :.u.u.u.3.+ o o o o o *   + 1.r.e.w.e.r.t.u.y.u.u.u.y.u.t.u.t.u.u.t.8.V   b.b.b.b.b.b.b.b.b.b.b.b.b.b.",
"b.b.b.b.b.b.b.b.b.b.b.  o >.u.u.{ z   z ] ] ] ' ] ' [ e.u.u.u.u.y.u.u.y.u.y.u.u.u.u.u.u.u.u.t.8.)   b.b.b.b.b.b.b.b.b.b.b.b.b.b.",
"b.b.b.b.b.b.b.b.b.b.    . :.u.u.N > 2 -.u.u.u.u.u.u.u.u.u.u.u.u.u.u.u.u.u.u.t.u.u.u.u.u.t.t.t.q.C   b.b.b.b.b.b.b.b.b.b.b.b.b.b.",
"b.b.b.b.b.b.b.b.b.b.      :.u.u.e.w.w.e.u.u.u.u.u.u.u.u.u.u.u.u.u.y.u.y.u.u.u.u.t.u.t.u.t.e.6.8.)   b.b.b.b.b.b.b.b.b.b.b.b.b.b.",
"b.b.b.b.b.b.b.b.b.b.b.  . >.u.u.u.u.u.y.u.u.u.u.u.t.u.t.u.u.u.u.u.y.u.y.t.u.u.u.u.u.u.t.w.8.2.N 7   b.b.b.b.b.b.b.b.b.b.b.b.b.b.",
"b.b.b.b.b.b.b.b.b.b.b.b.  *.w.u.u.u.u.u.u.u.u.u.u.u.u.u.u.u.u.t.u.u.u.u.u.u.u.t.t.t.t.t.6.6.1.>     b.b.b.b.b.b.b.b.b.b.b.b.b.b.",
"b.b.b.b.b.b.b.b.b.b.b.b.  + v y.u.u.u.u.u.u.u.u.u.u.u.u.u.u.u.t.u.t.t.t.u.u.t.u.t.8.6.6.6.q.1.>   b.b.b.b.b.b.b.b.b.b.b.b.b.b.b.",
"b.b.b.b.b.b.b.b.b.b.b.b.    > _ ' -.r.u.u.u.u.u.u.u.u.u.t.u.u.u.u.u.t.r.w.r.w.e.w.6.6.6.) M m 2 b.b.b.b.b.b.b.b.b.b.b.b.b.b.b.b.",
"b.b.b.b.b.b.b.b.b.b.b.b.b.        4 9.w.e.u.u.y.u.u.t.t.t.t.t.t.t.t.r.6.6.6.6.2.1.1.1.=.@     b.b.b.b.b.b.b.b.b.b.b.b.b.b.b.b.b.",
"b.b.b.b.b.b.b.b.b.b.b.b.b.b.b.    X 4 4 f e.u.u.u.u.u.q.8.q.8.8.9.8.9.6.6.6.6.M > , > : .     b.b.b.b.b.b.b.b.b.b.b.b.b.b.b.b.b.",
"b.b.b.b.b.b.b.b.b.b.b.b.b.b.b.          $ ` [ [ [ [ [ ) V ) V ) ) V ) V ) V ) 5               b.b.b.b.b.b.b.b.b.b.b.b.b.b.b.b.b.",
"b.b.b.b.b.b.b.b.b.b.b.b.b.b.b.b.b.b.          . .                       . . . .     b.b.b.b.b.b.b.b.b.b.b.b.b.b.b.b.b.b.b.b.b.b.",
"b.b.b.b.b.b.b.b.b.b.b.b.b.b.b.b.b.b.b.b.b.  i Q Q g   b.b.b.b.b.b.b.b.  j Q Q t   b.b.b.b.b.b.b.b.b.b.b.b.b.b.b.b.b.b.b.b.b.b.b.",
"b.b.b.b.b.b.b.b.b.b.b.b.b.b.b.b.b.b.b.b.b.  j +.+.U   b.b.b.b.b.b.b.b.  Y o.o.g   b.b.b.b.b.b.b.b.b.b.b.b.b.b.b.b.b.b.b.b.b.b.b.",
"b.b.b.b.b.b.b.b.b.b.b.b.b.b.b.b.b.b.b.b.b.  l &.&.I   b.b.b.b.b.b.b.b.  W &.%.h   b.b.b.b.b.b.b.b.b.b.b.b.b.b.b.b.b.b.b.b.b.b.b.",
"b.b.b.b.b.b.b.b.b.b.b.b.b.b.b.b.b.b.b.b.b.  l &.&.I   b.b.b.b.b.b.b.    W &.&.h     b.b.b.b.b.b.b.b.b.b.b.b.b.b.b.b.b.b.b.b.b.b.",
"b.b.b.b.b.b.b.b.b.b.b.b.b.b.b.b.b.b.b.b.b.1 W &.&.I   b.b.b.b.b.b.  . r ^ &.%.I < .   b.b.b.b.b.b.b.b.b.b.b.b.b.b.b.b.b.b.b.b.b.",
"b.b.b.b.b.b.b.b.b.b.b.b.b.b.b.b.b.b.    - X.$.$.&.I       b.b.b.    1 #.$.$.%.$. .+     b.b.b.b.b.b.b.b.b.b.b.b.b.b.b.b.b.b.b.b.",
"b.b.b.b.b.b.b.b.b.b.b.b.b.b.b.b.b.    a / $.&.&.&...! ~ k   b.b.  k | &.&.&.&.&.#.^ u   b.b.b.b.b.b.b.b.b.b.b.b.b.b.b.b.b.b.b.b.",
"b.b.b.b.b.b.b.b.b.b.b.b.b.b.b.b.      k | | | | | | |  .k   b.b.  I  .| ( | ( ( |  .a   b.b.b.b.b.b.b.b.b.b.b.b.b.b.b.b.b.b.b.b.",
"b.b.b.b.b.b.b.b.b.b.b.b.b.b.b.b.      . . . . . . . . . .   b.b.  . . . . . . . . O     b.b.b.b.b.b.b.b.b.b.b.b.b.b.b.b.b.b.b.b.",
"b.b.b.b.b.b.b.b.b.b.b.b.b.b.b.b.b.b.b.b.b.b.b.b.b.b.b.b.b.b.b.b.b.b.b.b.b.b.b.b.b.b.b.b.b.b.b.b.b.b.b.b.b.b.b.b.b.b.b.b.b.b.b.b.",
"b.b.b.b.b.b.b.b.b.b.b.b.b.b.b.b.b.b.b.b.b.b.b.b.b.b.b.b.b.b.b.b.b.b.b.b.b.b.b.b.b.b.b.b.b.b.b.b.b.b.b.b.b.b.b.b.b.b.b.b.b.b.b.b.",
"b.b.b.b.b.b.b.b.b.b.b.b.b.b.b.b.b.b.b.b.b.b.b.b.b.b.b.b.b.b.b.b.b.b.b.b.b.b.b.b.b.b.b.b.b.b.b.b.b.b.b.b.b.b.b.b.b.b.b.b.b.b.b.b.",
"b.b.b.b.b.b.b.b.b.b.b.b.b.b.b.b.b.b.b.b.b.b.b.b.b.b.b.b.b.b.b.b.b.b.b.b.b.b.b.b.b.b.b.b.b.b.b.b.b.b.b.b.b.b.b.b.b.b.b.b.b.b.b.b.",
"b.b.b.b.b.b.b.b.b.b.b.b.b.b.b.b.b.b.b.b.b.b.b.b.b.b.b.b.b.b.b.b.b.b.b.b.b.b.b.b.b.b.b.b.b.b.b.b.b.b.b.b.b.b.b.b.b.b.b.b.b.b.b.b."
};
