/* XPM */
static char *result[] = {
/* columns rows colors chars-per-pixel */
"64 64 155 2 ",
"   c #010101",
".  c #080601",
"X  c #0C0901",
"o  c #0B0B0B",
"O  c #160604",
"+  c #1B0604",
"@  c #100C01",
"#  c #1B0B09",
"$  c #161101",
"%  c #1B1402",
"&  c #141414",
"*  c #181715",
"=  c #131519",
"-  c #1C1C1C",
";  c #220806",
":  c #2E0A08",
">  c #3E0E0B",
",  c #201700",
"<  c #251B02",
"1  c #281E02",
"2  c #20110F",
"3  c #241210",
"4  c #201D1C",
"5  c #2D2102",
"6  c #322503",
"7  c #372903",
"8  c #3C2C03",
"9  c #232222",
"0  c #292524",
"q  c #292827",
"w  c #2B2929",
"e  c #333333",
"r  c #3A3A3B",
"t  c #58120F",
"y  c #5B1411",
"u  c #61120E",
"i  c #6B1611",
"p  c #7C1511",
"a  c #751C17",
"s  c #7D1C17",
"d  c #402F04",
"f  c #453303",
"g  c #4A3601",
"h  c #4C3905",
"j  c #523D04",
"k  c #564004",
"l  c #5D4505",
"z  c #634A05",
"x  c #6A4F05",
"c  c #6D5104",
"v  c #6F540A",
"b  c #7A5B06",
"n  c #3F4040",
"m  c #414141",
"M  c #474848",
"N  c #4D4C4C",
"B  c #535251",
"V  c #5A5755",
"C  c #5B5856",
"Z  c #57585B",
"A  c #59595A",
"S  c #6E654B",
"D  c #65615F",
"F  c #796F54",
"G  c #636364",
"H  c #686765",
"J  c #6B6C6B",
"K  c #6E6F71",
"L  c #747474",
"P  c gray49",
"I  c #811611",
"U  c #841A15",
"Y  c #8D1C17",
"T  c #881E19",
"R  c #921F19",
"E  c #A5211B",
"W  c #AB241D",
"Q  c #B9241D",
"!  c #BA2A22",
"~  c #C4251E",
"^  c #C32720",
"/  c #C82720",
"(  c #C52922",
")  c #C92C24",
"_  c #815E02",
"`  c #866407",
"'  c #8A6707",
"]  c #8D6907",
"[  c #8A6608",
"{  c #906B07",
"}  c #906B09",
"|  c #977008",
" . c #9A7209",
".. c #A67B09",
"X. c #A97D09",
"o. c #827C6D",
"O. c #827E7A",
"+. c #AF8209",
"@. c #B0820A",
"#. c #BC8B0A",
"$. c #C6930A",
"%. c #C9950A",
"&. c #CE990A",
"*. c #D59E0B",
"=. c #D9A10B",
"-. c #E0A60B",
";. c #E4AA0B",
":. c #EAAE0C",
">. c #EEB10C",
",. c #F3B40C",
"<. c #F7B80C",
"1. c #F9B90C",
"2. c #868686",
"3. c #8B8783",
"4. c #8D8884",
"5. c #8E8E8E",
"6. c #99948F",
"7. c #929292",
"8. c #9C9792",
"9. c gray60",
"0. c #A8A29E",
"q. c #ACA7A2",
"w. c #ADADAC",
"e. c #A4A4A4",
"r. c #B3ADA8",
"t. c #B4B4B4",
"y. c #B6B8B7",
"u. c #BBBCBC",
"i. c #C0C0BF",
"p. c #CAC3BE",
"a. c #C3C3C4",
"s. c #CDC7C1",
"d. c #CFC8C3",
"f. c #CBCBCB",
"g. c #D1CBC5",
"h. c #D5CFC9",
"j. c #DAD3CE",
"k. c #D4D4D4",
"l. c #DBD6D1",
"z. c #DFD9D5",
"x. c #D6D7D8",
"c. c #DBDBDB",
"v. c #E3DED9",
"b. c #E6E2DE",
"n. c #DFDFE0",
"m. c #E3E3E3",
"M. c #EAE6E3",
"N. c #EAEAE9",
"B. c #F0EDEB",
"V. c #F3F1EF",
"C. c #F5F4F3",
"Z. c #F8F7F6",
"A. c #F9F8F7",
"S. c #FFFFFF",
"D. c None",
/* pixels */
"D.D.D.D.D.D.D.D.D.D.D.D.D.D.D.D.D.D.D.D.D.D.D.D.D.D.D.D.D.D.D.D.D.D.D.D.D.D.D.D.D.D.D.D.D.D.D.D.D.D.D.D.D.D.D.D.D.D.D.D.D.D.D.D.",
"D.D.D.D.D.D.D.D.D.D.D.D.D.D.D.D.D.D.D.D.D.D.D.D.D.D.D.D.D.D.D.D.D.D.D.D.D.D.D.D.D.D.D.D.D.D.D.D.D.D.D.D.D.D.D.D.D.D.D.D.D.D.D.D.",
"D.D.D.D.D.D.D.D.D.D.D.D.D.D.D.D.D.D.D.D.D.D.D.D.D.D.D.D.D.D.D.D.D.D.D.D.D.D.D.D.D.D.D.D.D.D.D.D.D.D.D.D.D.D.D.D.D.D.D.D.D.D.D.D.",
"D.D.D.D.D.D.D.D.D.D.D.D.D.D.D.D.D.D.D.D.D.D.D.D.D.D.D.D.D.D.D.D.D.D.D.D.D.D.D.D.D.D.D.D.D.D.D.D.D.D.D.D.D.D.D.D.D.D.D.D.D.D.D.D.",
"D.D.D.D.D.D.D.D.D.D.D.D.D.D.D.D.D.D.D.D.D.D.D.D.D.D.D.D.D.D.D.D.D.D.D.D.D.D.D.D.D.D.D.D.D.D.D.D.D.D.D.D.D.D.D.D.D.D.D.D.D.D.D.D.",
"D.D.D.D.D.D.D.D.D.D.D.D.D.D.D.D.D.D.D.D.D.D.D.D.D.D.D.D.D.D.D.D.D.D.D.D.D.D.D.D.D.D.D.D.D.D.D.D.D.D.D.D.D.D.D.D.D.D.D.D.D.D.D.D.",
"D.D.D.D.D.D.D.D.D.D.D.D.D.D.D.D.D.D.D.D.D.D.D.D.D.D.D.D.D.D.- D.D.* D.D.D.D.D.D.D.D.D.D.D.D.D.D.D.D.D.D.D.D.D.D.D.D.D.D.D.D.D.D.",
"D.D.D.D.D.D.D.D.D.D.D.D.D.D.D.D.D.D.D.D.D.D.D.D.D.D.D.D.D.o w.A B t.& D.D.D.D.D.D.D.D.D.D.D.D.D.D.D.D.D.D.D.D.D.D.D.D.D.D.D.D.D.",
"D.D.D.D.D.D.D.D.D.D.D.D.D.D.D.D.D.D.D.D.D.D.D.D.D.D.D.D.D.D.N 9 G k.o D.D.D.D.D.D.D.D.D.D.D.D.D.D.D.D.D.D.D.D.D.D.D.D.D.D.D.D.D.",
"D.D.D.D.D.D.D.D.D.D.D.D.D.D.D.D.D.D.D.D.D.D.D.D.D.D.D.D.D.D.D.  e L & D.D.D.D.D.D.D.D.D.D.D.D.D.D.D.D.D.D.D.D.D.D.D.D.D.D.D.D.D.",
"D.D.D.D.D.D.D.D.D.D.D.D.D.D.D.D.D.D.D.D.D.D.D.D.D.D.D.D.D.D.D.      D.D.D.D.D.D.D.D.D.D.D.D.D.D.D.D.D.D.D.D.D.D.D.D.D.D.D.D.D.D.",
"D.D.D.D.D.D.D.D.D.D.D.D.D.D.D.D.D.D.D.D.D.D.D.D.D.D.  o - 9 9 9 - 9 - . D.D.D.D.D.D.D.D.D.D.D.D.D.D.D.D.D.D.D.D.D.D.D.D.D.D.D.D.",
"D.D.D.D.D.D.D.D.D.D.D.D.D.D.D.D.D.D.D.D.D.D.D.D.. .   N c.m.m.c.m.n.k.w .     D.D.D.D.D.D.D.D.D.D.D.D.D.D.D.D.D.D.D.D.D.D.D.D.D.",
"D.D.D.D.D.D.D.D.D.D.D.D.D.D.D.D.D.D.D.D.D.D.D.- e.y.t.f.S.S.S.S.S.S.S.a.y.J     D.D.D.D.D.D.D.D.D.D.D.D.D.D.D.D.D.D.D.D.D.D.D.D.",
"D.D.D.D.D.D.D.D.D.D.D.D.D.D.D.D.D.D.D.D.D.D.e 7.C.S.S.S.S.S.S.S.S.S.S.S.S.k.G .   D.D.D.D.D.D.D.D.D.D.D.D.D.D.D.D.D.D.D.D.D.D.D.",
"D.D.D.D.D.D.D.D.D.D.D.D.D.D.D.D.D.D.D.D.D.e P C.y.N.S.S.S.S.S.S.S.S.S.S.S.S.a..   D.D.D.D.D.D.D.D.D.D.D.D.D.D.D.D.D.D.D.D.D.D.D.",
"D.D.D.D.D.D.D.D.D.D.D.D.D.D.D.D.D.D.D.D.  L S.m.M a.N.m.S.S.S.S.S.S.S.S.S.S.f.e q D.D.D.D.D.D.D.D.D.D.D.D.D.D.D.D.D.D.D.D.D.D.D.",
"D.D.D.D.D.D.D.D.D.D.D.D.D.D.D.D.D.D.D.D.  L A.S.N.S.2.G S.S.S.S.S.S.S.S.S.S.A.N.m.N D.D.D.D.D.D.D.D.D.D.D.D.D.D.D.D.D.D.D.D.D.D.",
"D.D.D.D.D.D.D.D.D.D.D.D.D.D.D.D.D.D.      - L A.S.S.c.k.S.S.S.S.S.S.S.S.S.S.S.S.S.N   D.D.D.D.D.D.D.D.D.D.D.D.D.D.D.D.D.D.D.D.D.",
"D.D.D.D.D.D.D.D.D.D.D.D.D.D.D.    1 ` ] } f = G J x.S.S.S.S.S.S.S.S.S.S.S.S.S.S.S.N   D.D.D.D.D.D.D.D.D.D.D.D.D.D.D.D.D.D.D.D.D.",
"D.D.D.D.D.D.D.D.D.D.D.D.D.D.  6 j b ;.X.*.@.k g . K x.S.S.S.S.S.S.S.S.S.S.S.S.S.A.B     D.D.D.D.D.D.D.D.D.D.D.D.D.D.D.D.D.D.D.D.",
"D.D.D.D.D.D.D.D.D.D.D.D.D.  < ..,.,.;.h +.=.&.=.f 5 o.n.S.S.S.S.S.S.S.S.S.S.S.S.S.N     D.D.D.D.D.D.D.D.D.D.D.D.D.D.D.D.D.D.D.D.",
"D.D.D.D.D.D.D.D.D.D.D.D.D.X X.:.,.,.>.;.>.' j :.;.;.v Z A.S.S.S.S.S.S.S.S.S.S.S.A.B     D.D.D.D.D.D.D.D.D.D.D.D.D.D.D.D.D.D.D.D.",
"D.D.D.D.D.D.D.D.D.D.D.D.D.  < ..,.,.,.,.,.=.&.,.,.,.c N A.S.S.S.S.S.S.S.S.S.S.S.S.N   D.D.D.D.D.D.D.D.D.D.D.D.D.D.D.D.D.D.D.D.D.",
"D.D.D.D.D.D.D.D.D.D.D.D.D.D.  6  .,.,.<.,.<.<.,.,._ F a.S.S.S.S.S.S.S.S.S.S.S.S.S.N   D.D.D.D.D.D.D.D.D.D.D.D.D.D.D.D.D.D.D.D.D.",
"D.D.D.D.D.D.D.D.D.D.D.D.D.D.D.  7 ' ' ' ' ' ] ] ' S y.S.S.S.S.S.S.S.S.S.S.S.N.9.7.m D.D.D.D.D.D.D.D.D.D.D.D.D.D.D.D.D.D.D.D.D.D.",
"D.D.D.D.D.D.D.D.D.D.D.D.D.D.D.D.              o r f.S.S.S.S.S.S.S.S.S.S.x.a.7..   D.D.D.D.D.D.D.D.D.D.D.D.D.D.D.D.D.D.D.D.D.D.D.",
"D.D.D.D.D.D.D.D.D.D.D.D.D.D.D.D.D.D.D.D.D.    - a.m.N.N.N.N.M.N.N.N.N.m.Z & - * * = - - - = . D.D.D.D.D.D.D.D.D.D.D.D.D.D.D.D.D.",
"D.D.D.D.D.D.D.D.D.D.D.D.D.D.D.D.D.D.D.D.      . 9 w w w w q w q w w w w o Z x.x.k.x.x.x.k.k.r   .     D.D.D.D.D.D.D.D.D.D.D.D.D.",
"D.D.D.D.D.D.D.D.D.D.D.D.D.D.D.D.D.D.D.D.  > T U U I I p I I I I I I p +   J S.S.S.S.S.S.S.S.a.w.t.5.o   D.D.D.D.D.D.D.D.D.D.D.D.",
"D.D.D.D.D.D.D.D.D.D.D.D.D.D.D.D.D.D.D.D.  y ) ( ( ^ ^ ~ ~ ~ ~ / E i u O N t.S.S.S.S.S.S.S.S.S.S.S.N.P *   D.D.D.D.D.D.D.D.D.D.D.",
"D.D.D.D.D.D.D.D.D.D.D.D.D.D.D.D.D.D.D.D.: a ) ^ ( ^ ^ ~ Q Y Y Y t & M N i.S.S.S.S.S.S.S.S.S.S.S.S.S.A.G =   D.D.D.D.D.D.D.D.D.D.",
"D.D.D.D.D.D.D.D.D.D.D.D.D.D.D.D.D.D.D.  T ! W W W W W W R # - 0 9 N N.A.S.S.S.S.S.S.S.S.S.S.S.S.S.S.A.l.N   D.D.D.D.D.D.D.D.D.D.",
"D.D.D.D.D.D.D.D.D.D.D.D.D.D.D.D.D.D.D.  s a # 3 3 3 3 3 2 * w.m.m.m.S.S.S.S.S.S.S.S.S.S.S.S.S.S.S.C.l.g.N   D.D.D.D.D.D.D.D.D.D.",
"D.D.D.D.D.D.D.D.D.D.D.D.D.D.D.D.D.D.D.  ; # e y.u.u.u.u.u.i.C.S.S.S.S.S.S.S.S.S.S.S.S.S.S.S.S.S.C.z.s.C &   D.D.D.D.D.D.D.D.D.D.",
"D.D.D.D.D.D.D.D.D.D.D.D.D.D.D.D.D.D.D.D.  n w.S.S.S.S.S.S.S.S.S.S.S.S.S.S.S.S.S.S.S.S.S.S.S.S.V.v.h.s.w   D.D.D.D.D.D.D.D.D.D.D.",
"D.D.D.D.D.D.D.D.D.D.D.D.D.D.D.D.D.D.D.D.  N a.S.S.S.S.S.S.S.S.S.S.S.S.S.S.S.S.S.S.S.S.S.S.S.S.b.h.p.3.q D.D.D.D.D.D.D.D.D.D.D.D.",
"D.D.D.D.D.D.D.D.D.D.D.D.D.D.D.D.D.D.D.D.    r k.A.S.S.S.S.S.S.S.S.S.S.S.S.S.S.S.S.S.S.S.S.A.A.b.p.6.& D.D.D.D.D.D.D.D.D.D.D.D.D.",
"D.D.D.D.D.D.D.D.D.D.D.D.D.D.D.D.D.D.D.D.D.D.  e x.S.S.S.S.S.S.S.S.S.S.S.S.S.S.S.S.S.S.S.Z.l.g.g.3.& D.D.D.D.D.D.D.D.D.D.D.D.D.D.",
"D.D.D.D.D.D.D.D.D.D.D.D.D.D.D.D.D.D.D.D.D.D.D.o e a.S.S.S.S.S.S.S.S.S.S.S.S.S.S.S.S.N.z.z.g.C w -   D.D.D.D.D.D.D.D.D.D.D.D.D.D.",
"D.D.D.D.D.D.D.D.D.D.D.D.D.D.D.D.D.D.D.D.D.D.D.    M u.S.S.S.S.S.S.S.S.S.S.S.S.S.M.M.v.r.C B =   D.D.D.D.D.D.D.D.D.D.D.D.D.D.D.D.",
"D.D.D.D.D.D.D.D.D.D.D.D.D.D.D.D.D.D.D.D.D.D.D.      2.S.S.S.S.S.S.S.S.S.S.A.N.B.j.6.O.C       D.D.D.D.D.D.D.D.D.D.D.D.D.D.D.D.D.",
"D.D.D.D.D.D.D.D.D.D.D.D.D.D.D.D.D.D.D.D.D.D.D.D.D.  J n.S.S.S.S.S.S.S.Z.A.M.p.q.0.e         D.D.D.D.D.D.D.D.D.D.D.D.D.D.D.D.D.D.",
"D.D.D.D.D.D.D.D.D.D.D.D.D.D.D.D.D.D.D.D.D.D.D.D.D.  . A N.S.S.A.A.S.A.z.p.p.8.= o .     D.D.D.D.D.D.D.D.D.D.D.D.D.D.D.D.D.D.D.D.",
"D.D.D.D.D.D.D.D.D.D.D.D.D.D.D.D.D.D.D.D.D.D.D.D.D.D.D.D.N N.b.j.j.z.l.h.D 4 9 D.D.D.D.D.D.D.D.D.D.D.D.D.D.D.D.D.D.D.D.D.D.D.D.D.",
"D.D.D.D.D.D.D.D.D.D.D.D.D.D.D.D.D.D.D.D.D.D.D.D.D.D.D.D.o A N N M N M M -     D.D.D.D.D.D.D.D.D.D.D.D.D.D.D.D.D.D.D.D.D.D.D.D.D.",
"D.D.D.D.D.D.D.D.D.D.D.D.D.D.D.D.D.D.D.D.D.D.D.D.D.D.D.D.X h j <   X g j ,   D.D.D.D.D.D.D.D.D.D.D.D.D.D.D.D.D.D.D.D.D.D.D.D.D.D.",
"D.D.D.D.D.D.D.D.D.D.D.D.D.D.D.D.D.D.D.D.D.D.D.D.D.D.D.D., X. .7 @ k #. .6   D.D.D.D.D.D.D.D.D.D.D.D.D.D.D.D.D.D.D.D.D.D.D.D.D.D.",
"D.D.D.D.D.D.D.D.D.D.D.D.D.D.D.D.D.D.D.D.D.D.D.D.D.D.D.D.% } 5 . z ;.%.6     D.D.D.D.D.D.D.D.D.D.D.D.D.D.D.D.D.D.D.D.D.D.D.D.D.D.",
"D.D.D.D.D.D.D.D.D.D.D.D.D.D.D.D.D.D.D.D.D.D.D.D.D.D.D.D.  $ . b ;.%.5   D.D.D.D.D.D.D.D.D.D.D.D.D.D.D.D.D.D.D.D.D.D.D.D.D.D.D.D.",
"D.D.D.D.D.D.D.D.D.D.D.D.D.D.D.D.D.D.D.D.D.D.D.D.D.D.D.D.  . b *.1.$.X   D.D.D.D.D.D.D.D.D.D.D.D.D.D.D.D.D.D.D.D.D.D.D.D.D.D.D.D.",
"D.D.D.D.D.D.D.D.D.D.D.D.D.D.D.D.D.D.D.D.D.D.D.D.D.  D.    . #.<.$.z .   D.D.D.D.D.D.D.D.D.D.D.D.D.D.D.D.D.D.D.D.D.D.D.D.D.D.D.D.",
"D.D.D.D.D.D.D.D.D.D.D.D.D.D.D.D.D.D.D.D.D.D.D.D.    < f f h %.<.|     D.D.D.D.D.D.D.D.D.D.D.D.D.D.D.D.D.D.D.D.D.D.D.D.D.D.D.D.D.",
"D.D.D.D.D.D.D.D.D.D.D.D.D.D.D.D.D.D.D.D.D.D.D.D.    x =.>.>.>.<. .. $ % .   D.D.D.D.D.D.D.D.D.D.D.D.D.D.D.D.D.D.D.D.D.D.D.D.D.D.",
"D.D.D.D.D.D.D.D.D.D.D.D.D.D.D.D.D.D.D.D.D.D.D.D.D.  . l ;.:.>.<.} <  ...f   . D.D.D.D.D.D.D.D.D.D.D.D.D.D.D.D.D.D.D.D.D.D.D.D.D.",
"D.D.D.D.D.D.D.D.D.D.D.D.D.D.D.D.D.D.D.D.D.D.D.D.D.D.D.D.8 g %.1. .< @.#. .[ c . D.D.D.D.D.D.D.D.D.D.D.D.D.D.D.D.D.D.D.D.D.D.D.D.",
"D.D.D.D.D.D.D.D.D.D.D.D.D.D.D.D.D.D.D.D.D.D.D.D.D.D.D.D.D.D.l c f @ h j j j h D.D.D.D.D.D.D.D.D.D.D.D.D.D.D.D.D.D.D.D.D.D.D.D.D.",
"D.D.D.D.D.D.D.D.D.D.D.D.D.D.D.D.D.D.D.D.D.D.D.D.D.D.D.D.D.D.D.              D.D.D.D.D.D.D.D.D.D.D.D.D.D.D.D.D.D.D.D.D.D.D.D.D.D.",
"D.D.D.D.D.D.D.D.D.D.D.D.D.D.D.D.D.D.D.D.D.D.D.D.D.D.D.D.D.D.D.D.D.D.D.D.D.D.D.D.D.D.D.D.D.D.D.D.D.D.D.D.D.D.D.D.D.D.D.D.D.D.D.D.",
"D.D.D.D.D.D.D.D.D.D.D.D.D.D.D.D.D.D.D.D.D.D.D.D.D.D.D.D.D.D.D.D.D.D.D.D.D.D.D.D.D.D.D.D.D.D.D.D.D.D.D.D.D.D.D.D.D.D.D.D.D.D.D.D.",
"D.D.D.D.D.D.D.D.D.D.D.D.D.D.D.D.D.D.D.D.D.D.D.D.D.D.D.D.D.D.D.D.D.D.D.D.D.D.D.D.D.D.D.D.D.D.D.D.D.D.D.D.D.D.D.D.D.D.D.D.D.D.D.D.",
"D.D.D.D.D.D.D.D.D.D.D.D.D.D.D.D.D.D.D.D.D.D.D.D.D.D.D.D.D.D.D.D.D.D.D.D.D.D.D.D.D.D.D.D.D.D.D.D.D.D.D.D.D.D.D.D.D.D.D.D.D.D.D.D.",
"D.D.D.D.D.D.D.D.D.D.D.D.D.D.D.D.D.D.D.D.D.D.D.D.D.D.D.D.D.D.D.D.D.D.D.D.D.D.D.D.D.D.D.D.D.D.D.D.D.D.D.D.D.D.D.D.D.D.D.D.D.D.D.D.",
"D.D.D.D.D.D.D.D.D.D.D.D.D.D.D.D.D.D.D.D.D.D.D.D.D.D.D.D.D.D.D.D.D.D.D.D.D.D.D.D.D.D.D.D.D.D.D.D.D.D.D.D.D.D.D.D.D.D.D.D.D.D.D.D."
};
