/* XPM */
static char *result[] = {
/* columns rows colors chars-per-pixel */
"64 64 145 2 ",
"   c #010101",
".  c #0B0402",
"X  c #0D0A01",
"o  c #0B0B0B",
"O  c #1B0706",
"+  c #120D01",
"@  c #161001",
"#  c #1B1401",
"$  c #0D0E10",
"%  c #0E1010",
"&  c #131313",
"*  c #1B1A19",
"=  c #230605",
"-  c #3B0705",
";  c #3C0805",
":  c #3F0D0A",
">  c #221902",
",  c #291E02",
"<  c #201F1E",
"1  c #2B2002",
"2  c #332603",
"3  c #362803",
"4  c #3D2D03",
"5  c #1F2020",
"6  c #242424",
"7  c #2B2B2A",
"8  c #313333",
"9  c #3B3B3B",
"0  c #470F0C",
"q  c #480B08",
"w  c #5B0F0C",
"e  c #55100D",
"r  c #67110D",
"t  c #6A120E",
"y  c #6B1410",
"u  c #7A1510",
"i  c #433103",
"p  c #4A3704",
"a  c #4D3902",
"s  c #423F3E",
"d  c #564004",
"f  c #5D4504",
"g  c #604704",
"h  c #634904",
"j  c #6B4F06",
"k  c #6C5006",
"l  c #765806",
"z  c #7D5D06",
"x  c #7B5E0F",
"c  c #725506",
"v  c #69403E",
"b  c #434343",
"n  c #494745",
"m  c #4A4846",
"M  c #4C4C4D",
"N  c #4D4E51",
"B  c #535353",
"V  c #595654",
"C  c #5C5C5C",
"Z  c #625F5C",
"A  c #64615E",
"S  c #5F6063",
"D  c #616364",
"F  c #696663",
"G  c #656868",
"H  c #6F6F6F",
"J  c #777369",
"K  c #747372",
"L  c #7E7A76",
"P  c #7B7B7B",
"I  c #871914",
"U  c #9A1D17",
"Y  c #9D1E18",
"T  c #931C16",
"R  c #A01E18",
"E  c #AC201A",
"W  c #B0211B",
"Q  c #BE241D",
"!  c #C2251D",
"~  c #805F06",
"^  c #8B6707",
"/  c #8C6808",
"(  c #936D07",
")  c #9C7307",
"_  c #997208",
"`  c #A07708",
"'  c #A67C09",
"]  c #A87D08",
"[  c #837B65",
"{  c #817D79",
"}  c #8B7E7E",
"|  c #AF8209",
" . c #BA8A0A",
".. c #C3910A",
"X. c #CB960A",
"o. c #CF9A0A",
"O. c #D39C0B",
"+. c #DCA30B",
"@. c #E5AA0B",
"#. c #EBAE0C",
"$. c #F3B50C",
"%. c #F7B80C",
"&. c #F8B80C",
"*. c #8C8677",
"=. c #828282",
"-. c #8C8C8C",
";. c #928D89",
":. c #939393",
">. c #9E9894",
",. c #9B9B9B",
"<. c #A39E99",
"1. c #A4A4A4",
"2. c #A7A9A9",
"3. c #AAABAB",
"4. c #B1ACA7",
"5. c #B5B5B5",
"6. c #BCB6B1",
"7. c #BFB8B3",
"8. c #BCBCBC",
"9. c #C1BBB5",
"0. c #C4BEB8",
"q. c #C7C2BE",
"w. c #CAC4BE",
"e. c #C3C4C4",
"r. c #CDC6C0",
"t. c #CFC9C3",
"y. c #CCCCCC",
"u. c #D1CDC9",
"i. c #D7D1CB",
"p. c #DAD3CE",
"a. c #D2D3D3",
"s. c #DED8D3",
"d. c #DBDCDC",
"f. c #E1DBD6",
"g. c #E4DEDA",
"h. c #E7E3DF",
"j. c #E2E2E2",
"k. c #EAE6E2",
"l. c #EEEDED",
"z. c #F1EFED",
"x. c #F4F1EF",
"c. c #F5F4F3",
"v. c #F8F6F5",
"b. c #FFFFFF",
"n. c None",
/* pixels */
"n.n.n.n.n.n.n.n.n.n.n.n.n.n.n.n.n.n.n.n.n.n.n.n.n.n.n.n.n.n.n.n.n.n.n.n.n.n.n.n.n.n.n.n.n.n.n.n.n.n.n.n.n.n.n.n.n.n.n.n.n.n.n.n.",
"n.n.n.n.n.n.n.n.n.n.n.n.n.n.n.n.n.n.n.n.n.n.n.n.n.n.n.n.n.n.n.n.n.n.n.n.n.n.n.n.n.n.n.n.n.n.n.n.n.n.n.n.n.n.n.n.n.n.n.n.n.n.n.n.",
"n.n.n.n.n.n.n.n.n.n.n.n.n.n.n.n.n.n.n.n.n.n.n.n.n.n.n.n.n.n.n.n.n.n.n.n.n.n.n.n.n.n.n.n.n.n.n.n.n.n.n.n.n.n.n.n.n.n.n.n.n.n.n.n.",
"n.n.n.n.n.n.n.n.n.n.n.n.n.n.n.n.n.n.n.n.n.n.n.n.n.n.n.n.n.n.n.n.n.n.n.n.n.n.n.n.n.n.n.n.n.n.n.n.n.n.n.n.n.n.n.n.n.n.n.n.n.n.n.n.",
"n.n.n.n.n.n.n.n.n.n.n.n.n.n.n.n.n.n.n.n.n.n.n.n.n.n.n.n.n.n.n.n.n.n.n.n.n.n.n.n.n.n.n.n.n.n.n.n.n.n.n.n.n.n.n.n.n.n.n.n.n.n.n.n.",
"n.n.n.n.n.n.n.n.n.n.n.n.n.n.n.n.n.n.n.n.n.n.n.n.n.n.n.n.n.n.n.n.n.n.n.n.n.n.n.n.n.n.n.n.n.n.n.n.n.n.n.n.n.n.n.n.n.n.n.n.n.n.n.n.",
"n.n.n.n.n.n.n.n.n.n.n.n.n.n.n.n.n.n.n.n.n.n.n.n.n.n.n.n.n.n.* & n.& n.n.n.n.n.n.n.n.n.n.n.n.n.n.n.n.n.n.n.n.n.n.n.n.n.n.n.n.n.n.",
"n.n.n.n.n.n.n.n.n.n.n.n.n.n.n.n.n.n.n.n.n.n.n.n.n.n.n.n.n.o 2.P 9 e.8 n.n.n.n.n.n.n.n.n.n.n.n.n.n.n.n.n.n.n.n.n.n.n.n.n.n.n.n.n.",
"n.n.n.n.n.n.n.n.n.n.n.n.n.n.n.n.n.n.n.n.n.n.n.n.n.n.n.n.n.n.C 8 b l.8 n.n.n.n.n.n.n.n.n.n.n.n.n.n.n.n.n.n.n.n.n.n.n.n.n.n.n.n.n.",
"n.n.n.n.n.n.n.n.n.n.n.n.n.n.n.n.n.n.n.n.n.n.n.n.n.n.n.n.n.n.n.  6 :.7 n.n.n.n.n.n.n.n.n.n.n.n.n.n.n.n.n.n.n.n.n.n.n.n.n.n.n.n.n.",
"n.n.n.n.n.n.n.n.n.n.n.n.n.n.n.n.n.n.n.n.n.n.n.n.n.n.n.n.n.n.n.      n.n.n.n.n.n.n.n.n.n.n.n.n.n.n.n.n.n.n.n.n.n.n.n.n.n.n.n.n.n.",
"n.n.n.n.n.n.n.n.n.n.n.n.n.n.n.n.n.n.n.n.n.n.n.n.n.n.    o . o . o   o .   n.n.n.n.n.n.n.n.n.n.n.n.n.n.n.n.n.n.n.n.n.n.n.n.n.n.n.",
"n.n.n.n.n.n.n.n.n.n.n.n.n.n.n.n.n.n.n.n.n.n.n.n.      b 5.5.5.5.5.5.5.M       n.n.n.n.n.n.n.n.n.n.n.n.n.n.n.n.n.n.n.n.n.n.n.n.n.",
"n.n.n.n.n.n.n.n.n.n.n.n.n.n.n.n.n.n.n.n.n.n.n.8 H K H 3.b.b.b.b.b.b.b.3.H D o   n.n.n.n.n.n.n.n.n.n.n.n.n.n.n.n.n.n.n.n.n.n.n.n.",
"n.n.n.n.n.n.n.n.n.n.n.n.n.n.n.n.n.n.n.n.n.n.7 K b.b.b.b.b.b.b.b.b.b.b.b.b.k.N %   n.n.n.n.n.n.n.n.n.n.n.n.n.n.n.n.n.n.n.n.n.n.n.",
"n.n.n.n.n.n.n.n.n.n.n.n.n.n.n.n.n.n.n.n.n.o -.c.c.b.b.b.b.b.b.b.b.b.b.b.b.b.c.B     n.n.n.n.n.n.n.n.n.n.n.n.n.n.n.n.n.n.n.n.n.n.",
"n.n.n.n.n.n.n.n.n.n.n.n.n.n.n.n.n.n.n.n.& 1.l.8.M j.b.b.b.b.b.b.b.b.b.b.b.b.b.B     n.n.n.n.n.n.n.n.n.n.n.n.n.n.n.n.n.n.n.n.n.n.",
"n.n.n.n.n.n.n.n.n.n.n.n.n.n.n.n.n.n.n.n.& a.b.d.,.l.,.1.b.b.b.b.b.b.b.b.b.b.b.5.-.=.& n.n.n.n.n.n.n.n.n.n.n.n.n.n.n.n.n.n.n.n.n.",
"n.n.n.n.n.n.n.n.n.n.n.n.n.n.n.n.n.n.n.n.o :.j.b.b.b.=.-.b.b.b.b.b.b.b.b.b.b.b.b.b.a.& n.n.n.n.n.n.n.n.n.n.n.n.n.n.n.n.n.n.n.n.n.",
"n.n.n.n.n.n.n.n.n.n.n.n.n.n.n.n.n.# # # @ . P l.j.v.b.v.b.b.b.b.b.b.b.b.b.b.b.b.b.a.& n.n.n.n.n.n.n.n.n.n.n.n.n.n.n.n.n.n.n.n.n.",
"n.n.n.n.n.n.n.n.n.n.n.n.n.      . ) O.o...1 % 6 9 j.b.b.b.b.b.b.b.b.b.b.b.b.b.b.b.a.&   n.n.n.n.n.n.n.n.n.n.n.n.n.n.n.n.n.n.n.n.",
"n.n.n.n.n.n.n.n.n.n.n.n.    2 _ _ +.] l @.| ) h . N y.b.b.b.b.b.b.b.b.b.b.b.b.b.b.a.&     n.n.n.n.n.n.n.n.n.n.n.n.n.n.n.n.n.n.n.",
"n.n.n.n.n.n.n.n.n.n.n.n.  3 _ $.$.$.' l @.' X.X.f d [ e.b.b.b.b.b.b.b.b.b.b.b.b.b.a.&     n.n.n.n.n.n.n.n.n.n.n.n.n.n.n.n.n.n.n.",
"n.n.n.n.n.n.n.n.n.n.n.n.  ^ +.$.$.$.$.$.@.a ( $.$.$.a S b.b.b.b.b.b.b.b.b.b.b.b.b.a.&   n.n.n.n.n.n.n.n.n.n.n.n.n.n.n.n.n.n.n.n.",
"n.n.n.n.n.n.n.n.n.n.n.n.  . h #.$.$.$.$.#.@.@.$.$.#.a G b.b.b.b.b.b.b.b.b.b.b.b.b.a.& n.n.n.n.n.n.n.n.n.n.n.n.n.n.n.n.n.n.n.n.n.",
"n.n.n.n.n.n.n.n.n.n.n.n.n.  @ h +.%.$.$.%.%.$.$.@.d *.a.b.b.b.b.b.b.b.b.b.b.b.b.b.a.& n.n.n.n.n.n.n.n.n.n.n.n.n.n.n.n.n.n.n.n.n.",
"n.n.n.n.n.n.n.n.n.n.n.n.n.n.  X c z z z z z z z x J a.b.b.b.b.b.b.b.b.b.b.b.b.5.=.P & n.n.n.n.n.n.n.n.n.n.n.n.n.n.n.n.n.n.n.n.n.",
"n.n.n.n.n.n.n.n.n.n.n.n.n.n.n.                $ N k.b.b.b.b.b.b.b.b.b.b.l.y.e.9     n.n.n.n.n.n.n.n.n.n.n.n.n.n.n.n.n.n.n.n.n.n.",
"n.n.n.n.n.n.n.n.n.n.n.n.n.n.n.n.n.n.n.n.n.    n j.l.l.l.l.l.l.l.l.l.l.c.3.& * & & & o & & & $   n.n.n.n.n.n.n.n.n.n.n.n.n.n.n.n.",
"n.n.n.n.n.n.n.n.n.n.n.n.n.n.n.n.n.n.n.n.      % 8 8 8 8 8 8 8 8 8 8 8 8 * * 5.a.y.y.y.y.y.y.8.6         n.n.n.n.n.n.n.n.n.n.n.n.",
"n.n.n.n.n.n.n.n.n.n.n.n.n.n.n.n.n.n.n.n.  w y t r r r r r r r r r r t t q $ G a.b.b.b.b.b.b.v.1.-.-.P o   n.n.n.n.n.n.n.n.n.n.n.",
"n.n.n.n.n.n.n.n.n.n.n.n.n.n.n.n.n.n.n.n.. Y ! ! Q Q ! ! ! ! ! ! ! Q T I w . b e.b.b.b.b.b.b.b.b.b.b.l.G &   n.n.n.n.n.n.n.n.n.n.",
"n.n.n.n.n.n.n.n.n.n.n.n.n.n.n.n.n.n.n.n.. U Q Q ! Q Q Q Q Q E E E R = & * 8 j.b.b.b.b.b.b.b.b.b.b.b.b.v.C o   n.n.n.n.n.n.n.n.n.",
"n.n.n.n.n.n.n.n.n.n.n.n.n.n.n.n.n.n.n.  . U Q Q Q Q Q Q Q Q 0 O O O   =.d.j.b.b.b.b.b.b.b.b.b.b.b.b.b.b.u.F   n.n.n.n.n.n.n.n.n.",
"n.n.n.n.n.n.n.n.n.n.n.n.n.n.n.n.n.n.n.  . R I q ; ; ; ; - : } 2.3.2.3.d.b.b.b.b.b.b.b.b.b.b.b.b.b.b.b.h.f.L   n.n.n.n.n.n.n.n.n.",
"n.n.n.n.n.n.n.n.n.n.n.n.n.n.n.n.n.n.n.  . w m S S S S D S G d.b.b.b.b.b.b.b.b.b.b.b.b.b.b.b.b.b.b.b.v.i.>.m   n.n.n.n.n.n.n.n.n.",
"n.n.n.n.n.n.n.n.n.n.n.n.n.n.n.n.n.n.n.  . 5 1.b.b.b.b.b.b.b.b.b.b.b.b.b.b.b.b.b.b.b.b.b.b.b.b.b.b.b.c.u.s     n.n.n.n.n.n.n.n.n.",
"n.n.n.n.n.n.n.n.n.n.n.n.n.n.n.n.n.n.n.n.o 8.v.b.b.b.b.b.b.b.b.b.b.b.b.b.b.b.b.b.b.b.b.b.b.b.b.b.b.z.i.r.s   n.n.n.n.n.n.n.n.n.n.",
"n.n.n.n.n.n.n.n.n.n.n.n.n.n.n.n.n.n.n.n.  8 3.b.b.b.b.b.b.b.b.b.b.b.b.b.b.b.b.b.b.b.b.b.b.b.b.b.k.s.0.m < n.n.n.n.n.n.n.n.n.n.n.",
"n.n.n.n.n.n.n.n.n.n.n.n.n.n.n.n.n.n.n.n.    n 3.b.b.b.b.b.b.b.b.b.b.b.b.b.b.b.b.b.b.b.b.b.b.b.z.g.4.A & n.n.n.n.n.n.n.n.n.n.n.n.",
"n.n.n.n.n.n.n.n.n.n.n.n.n.n.n.n.n.n.n.n.n.    9 e.v.b.b.b.b.b.b.b.b.b.b.b.b.b.b.b.b.b.c.c.c.z.4.<.G   n.n.n.n.n.n.n.n.n.n.n.n.n.",
"n.n.n.n.n.n.n.n.n.n.n.n.n.n.n.n.n.n.n.n.n.n.    5 a.b.b.b.b.b.b.b.b.b.b.b.b.b.b.b.b.v.f.t.w.6.7 . .   n.n.n.n.n.n.n.n.n.n.n.n.n.",
"n.n.n.n.n.n.n.n.n.n.n.n.n.n.n.n.n.n.n.n.n.n.    . 7 8.b.b.b.b.b.b.b.b.b.b.b.b.b.z.s.s.s.P 6 6 .   n.n.n.n.n.n.n.n.n.n.n.n.n.n.n.",
"n.n.n.n.n.n.n.n.n.n.n.n.n.n.n.n.n.n.n.n.n.n.n.n.n.  2.b.b.b.b.b.b.b.b.z.h.k.k.k.g.9.Z V 7       n.n.n.n.n.n.n.n.n.n.n.n.n.n.n.n.",
"n.n.n.n.n.n.n.n.n.n.n.n.n.n.n.n.n.n.n.n.n.n.n.n.n.  K 5.8.v.v.x.x.x.x.g.9.;.;.-.;.K o         n.n.n.n.n.n.n.n.n.n.n.n.n.n.n.n.n.",
"n.n.n.n.n.n.n.n.n.n.n.n.n.n.n.n.n.n.n.n.n.n.n.n.  @ # o 6 y.q.6.6.6.6.9.P . .     .     n.n.n.n.n.n.n.n.n.n.n.n.n.n.n.n.n.n.n.n.",
"n.n.n.n.n.n.n.n.n.n.n.n.n.n.n.n.n.n.n.n.n.n.n.  + / ' h . 5 * * * * * * &     n.n.n.n.n.n.n.n.n.n.n.n.n.n.n.n.n.n.n.n.n.n.n.n.n.",
"n.n.n.n.n.n.n.n.n.n.n.n.n.n.n.n.n.n.    n.    1 )  .k >   n.n.n.n.n.  i z k X n.n.n.n.n.n.n.n.n.n.n.n.n.n.n.n.n.n.n.n.n.n.n.n.n.",
"n.n.n.n.n.n.n.n.n.n.n.n.n.n.n.n.n.  2 f n.  2 ( @.z >   n.n.n.n.n.n.  l +. .# n.n.n.n.n.n.n.n.n.n.n.n.n.n.n.n.n.n.n.n.n.n.n.n.n.",
"n.n.n.n.n.n.n.n.n.n.n.n.n.n.n.n.n.  f ' 2 , ) &.+.#   n.n.n.n.n.n.n.  ^ $.+.# n.n.n.n.n.n.n.n.n.n.n.n.n.n.n.n.n.n.n.n.n.n.n.n.n.",
"n.n.n.n.n.n.n.n.n.n.n.n.n.n.n.n.n.    4 X.+.#.#.O.# n.n.n.n.n.n.n.n.  ^ %.O.# n.n.n.n.n.n.n.n.n.n.n.n.n.n.n.n.n.n.n.n.n.n.n.n.n.",
"n.n.n.n.n.n.n.n.n.n.n.n.n.n.n.n.n.n.  X i O.%. .3 . n.n.n.n.n.n.n.n.  / &.O.# n.n.n.n.n.n.n.n.n.n.n.n.n.n.n.n.n.n.n.n.n.n.n.n.n.",
"n.n.n.n.n.n.n.n.n.n.n.n.n.n.n.n.n.n.n.    f ..'     n.n.n.n.n.n.      ^ &.O.#   n.n.n.n.n.n.n.n.n.n.n.n.n.n.n.n.n.n.n.n.n.n.n.n.",
"n.n.n.n.n.n.n.n.n.n.n.n.n.n.n.n.n.n.n.n.    h ( i n.n.n.n.n.n.  X 4 4 ] &.+.d i 3 n.n.n.n.n.n.n.n.n.n.n.n.n.n.n.n.n.n.n.n.n.n.n.",
"n.n.n.n.n.n.n.n.n.n.n.n.n.n.n.n.n.n.n.n.n.    p  .# n.n.n.n.    2 o.+.+.+.+.+.+.z   n.n.n.n.n.n.n.n.n.n.n.n.n.n.n.n.n.n.n.n.n.n.",
"n.n.n.n.n.n.n.n.n.n.n.n.n.n.n.n.n.n.n.n.n.n.  X , . n.n.n.n.    X , , , , , , , #   n.n.n.n.n.n.n.n.n.n.n.n.n.n.n.n.n.n.n.n.n.n.",
"n.n.n.n.n.n.n.n.n.n.n.n.n.n.n.n.n.n.n.n.n.n.n.n.n.n.n.n.n.n.n.n.n.n.n.n.n.n.n.n.n.n.n.n.n.n.n.n.n.n.n.n.n.n.n.n.n.n.n.n.n.n.n.n.",
"n.n.n.n.n.n.n.n.n.n.n.n.n.n.n.n.n.n.n.n.n.n.n.n.n.n.n.n.n.n.n.n.n.n.n.n.n.n.n.n.n.n.n.n.n.n.n.n.n.n.n.n.n.n.n.n.n.n.n.n.n.n.n.n.",
"n.n.n.n.n.n.n.n.n.n.n.n.n.n.n.n.n.n.n.n.n.n.n.n.n.n.n.n.n.n.n.n.n.n.n.n.n.n.n.n.n.n.n.n.n.n.n.n.n.n.n.n.n.n.n.n.n.n.n.n.n.n.n.n.",
"n.n.n.n.n.n.n.n.n.n.n.n.n.n.n.n.n.n.n.n.n.n.n.n.n.n.n.n.n.n.n.n.n.n.n.n.n.n.n.n.n.n.n.n.n.n.n.n.n.n.n.n.n.n.n.n.n.n.n.n.n.n.n.n.",
"n.n.n.n.n.n.n.n.n.n.n.n.n.n.n.n.n.n.n.n.n.n.n.n.n.n.n.n.n.n.n.n.n.n.n.n.n.n.n.n.n.n.n.n.n.n.n.n.n.n.n.n.n.n.n.n.n.n.n.n.n.n.n.n.",
"n.n.n.n.n.n.n.n.n.n.n.n.n.n.n.n.n.n.n.n.n.n.n.n.n.n.n.n.n.n.n.n.n.n.n.n.n.n.n.n.n.n.n.n.n.n.n.n.n.n.n.n.n.n.n.n.n.n.n.n.n.n.n.n.",
"n.n.n.n.n.n.n.n.n.n.n.n.n.n.n.n.n.n.n.n.n.n.n.n.n.n.n.n.n.n.n.n.n.n.n.n.n.n.n.n.n.n.n.n.n.n.n.n.n.n.n.n.n.n.n.n.n.n.n.n.n.n.n.n.",
"n.n.n.n.n.n.n.n.n.n.n.n.n.n.n.n.n.n.n.n.n.n.n.n.n.n.n.n.n.n.n.n.n.n.n.n.n.n.n.n.n.n.n.n.n.n.n.n.n.n.n.n.n.n.n.n.n.n.n.n.n.n.n.n."
};
