/* XPM */
static char *result[] = {
/* columns rows colors chars-per-pixel */
"64 64 145 2 ",
"   c #010100",
".  c #0B0201",
"X  c #0D0901",
"o  c #0B0B0B",
"O  c #140302",
"+  c #1A0403",
"@  c #120D01",
"#  c #100E0E",
"$  c #171102",
"%  c #191302",
"&  c #10100F",
"*  c #0E1010",
"=  c #141313",
"-  c #15171B",
";  c #1D1D1D",
":  c #230503",
">  c #230C0B",
",  c #300907",
"<  c #3D0C09",
"1  c #261C01",
"2  c #3D1A18",
"3  c #2D2101",
"4  c #332602",
"5  c #3B2C03",
"6  c #32280C",
"7  c #2A2413",
"8  c #3E3212",
"9  c #262626",
"0  c #2A2A2A",
"q  c #323232",
"w  c #3B3937",
"e  c #3D3D3D",
"r  c #470A07",
"t  c #400A08",
"y  c #4C0B08",
"u  c #520F0C",
"i  c #54100D",
"p  c #66130F",
"a  c #731511",
"s  c #7F1712",
"d  c #463302",
"f  c #4E3A04",
"g  c #513C04",
"h  c #423920",
"j  c #574005",
"k  c #644902",
"l  c #6D5106",
"z  c #735606",
"x  c #7B5C06",
"c  c #44413F",
"v  c #3E4041",
"b  c #444342",
"n  c #4A4946",
"m  c #464749",
"M  c #464949",
"N  c #4A4A4A",
"B  c #525353",
"V  c #5C5C5C",
"C  c #625F5C",
"Z  c #646464",
"A  c #6B6B6B",
"S  c #747474",
"D  c #7B7775",
"F  c #757678",
"G  c #7D7E7E",
"H  c #851914",
"J  c #8C1A15",
"K  c #931B15",
"L  c #9F1E18",
"P  c #AB211A",
"I  c #B4221B",
"U  c #BF241D",
"Y  c #C2251E",
"T  c #8B6807",
"R  c #966F07",
"E  c #936D09",
"W  c #9F7607",
"Q  c #977008",
"!  c #9D7408",
"~  c #957216",
"^  c #A57B08",
"/  c #A97D09",
"(  c #81775D",
")  c #807B77",
"_  c #817C79",
"`  c #AD8007",
"'  c #AC8009",
"]  c #B48609",
"[  c #BB8C0C",
"{  c #C08E0A",
"}  c #C5920A",
"|  c #CC970A",
" . c #CD980A",
".. c #D59E0B",
"X. c #D7A00A",
"o. c #DCA40B",
"O. c #E5AA0B",
"+. c #E9AD0C",
"@. c #EEB10C",
"#. c #F5B60C",
"$. c #F7B80C",
"%. c #F9B90C",
"&. c #7E8080",
"*. c #848485",
"=. c #8B8886",
"-. c #8E8E8E",
";. c #8F9092",
":. c #909292",
">. c #9B9692",
",. c #9B9B9C",
"<. c #A5A6A6",
"1. c #AAA4A4",
"2. c #A9AAAA",
"3. c #B0AAA6",
"4. c #B1AEA9",
"5. c #BAB4AF",
"6. c #B5B5B5",
"7. c #BFB8B3",
"8. c #BBBBBB",
"9. c #C3C2BF",
"0. c #CCC5BF",
"q. c #BEBFC0",
"w. c #C5C5C5",
"e. c #CCC5C0",
"r. c #CCCCCC",
"t. c #D3CCC6",
"y. c #D6CFC9",
"u. c #D7D1CB",
"i. c #D9D2CC",
"p. c #D3D3D3",
"a. c #DDD7D1",
"s. c #DCDCDC",
"d. c #E0DAD6",
"f. c #E4DFDB",
"g. c #E5E0DB",
"h. c #E4E3E3",
"j. c #E9E5E2",
"k. c #ECE9E6",
"l. c #EAEAEA",
"z. c #F1EFEC",
"x. c #F4F4F4",
"c. c #F8F6F6",
"v. c #F9F8F7",
"b. c #FFFEFE",
"n. c None",
/* pixels */
"n.n.n.n.n.n.n.n.n.n.n.n.n.n.n.n.n.n.n.n.n.n.n.n.n.n.n.n.n.n.n.n.n.n.n.n.n.n.n.n.n.n.n.n.n.n.n.n.n.n.n.n.n.n.n.n.n.n.n.n.n.n.n.n.",
"n.n.n.n.n.n.n.n.n.n.n.n.n.n.n.n.n.n.n.n.n.n.n.n.n.n.n.n.n.n.n.n.n.n.n.n.n.n.n.n.n.n.n.n.n.n.n.n.n.n.n.n.n.n.n.n.n.n.n.n.n.n.n.n.",
"n.n.n.n.n.n.n.n.n.n.n.n.n.n.n.n.n.n.n.n.n.n.n.n.n.n.n.n.n.n.n.n.n.n.n.n.n.n.n.n.n.n.n.n.n.n.n.n.n.n.n.n.n.n.n.n.n.n.n.n.n.n.n.n.",
"n.n.n.n.n.n.n.n.n.n.n.n.n.n.n.n.n.n.n.n.n.n.n.n.n.n.n.n.n.n.n.n.n.n.n.n.n.n.n.n.n.n.n.n.n.n.n.n.n.n.n.n.n.n.n.n.n.n.n.n.n.n.n.n.",
"n.n.n.n.n.n.n.n.n.n.n.n.n.n.n.n.n.n.n.n.n.n.n.n.n.n.n.n.n.n.n.n.n.n.n.n.n.n.n.n.n.n.n.n.n.n.n.n.n.n.n.n.n.n.n.n.n.n.n.n.n.n.n.n.",
"n.n.n.n.n.n.n.n.n.n.n.n.n.n.n.n.n.n.n.n.n.n.n.n.n.n.n.n.n.n.n.n.n.n.n.n.n.n.n.n.n.n.n.n.n.n.n.n.n.n.n.n.n.n.n.n.n.n.n.n.n.n.n.n.",
"n.n.n.n.n.n.n.n.n.n.n.n.n.n.n.n.n.n.n.n.n.n.n.n.n.n.n.n.n.n.n.n.n.n.n.n.n.n.n.n.n.n.n.n.n.n.n.n.n.n.n.n.n.n.n.n.n.n.n.n.n.n.n.n.",
"n.n.n.n.n.n.n.n.n.n.n.n.n.n.n.n.n.n.n.n.n.n.n.n.n.n.n.n.n.n.n.n.n.n.n.n.n.n.n.n.n.n.n.n.n.n.n.n.n.n.n.n.n.n.n.n.n.n.n.n.n.n.n.n.",
"n.n.n.n.n.n.n.n.n.n.n.n.n.n.n.n.n.n.n.n.n.n.n.n.n.n.n.n.n.n.  n.n.n.n.n.  n.n.n.n.n.n.n.n.n.n.n.n.n.n.n.n.n.n.n.n.n.n.n.n.n.n.n.",
"n.n.n.n.n.n.n.n.n.n.n.n.n.n.n.n.n.n.n.n.n.n.n.n.n.n.n.n.n.0 N n.n.n.n.N 9   n.n.n.n.n.n.n.n.n.n.n.n.n.n.n.n.n.n.n.n.n.n.n.n.n.n.",
"n.n.n.n.n.n.n.n.n.n.n.n.n.n.n.n.n.n.n.n.n.n.n.n.n.n.n.n.  B h.0 n.n.9 8.F   n.n.n.n.n.n.n.n.n.n.n.n.n.n.n.n.n.n.n.n.n.n.n.n.n.n.",
"n.n.n.n.n.n.n.n.n.n.n.n.n.n.n.n.n.n.n.n.n.n.n.n.n.n.n.n.  B h.9   b r.N ; n.n.n.n.n.n.n.n.n.n.n.n.n.n.n.n.n.n.n.n.n.n.n.n.n.n.n.",
"n.n.n.n.n.n.n.n.n.n.n.n.n.n.n.n.n.n.n.n.n.n.n.n.n.n.n.n.n.q A :.e - V *   n.n.n.n.n.n.n.n.n.n.n.n.n.n.n.n.n.n.n.n.n.n.n.n.n.n.n.",
"n.n.n.n.n.n.n.n.n.n.n.n.n.n.n.n.n.n.n.n.n.n.n.n.n.n.n.n.n.n.B h.,.e e b b e n.n.n.n.n.n.n.n.n.n.n.n.n.n.n.n.n.n.n.n.n.n.n.n.n.n.",
"n.n.n.n.n.n.n.n.n.n.n.n.n.n.n.n.n.n.n.n.n.n.n.n.n.n.n.n.o V x.b.v.v.v.v.v.w.;     n.n.n.n.n.n.n.n.n.n.n.n.n.n.n.n.n.n.n.n.n.n.n.",
"n.n.n.n.n.n.n.n.n.n.n.n.n.n.n.n.n.n.n.n.n.n.n.n.n.n.    *.h.b.b.b.b.b.b.b.x.r.0     n.n.n.n.n.n.n.n.n.n.n.n.n.n.n.n.n.n.n.n.n.n.",
"n.n.n.n.n.n.n.n.n.n.n.n.n.n.n.n.n.n.n.n.n.n.n.n.n.  o S p.b.b.b.b.b.b.b.b.b.b.<.b     n.n.n.n.n.n.n.n.n.n.n.n.n.n.n.n.n.n.n.n.n.",
"n.n.n.n.n.n.n.n.n.n.n.n.n.n.n.n.n.n.n.n.n.n.n.n.  = B l.b.b.v.r.h.x.r.x.b.b.b.b.<.9 o n.n.n.n.n.n.n.n.n.n.n.n.n.n.n.n.n.n.n.n.n.",
"n.n.n.n.n.n.n.n.n.n.n.n.n.n.n.n.n.n.n.n.n.n.n.    C x.b.b.b.l.e ,.w.0 p.b.b.b.b.v.w.& n.n.n.n.n.n.n.n.n.n.n.n.n.n.n.n.n.n.n.n.n.",
"n.n.n.n.n.n.n.n.n.n.n.n.n.n.n.n.n.n.n.n.n.n.n.  G s.b.b.b.b.v.r.h.x.r.x.b.b.b.b.b.p.- n.n.n.n.n.n.n.n.n.n.n.n.n.n.n.n.n.n.n.n.n.",
"n.n.n.n.n.n.n.n.n.n.n.n.n.n.n.n.n.n.n.n.n.n.    2.b.b.b.b.b.v.,.*.*.:.l.b.b.b.b.b.p.=   n.n.n.n.n.n.n.n.n.n.n.n.n.n.n.n.n.n.n.n.",
"n.n.n.n.n.n.n.n.n.n.n.n.n.n.n.n.n.n.n.n.n.n.o 0 8.b.b.b.h.p.w.h 1 1 6 4.p.s.b.b.b.s.e o   n.n.n.n.n.n.n.n.n.n.n.n.n.n.n.n.n.n.n.",
"n.n.n.n.n.n.n.n.n.n.n.n.n.n.n.n.n.n.n.n.n.n.9 p.v.b.v.v.A * 7 [ O.o. .h = n z.v.v.b.h.b   n.n.n.n.n.n.n.n.n.n.n.n.n.n.n.n.n.n.n.",
"n.n.n.n.n.n.n.n.n.n.n.n.n.n.n.n.n.n.n.n.n.n.9 l.b.q.M m - 4 W f ^ } f R ' ~ M b <.b.v.M   n.n.n.n.n.n.n.n.n.n.n.n.n.n.n.n.n.n.n.",
"n.n.n.n.n.n.n.n.n.n.n.n.n.n.n.n.n.n.n.n.n.n.0 h.8.( k k k E +.x ] | z X.%.X.k @ F b.c.M   n.n.n.n.n.n.n.n.n.n.n.n.n.n.n.n.n.n.n.",
"n.n.n.n.n.n.n.n.n.n.n.n.n.n.n.n.n.n.n.n.n.n.9 l.B d |  .| | | | | |  .|  . .} 3 F b.v.N   n.n.n.n.n.n.n.n.n.n.n.n.n.n.n.n.n.n.n.",
"n.n.n.n.n.n.n.n.n.n.n.n.n.n.n.n.n.n.n.n.n.n.0 h.B o % % % % % $ $ $ $ $ % % $   F b.c.M   n.n.n.n.n.n.n.n.n.n.n.n.n.n.n.n.n.n.n.",
"n.n.n.n.n.n.n.n.n.n.n.n.n.n.n.n.n.n.n.n.n.n.9 l.r.2.2.2.2.<.2.2.1.2.2.2.2.2.2.4.*.B V -   n.n.n.n.n.n.n.n.n.n.n.n.n.n.n.n.n.n.n.",
"n.n.n.n.n.n.n.n.n.n.n.n.n.n.n.n.n.n.n.n.n.n.9 ,.<.<.6.v.b.b.b.b.b.b.b.b.p.<.2.2.B       n.n.n.n.n.n.n.n.n.n.n.n.n.n.n.n.n.n.n.n.",
"n.n.n.n.n.n.n.n.n.n.n.n.n.n.n.n.n.n.n.n.n.n.n.      ; w.h.h.s.h.h.s.h.h.A   O + + O   n.n.n.n.n.n.n.n.n.n.n.n.n.n.n.n.n.n.n.n.n.",
"n.n.n.n.n.n.n.n.n.n.n.n.n.n.n.n.n.n.n.n.            o - ; ; ; ; ; ; ; ; o > L P P J .     n.n.n.n.n.n.n.n.n.n.n.n.n.n.n.n.n.n.n.",
"n.n.n.n.n.n.n.n.n.n.n.n.n.n.n.n.n.n.n.    , a a a a a a a a a a a a a a a H U Y J <         n.n.n.n.n.n.n.n.n.n.n.n.n.n.n.n.n.n.",
"n.n.n.n.n.n.n.n.n.n.n.n.n.n.n.n.n.n.n.N = u Y Y Y Y Y Y Y Y Y Y Y Y Y Y Y Y U K t o M B 0   n.n.n.n.n.n.n.n.n.n.n.n.n.n.n.n.n.n.",
"n.n.n.n.n.n.n.n.n.n.n.n.n.n.n.n.n.  q h.M y Y U Y U U U Y U U U U U U I P I P 2 - e l.b.,.=   n.n.n.n.n.n.n.n.n.n.n.n.n.n.n.n.n.",
"n.n.n.n.n.n.n.n.n.n.n.n.n.n.n.n.    q l.M y Y U U U Y U U U Y Y Y Y I < + + > 1.s.s.b.b.z.8.-     n.n.n.n.n.n.n.n.n.n.n.n.n.n.n.",
"n.n.n.n.n.n.n.n.n.n.n.n.n.n.n.    v <.x.M y U U U Y Y Y Y Y I p i u y . M ;.;.h.b.b.b.b.b.s.-     n.n.n.n.n.n.n.n.n.n.n.n.n.n.n.",
"n.n.n.n.n.n.n.n.n.n.n.n.n.n.n.  q ,.b.v.M y Y U Y P J J J J H O   * v b 2.b.b.b.b.b.b.b.b.j.N &   n.n.n.n.n.n.n.n.n.n.n.n.n.n.n.",
"n.n.n.n.n.n.n.n.n.n.n.n.n.n.n.o 8.b.b.v.M r I I I a   . # = # # o N x.x.v.b.b.b.b.b.b.b.b.v.t.c   n.n.n.n.n.n.n.n.n.n.n.n.n.n.n.",
"n.n.n.n.n.n.n.n.n.n.n.n.n.n.n.o w.b.b.b.N . : : : O     G r.r.r.r.s.b.b.b.b.b.b.b.b.b.b.b.v.i.b   n.n.n.n.n.n.n.n.n.n.n.n.n.n.n.",
"n.n.n.n.n.n.n.n.n.n.n.n.n.n.  o w.b.h.*.; q &.G G &.&._ p.b.b.b.b.b.b.b.b.b.b.b.b.b.b.b.b.v.i.b   n.n.n.n.n.n.n.n.n.n.n.n.n.n.n.",
"n.n.n.n.n.n.n.n.n.n.n.n.n.    o w.v.p.b q -.b.b.b.b.b.b.b.b.b.b.b.b.b.b.b.b.b.b.b.b.b.b.b.z.u.b   n.n.n.n.n.n.n.n.n.n.n.n.n.n.n.",
"n.n.n.n.n.n.n.n.n.n.n.n.n.    o w.b.b.x.x.x.b.b.b.b.b.b.b.b.b.b.b.b.b.b.b.b.b.b.b.b.b.b.k.i.0.c   n.n.n.n.n.n.n.n.n.n.n.n.n.n.n.",
"n.n.n.n.n.n.n.n.n.n.n.n.n.n.n.o w.b.b.b.b.b.b.b.b.b.b.b.b.b.b.b.b.b.b.b.b.b.b.b.b.b.b.j.i.7.c #   n.n.n.n.n.n.n.n.n.n.n.n.n.n.n.",
"n.n.n.n.n.n.n.n.n.n.n.n.n.n.n.o A w.b.b.b.b.b.b.b.b.b.b.b.b.b.b.b.b.b.b.b.b.b.b.x.k.k.a.i.5.=   n.n.n.n.n.n.n.n.n.n.n.n.n.n.n.n.",
"n.n.n.n.n.n.n.n.n.n.n.n.n.n.n.    Z p.p.x.b.b.b.b.b.b.b.b.b.b.b.b.b.b.c.c.c.c.c.j.t.y.5.3.>.- n.n.n.n.n.n.n.n.n.n.n.n.n.n.n.n.n.",
"n.n.n.n.n.n.n.n.n.n.n.n.n.n.n.n.  o = - 6.b.v.b.b.b.b.b.b.b.b.b.b.b.b.f.i.i.i.t.t.t.e.b o & n.n.n.n.n.n.n.n.n.n.n.n.n.n.n.n.n.n.",
"n.n.n.n.n.n.n.n.n.n.n.n.n.n.n.n.n.      q N Z x.b.b.b.b.z.f.g.g.g.g.f.i.i.i.t.C w w e #     n.n.n.n.n.n.n.n.n.n.n.n.n.n.n.n.n.n.",
"n.n.n.n.n.n.n.n.n.n.n.n.n.n.n.n.n.n.        - -.,.,.,.,.=.) _ G _ _ D _ _ _ D ;             n.n.n.n.n.n.n.n.n.n.n.n.n.n.n.n.n.n.",
"n.n.n.n.n.n.n.n.n.n.n.n.n.n.n.n.n.n.n.n.        @ % $                   X $ $ X     n.n.n.n.n.n.n.n.n.n.n.n.n.n.n.n.n.n.n.n.n.n.",
"n.n.n.n.n.n.n.n.n.n.n.n.n.n.n.n.n.n.n.n.n.n.n.  l ' E $ n.n.n.n.n.n.n.  j / ! 1   n.n.n.n.n.n.n.n.n.n.n.n.n.n.n.n.n.n.n.n.n.n.n.",
"n.n.n.n.n.n.n.n.n.n.n.n.n.n.n.n.n.n.n.n.n.n.n.  E O.} % n.n.n.n.n.n.n.  z O...4   n.n.n.n.n.n.n.n.n.n.n.n.n.n.n.n.n.n.n.n.n.n.n.",
"n.n.n.n.n.n.n.n.n.n.n.n.n.n.n.n.n.n.n.n.n.n.n.  W $.X.% n.n.n.n.n.n.n.  x $.+.5   n.n.n.n.n.n.n.n.n.n.n.n.n.n.n.n.n.n.n.n.n.n.n.",
"n.n.n.n.n.n.n.n.n.n.n.n.n.n.n.n.n.n.n.n.n.n.n.% / $...% n.n.n.n.n.n.  @ T #.+.f X   n.n.n.n.n.n.n.n.n.n.n.n.n.n.n.n.n.n.n.n.n.n.",
"n.n.n.n.n.n.n.n.n.n.n.n.n.n.n.n.n.n.n.n.    1 [ O.#...%     n.n.n.  X ^ O.#.@.X.l     n.n.n.n.n.n.n.n.n.n.n.n.n.n.n.n.n.n.n.n.n.",
"n.n.n.n.n.n.n.n.n.n.n.n.n.n.n.n.n.n.n.    5 ^ @.$.#.+.^ Q z . n.  1 Q O.$.#.#.$.| x X n.n.n.n.n.n.n.n.n.n.n.n.n.n.n.n.n.n.n.n.n.",
"n.n.n.n.n.n.n.n.n.n.n.n.n.n.n.n.n.n.n.    d ' ^ ^ ^ / / ' z   n.  3 ^ / ^ ^ ^ ^ / T X n.n.n.n.n.n.n.n.n.n.n.n.n.n.n.n.n.n.n.n.n.",
"n.n.n.n.n.n.n.n.n.n.n.n.n.n.n.n.n.n.n.      .     X   . X     n.      .   .           n.n.n.n.n.n.n.n.n.n.n.n.n.n.n.n.n.n.n.n.n.",
"n.n.n.n.n.n.n.n.n.n.n.n.n.n.n.n.n.n.n.n.n.n.n.n.n.n.n.n.n.n.n.n.n.n.n.n.n.n.n.n.n.n.n.n.n.n.n.n.n.n.n.n.n.n.n.n.n.n.n.n.n.n.n.n.",
"n.n.n.n.n.n.n.n.n.n.n.n.n.n.n.n.n.n.n.n.n.n.n.n.n.n.n.n.n.n.n.n.n.n.n.n.n.n.n.n.n.n.n.n.n.n.n.n.n.n.n.n.n.n.n.n.n.n.n.n.n.n.n.n.",
"n.n.n.n.n.n.n.n.n.n.n.n.n.n.n.n.n.n.n.n.n.n.n.n.n.n.n.n.n.n.n.n.n.n.n.n.n.n.n.n.n.n.n.n.n.n.n.n.n.n.n.n.n.n.n.n.n.n.n.n.n.n.n.n.",
"n.n.n.n.n.n.n.n.n.n.n.n.n.n.n.n.n.n.n.n.n.n.n.n.n.n.n.n.n.n.n.n.n.n.n.n.n.n.n.n.n.n.n.n.n.n.n.n.n.n.n.n.n.n.n.n.n.n.n.n.n.n.n.n.",
"n.n.n.n.n.n.n.n.n.n.n.n.n.n.n.n.n.n.n.n.n.n.n.n.n.n.n.n.n.n.n.n.n.n.n.n.n.n.n.n.n.n.n.n.n.n.n.n.n.n.n.n.n.n.n.n.n.n.n.n.n.n.n.n.",
"n.n.n.n.n.n.n.n.n.n.n.n.n.n.n.n.n.n.n.n.n.n.n.n.n.n.n.n.n.n.n.n.n.n.n.n.n.n.n.n.n.n.n.n.n.n.n.n.n.n.n.n.n.n.n.n.n.n.n.n.n.n.n.n.",
"n.n.n.n.n.n.n.n.n.n.n.n.n.n.n.n.n.n.n.n.n.n.n.n.n.n.n.n.n.n.n.n.n.n.n.n.n.n.n.n.n.n.n.n.n.n.n.n.n.n.n.n.n.n.n.n.n.n.n.n.n.n.n.n."
};
