/* XPM */
static char *result[] = {
/* columns rows colors chars-per-pixel */
"64 64 219 2 ",
"   c #0A0807",
".  c #17110F",
"X  c #745950",
"o  c #7C5F55",
"O  c #E22F00",
"+  c #E23000",
"@  c #E23200",
"#  c #E33200",
"$  c #E23300",
"%  c #E33300",
"&  c #E23400",
"*  c #E33400",
"=  c #E33500",
"-  c #E33601",
";  c #E33703",
":  c #E83600",
">  c #E83700",
",  c #E43803",
"<  c #E43804",
"1  c #E43A06",
"2  c #E43B07",
"3  c #E83900",
"4  c #ED3D00",
"5  c #ED3E00",
"6  c #EB3F04",
"7  c #E43C08",
"8  c #E53E0B",
"9  c #EF4203",
"0  c #EC4005",
"q  c #FD4800",
"w  c #FD4900",
"e  c #FF4900",
"r  c #FD4B00",
"t  c #FF4A00",
"y  c #FF4B00",
"u  c #FF4C00",
"i  c #FF4D00",
"p  c #F24C0F",
"a  c #FF5105",
"s  c #FF5106",
"d  c #FF5207",
"f  c #FF5309",
"g  c #FF540A",
"h  c #FF550B",
"j  c #FE550C",
"k  c #FF550C",
"l  c #FE570F",
"z  c #E54514",
"x  c #E54615",
"c  c #E64614",
"v  c #E74817",
"b  c #E74918",
"n  c #E74B1B",
"m  c #E74B1C",
"M  c #ED4F19",
"N  c #E84E1F",
"B  c #E84F1F",
"V  c #FF5911",
"C  c #FE5A12",
"Z  c #FF5A13",
"A  c #FF5C15",
"S  c #FF5D17",
"D  c #FF5D18",
"F  c #FF611E",
"G  c #E95223",
"H  c #E95425",
"J  c #E95426",
"K  c #E95527",
"L  c #E75B2F",
"P  c #EB592A",
"I  c #E85C30",
"U  c #EB5C30",
"Y  c #EB5D30",
"T  c #EB5E32",
"R  c #FF6321",
"E  c #FF6B2C",
"W  c #EB6035",
"Q  c #E86238",
"!  c #EC653A",
"~  c #EC653B",
"^  c #E9683F",
"/  c #EF693D",
"(  c #ED683E",
")  c #FF6D30",
"_  c #FF6E31",
"`  c #FF6F32",
"'  c #88695D",
"]  c #8E6D62",
"[  c #E96A42",
"{  c #ED6940",
"}  c #E96C45",
"|  c #EF734C",
" . c #EF744E",
".. c #FF7A42",
"X. c #FE7B43",
"o. c #FD7B45",
"O. c #FD7F47",
"+. c #F2774E",
"@. c #FF7E49",
"#. c #EA7A56",
"$. c #EE7E57",
"%. c #F07650",
"&. c #F17E59",
"*. c #F17E5A",
"=. c #FF814D",
"-. c #FE814E",
";. c #FF824E",
":. c #FF8451",
">. c #FF8553",
",. c #FF8653",
"<. c #FE8858",
"1. c #FC8C5A",
"2. c #EC8B6B",
"3. c #F38562",
"4. c #FF8E60",
"5. c #F48D6B",
"6. c #FF9063",
"7. c #FF9266",
"8. c #F69474",
"9. c #F69475",
"0. c #F69676",
"q. c #FF9C74",
"w. c #F79A7B",
"e. c #FFA17B",
"r. c #D1A18F",
"t. c #DFAC99",
"y. c #F8A184",
"u. c #F8A285",
"i. c #F8A286",
"p. c #F9A78B",
"a. c #FFAB89",
"s. c #FFAC8C",
"d. c #FFAD8D",
"f. c #FEAE90",
"g. c #FFAF90",
"h. c #E5B09D",
"j. c #FBB197",
"k. c #FFB396",
"l. c #F8B39B",
"z. c #FFB498",
"x. c #FFB599",
"c. c #FFB69A",
"v. c #FEB79B",
"b. c #FFB79B",
"n. c #FFB79C",
"m. c #FFB79D",
"M. c #FDB79F",
"N. c #FFB89D",
"B. c #E9B3A0",
"V. c #EDB7A3",
"C. c #F0B8A4",
"Z. c #FDB8A1",
"A. c #FCB9A2",
"S. c #FFBBA2",
"D. c #FFBCA3",
"F. c #FDBBA4",
"G. c #FEBDA6",
"H. c #FEBDA7",
"J. c #FFBFA8",
"K. c #FDC0AA",
"L. c #FFC0AA",
"P. c #FEC0AB",
"I. c #FEC1AB",
"U. c #FEC1AC",
"Y. c #FFC1AC",
"T. c #FFC2AC",
"R. c #FEC2AD",
"E. c #FFC2AD",
"W. c #FFC3AD",
"Q. c #FFC3AE",
"!. c #FFC4AE",
"~. c #FFC4AF",
"^. c #FFC4B0",
"/. c #FFC5B0",
"(. c #FFC5B1",
"). c #FFC6B1",
"_. c #FFC7B1",
"`. c #FEC6B2",
"'. c #FFC6B2",
"]. c #FEC7B2",
"[. c #FFC7B2",
"{. c #FFC6B3",
"}. c #FFC7B3",
"|. c #FACAB2",
" X c #FFC8B3",
".X c #FEC8B4",
"XX c #FEC9B5",
"oX c #FEC9B6",
"OX c #FECAB8",
"+X c #FDCDBB",
"@X c #FDCEBB",
"#X c #FECFBD",
"$X c #F9D0BA",
"%X c #FDD0BE",
"&X c #F8D6C3",
"*X c #FCD4C4",
"=X c #F8DCCC",
"-X c #F7DFD3",
";X c #FAE1D5",
":X c #F8E2D6",
">X c #FAE3D7",
",X c #F6E7DD",
"<X c #F9E7DC",
"1X c #F6E8DE",
"2X c #F9E8DE",
"3X c #F8E9DF",
"4X c #F9E9DF",
"5X c #F6EAE0",
"6X c #F7ECE4",
"7X c #F7EEE6",
"8X c #F7EFE6",
"9X c #F7EFE7",
"0X c #F8EAE0",
"qX c #F8EBE1",
"wX c #F8EBE2",
"eX c #F7F0E7",
"rX c #F7F0E8",
"tX c #F7F0E9",
"yX c None",
/* pixels */
"yXyXyXyXyXyXyXyXyXyXyXyXyXyXyXyXyXyXyXyXyXyXyXyXyXyXyXyXyXyXyXyXyXyXyXyXyXyXyXyXyXyXyXyXyXyXyXyXyXyXyXyXyXyXyXyXyXyXyXyXyXyXyXyX",
"yXyXyXyXyXyXyXyXyXyXyXyXyXyXyXyXyXyXyXyXyXyXyXyXyXyXyXyXyXyXyXyXyXyXyXyXyXyXyXyXyXyXyXyXyXyXyXyXyXyXyXyXyXyXyXyXyXyXyXyXyXyXyXyX",
"yXyXyXyXyXyXyXyXyXyXyXyXyXyXyXyXyXyXyXyXyXyXyXyXyXyXyXyXyXyXyXyXyXyXyXyXyXyXyXyXyXyXyXyXyXyXyXyXyXyXyXyXyXyXyXyXyXyXyXyXyXyXyXyX",
"yXyXyXyXyXyXyXyXyXyXyXyXyXyXyXyXyXyXyXyXyXyXyXyXyXyXyXyXyXyXyXyXyXyXyXyXyXyXyXyXyXyXyXyXyXyXyXyXyXyXyXyXyXyXyXyXyXyXyXyXyXyXyXyX",
"yXyXyXyXyXyXyXyXyXyXyXyXyXyXyXyXyXyXyXyXyXyXyXyXyXyXyXyXyXyXyXyXyXyXyXyXyXyXyXyXyXyXyXyXyXyXyXyXyXyXyXyXyXyXyXyXyXyXyXyXyXyXyXyX",
"yXyXyXyXyXyXyXyXyXyXyXyXyXyXyXyXyXyXyXyXyXyXyXyXyXyXyXyXyXyXyXyXyXyXyXyXyXyXyXyXyXyXyXyXyXyXyXyXyXyXyXyXyXyXyXyXyXyXyXyXyXyXyXyX",
"yXyXyXyXyXyXyXyXyXyXyXyXyXyXyXyXyXyXyXyXyXyXyXyXyXyXyXyXyXyXyXyXyXyXyXyXyXyXyXyXyXyXyXyXyXyXyXyXyXyXyXyXyXyXyXyXyXyXyXyXyXyXyXyX",
"yXyXyXyXyXyXyXyXyXyXyXyXyXyXyXyXyXyXyXyXyXyXyXyXyXyXyXyXyXyXyXyXyXyXyXyXyXyXyXyXyXyXyXyXyXyXyXyXyXyXyXyXyXyXyXyXyXyXyXyXyXyXyXyX",
"yXyXyXyXyXyXyXyXyXyXyXyXyXyXyXyXyXyXyXyXyXyXyXyXyXyXyXyXyXyXyXyXyXyXyXyXyXyXyXyXyXyXyXyXyXyXyXyXyXyXyXyXyXyXyXyXyXyXyXyXyXyXyXyX",
"yXyXyXyXyXyXyXyXyXyXyXyXyXyXyXyXyXyXyXyXyXyXyXyXyXyXyXyXyXyXyXyXyXyXyXyXyXyXyXyXyXyXyXyXyXyXyXyXyXyXyXyXyXyXyXyXyXyXyXyXyXyXyXyX",
"yXyXyXyXyXyXyXyXyXyXyXyXyXyXyXyXyXyXyXyXyXyXyXyXyXyXyXyXyXyXyXyXyXyXyXyXyXyXyXyXyXyXyXyXyXyXyXyXyXyXyXyXyXyXyXyXyXyXyXyXyXyXyXyX",
"yXyXyXyXyXyXyXyXyXyXyXyXyXyXyXyXyXyXyXyXyXyXyXyXyXyXyXyXyXyXyXyXyXyXyXyXyXyXyXyXyXyXyXyXyXyXyXyXyXyXyXyXyXyXyXyXyXyXyXyXyXyXyXyX",
"yXyXyXyXyXyXyXyXyXyXyXyXyXyXyXyXyXyXyXyXyXyXyXyXyXyXyXyXyXyXyXyXyXyXyXyXyXyXyXyXyXyXyXyXyXyXyXyXyXyXyXyXyXyXyXyXyXyXyXyXyXyXyXyX",
"yXyXyXyXyXyXyXyXyXyXyXyXyXyXyXyXyXyXyXyXyXyXyXyXyXyXyXyXyXyXyXyXyXyXyXyXyXyXyXyXyXyXyXyXyXyXyXyXyXyXyXyXyXyXyXyXyXyXyXyXyXyXyXyX",
"yXyXyXyXyXyXyXyXyXyXyXyXyXyXyXyXyXyXyXyXyXyXyXyXyXyXyXyXyXyXyXyXyXyXyXyXyXyXyXyXyXyXyXyXyXyXyXyXyXyXyXyXyXyXyXyXyXyXyXyXyXyXyXyX",
"yXyXyXyXyXyXyXyXyXyXyXyXyXyXyXyXyXyXyXyXyXyXyXyXyXyXyXyXyXyXyXyXyXyXyXyXyXyXyXyXyXyXyXyXyXyXyXyXyXyXyXyXyXyXyXyXyXyXyXyXyXyXyXyX",
"yXyXyXyXyXyXyXyXyXyXyXyXyXyXyXyXyXyXyXyXyXyXyXyXyXyXyXyXyXyXyXyXyXyXyXyXyXyXyXyXyXyXyXyXyXyXyXyXyXyXyXyXyXyXyXyXyXyXyXyXyXyXyXyX",
"yXyXyXyXyXyXyXyXyXyXyXyXyXyXyXyXyXyXyXyXyXyXyXyXyXyXyXyXyXyXyXyXyXyXyXyXyXyXyXyXyXyXyXyXyXyXyXyXyXyXyXyXyXyXyXyXyXyXyXyXyXyXyXyX",
"yXyXyXyXyXyXyXyXyXyXyXyXyXyXyXyXyXyXyXyXyXyXyXyXyXyXyXyXyXyXyXyXyXyXyXyXyXyXyXyXyXyXyXyXyXyXyXyXyXyXyXyXyXyXyXyXyXyXyXyXyXyXyXyX",
"yXyXyXyXyXyXyXyXyXyXyXyXyXyXyXyXyXyXyXyXyXyXyXyXyXyXyXyXyXyXyXyXyXyXyXyXyXyXyXyXyXyXyXyXyXyXyXyXyXyXyXyXyXyXyXyXyXyXyXyXyXyXyXyX",
"yXyXyXyXyXyXyXyXyXyXyXyXyXyXyXyXyXyXyXyXyXyXyXyXyXyXyXyX% % * & yXyX@ % # # * = yXyXyXyXyXyXyXyXyXyXyXyXyXyXyXyXyXyXyXyXyXyXyXyX",
"yXyXyXyXyXyXyXyXyXyXyXyXyXyXyXyXyXyXyXyXyXyXyXyXyXyXyXyXW P 6 0 yXyX! T ^ [ x * = yXyXyXyXyXyXyXyXyXyXyXyXyXyXyXyXyXyXyXyXyXyXyX",
"yXyXyXyXyXyXyXyXyXyXyXyXyXyXyXyXyXyXyXyXyXyXyXyXyXyX~.Q.R.f.j l z.{.Y.R.:X5X} O * = yXyXyXyXyXyXyXyXyXyXyXyXyXyXyXyXyXyXyXyXyXyX",
"yXyXyXyXyXyXyXyXyXyXyXyXyXyXyXyXyXyXyXyXyXyXyXyXyXyXQ.~.(.c.` ) e.d.].%X2X8X2.L z * = yXyXyXyXyXyXyXyXyXyXyXyXyXyXyXyXyXyXyXyXyX",
"yXyXyXyXyXyXyXyXyXyXyXyXyXyXyXyXyXyXyXyXyXyX% * % Y U.).~.Q.J.k.F A $XtXeXrX5X,X#.@ = @  .(.~.yXyX% * = = yXyXyXyXyXyXyXyXyXyXyX",
"yXyXyXyXyXyXyXyXyXyXyXyXyXyXyXyXyXyXyXyXyX~ N c % J p.j.W.~.(.N.S k |.qX7XrXwX4X$.: 3 > +.(.~.yXyXB v - = yXyXyXyXyXyXyXyXyXyXyX",
"yXyXyXyXyXyXyXyXyXyXyXyXyXyXyXyXyX~.~./.).L.F.5.- , 8 Y H.^./.N.S g g.OX<XrX*X}.o.q r w -.(.~.~.P.F.w.1 = yXyXyXyXyXyXyXyXyXyXyX",
"yXyXyXyXyXyXyXyXyXyXyXyXyXyXyXyXyX~.~.C.t.V.}.9.- = @ H G.^./.N.S f s.}.;XqX%XQ.:.Z g y ;.(.~.~.~.[.i.2 = yXyXyXyXyXyXyXyXyXyXyX",
"yXyXyXyXyXyXyXyXyXyXyXyXyXyXyX~.~.~.).] . o  X8.- = % J G.~./.N.S f d.)..XoX).~.S.b.@.e ;.(.~.~.~.'.u.2 = yXyXyXyXyXyXyXyXyXyXyX",
"yXyXyXyXyXyXyXyXyXyXyXyXyXyXyX~.~.~._.'   X  X8.- = % K K.}.(.N.S f d.(.~.~.~.~./.'.,.e ;.(.~.~.~.'.u.2 = yXyXyXyXyXyXyXyXyXyXyX",
"yXyXyXyXyXyXyXyXyXyXyXyXyXyXyX~.~.~.~.B.r.h.[.8.- = # I -X>X.Xn.S f d.(.~.~.~.~.~.(.>.e ;.(.~.~.~.'.u.2 = yXyXyXyXyXyXyXyXyXyXyX",
"yXyXyXyXyXyXyXyXyXyXyXyXyXyXyX~.~.~.~./.)./.'.0.7 2 < Q 1X0XXXn.S f d.(.~.~.~.~.~.(.>.e ;.(.~.~.~.'.u.2 = yXyXyXyXyXyXyXyXyXyXyX",
"yXyXyXyXyXyXyXyXyXyXyXyXyXyXyX~.~.~.~.~.~.~./.Z.u.u.y.l.6X3XXXm.S f d.(.~.~.~.~.~.).>.e ;.(.~.~.~.'.u.2 = yXyXyXyXyXyXyXyXyXyXyX",
"yXyXyXyXyXyXyXyXyXyXyXyXyXyXyX~.~.~.~.~.~.~.~./.).'.(.#X7X3X`.x.S f d.(.~.~.~.~.E.W.:.e =.(.W.I.T.).u.2 = yXyXyXyXyXyXyXyXyXyXyX",
"yXyXyXyXyXyXyXyXyXyXyXyXyXyXyXyXyX~.~.~.~.~.~.~.~.~.Q.@X9X=XX.E s g d.(.~.~.~.~.6._ D u R yX&.U &./.u.2 = yXyXyXyXyXyXyXyXyXyXyX",
"yXyXyXyXyXyXyXyXyXyXyXyXyXyXyXyXyX~.~.~.~.~.~.~.~.~.Q.+X9X&XC t i h d.(.~.~.~.~...e u i y yXyX+ W !.u.2 = yXyXyXyXyXyXyXyXyXyXyX",
"yXyXyXyXyXyXyXyXyXyXyXyXyXyXyXyXyXyXyXyXyXyXyX~.~.~./.v.1.O.d h 4.q.D./.~.W.3.( M 4 5 5 5 yXyXyXG { Y ; = yXyXyXyXyXyXyXyXyXyXyX",
"yXyXyXyXyXyXyXyXyXyXyXyXyXyXyXyXyXyXyXyXyXyXyXyX~.~.}.a.a t y V x.}.^.~./.Q.W + * = = = = yXyXyXyX# % = = yXyXyXyXyXyXyXyXyXyXyX",
"yXyXyXyXyXyXyXyXyXyXyXyXyXyXyXyXyXyXyXyXyXyXyXyXyXy.%./ 9 p <.7.c.yXyXyX*.| b * = = = yXyXyXyXyXyXyXyXyXyXyXyXyXyXyXyXyXyXyXyXyX",
"yXyXyXyXyXyXyXyXyXyXyXyXyXyXyXyXyXyXyXyXyXyXyXyXyXyX% % $ m A.}.yXyXyXyX@ % * = = = yXyXyXyXyXyXyXyXyXyXyXyXyXyXyXyXyXyXyXyXyXyX",
"yXyXyXyXyXyXyXyXyXyXyXyXyXyXyXyXyXyXyXyXyXyXyXyXyXyX= = * n M.yXyXyXyXyXyX= = = = = yXyXyXyXyXyXyXyXyXyXyXyXyXyXyXyXyXyXyXyXyXyX",
"yXyXyXyXyXyXyXyXyXyXyXyXyXyXyXyXyXyXyXyXyXyXyXyXyXyXyXyXyXyXyXyXyXyXyXyXyXyXyXyXyXyXyXyXyXyXyXyXyXyXyXyXyXyXyXyXyXyXyXyXyXyXyXyX",
"yXyXyXyXyXyXyXyXyXyXyXyXyXyXyXyXyXyXyXyXyXyXyXyXyXyXyXyXyXyXyXyXyXyXyXyXyXyXyXyXyXyXyXyXyXyXyXyXyXyXyXyXyXyXyXyXyXyXyXyXyXyXyXyX",
"yXyXyXyXyXyXyXyXyXyXyXyXyXyXyXyXyXyXyXyXyXyXyXyXyXyXyXyXyXyXyXyXyXyXyXyXyXyXyXyXyXyXyXyXyXyXyXyXyXyXyXyXyXyXyXyXyXyXyXyXyXyXyXyX",
"yXyXyXyXyXyXyXyXyXyXyXyXyXyXyXyXyXyXyXyXyXyXyXyXyXyXyXyXyXyXyXyXyXyXyXyXyXyXyXyXyXyXyXyXyXyXyXyXyXyXyXyXyXyXyXyXyXyXyXyXyXyXyXyX",
"yXyXyXyXyXyXyXyXyXyXyXyXyXyXyXyXyXyXyXyXyXyXyXyXyXyXyXyXyXyXyXyXyXyXyXyXyXyXyXyXyXyXyXyXyXyXyXyXyXyXyXyXyXyXyXyXyXyXyXyXyXyXyXyX",
"yXyXyXyXyXyXyXyXyXyXyXyXyXyXyXyXyXyXyXyXyXyXyXyXyXyXyXyXyXyXyXyXyXyXyXyXyXyXyXyXyXyXyXyXyXyXyXyXyXyXyXyXyXyXyXyXyXyXyXyXyXyXyXyX",
"yXyXyXyXyXyXyXyXyXyXyXyXyXyXyXyXyXyXyXyXyXyXyXyXyXyXyXyXyXyXyXyXyXyXyXyXyXyXyXyXyXyXyXyXyXyXyXyXyXyXyXyXyXyXyXyXyXyXyXyXyXyXyXyX",
"yXyXyXyXyXyXyXyXyXyXyXyXyXyXyXyXyXyXyXyXyXyXyXyXyXyXyXyXyXyXyXyXyXyXyXyXyXyXyXyXyXyXyXyXyXyXyXyXyXyXyXyXyXyXyXyXyXyXyXyXyXyXyXyX",
"yXyXyXyXyXyXyXyXyXyXyXyXyXyXyXyXyXyXyXyXyXyXyXyXyXyXyXyXyXyXyXyXyXyXyXyXyXyXyXyXyXyXyXyXyXyXyXyXyXyXyXyXyXyXyXyXyXyXyXyXyXyXyXyX",
"yXyXyXyXyXyXyXyXyXyXyXyXyXyXyXyXyXyXyXyXyXyXyXyXyXyXyXyXyXyXyXyXyXyXyXyXyXyXyXyXyXyXyXyXyXyXyXyXyXyXyXyXyXyXyXyXyXyXyXyXyXyXyXyX",
"yXyXyXyXyXyXyXyXyXyXyXyXyXyXyXyXyXyXyXyXyXyXyXyXyXyXyXyXyXyXyXyXyXyXyXyXyXyXyXyXyXyXyXyXyXyXyXyXyXyXyXyXyXyXyXyXyXyXyXyXyXyXyXyX",
"yXyXyXyXyXyXyXyXyXyXyXyXyXyXyXyXyXyXyXyXyXyXyXyXyXyXyXyXyXyXyXyXyXyXyXyXyXyXyXyXyXyXyXyXyXyXyXyXyXyXyXyXyXyXyXyXyXyXyXyXyXyXyXyX",
"yXyXyXyXyXyXyXyXyXyXyXyXyXyXyXyXyXyXyXyXyXyXyXyXyXyXyXyXyXyXyXyXyXyXyXyXyXyXyXyXyXyXyXyXyXyXyXyXyXyXyXyXyXyXyXyXyXyXyXyXyXyXyXyX",
"yXyXyXyXyXyXyXyXyXyXyXyXyXyXyXyXyXyXyXyXyXyXyXyXyXyXyXyXyXyXyXyXyXyXyXyXyXyXyXyXyXyXyXyXyXyXyXyXyXyXyXyXyXyXyXyXyXyXyXyXyXyXyXyX",
"yXyXyXyXyXyXyXyXyXyXyXyXyXyXyXyXyXyXyXyXyXyXyXyXyXyXyXyXyXyXyXyXyXyXyXyXyXyXyXyXyXyXyXyXyXyXyXyXyXyXyXyXyXyXyXyXyXyXyXyXyXyXyXyX",
"yXyXyXyXyXyXyXyXyXyXyXyXyXyXyXyXyXyXyXyXyXyXyXyXyXyXyXyXyXyXyXyXyXyXyXyXyXyXyXyXyXyXyXyXyXyXyXyXyXyXyXyXyXyXyXyXyXyXyXyXyXyXyXyX",
"yXyXyXyXyXyXyXyXyXyXyXyXyXyXyXyXyXyXyXyXyXyXyXyXyXyXyXyXyXyXyXyXyXyXyXyXyXyXyXyXyXyXyXyXyXyXyXyXyXyXyXyXyXyXyXyXyXyXyXyXyXyXyXyX",
"yXyXyXyXyXyXyXyXyXyXyXyXyXyXyXyXyXyXyXyXyXyXyXyXyXyXyXyXyXyXyXyXyXyXyXyXyXyXyXyXyXyXyXyXyXyXyXyXyXyXyXyXyXyXyXyXyXyXyXyXyXyXyXyX",
"yXyXyXyXyXyXyXyXyXyXyXyXyXyXyXyXyXyXyXyXyXyXyXyXyXyXyXyXyXyXyXyXyXyXyXyXyXyXyXyXyXyXyXyXyXyXyXyXyXyXyXyXyXyXyXyXyXyXyXyXyXyXyXyX",
"yXyXyXyXyXyXyXyXyXyXyXyXyXyXyXyXyXyXyXyXyXyXyXyXyXyXyXyXyXyXyXyXyXyXyXyXyXyXyXyXyXyXyXyXyXyXyXyXyXyXyXyXyXyXyXyXyXyXyXyXyXyXyXyX",
"yXyXyXyXyXyXyXyXyXyXyXyXyXyXyXyXyXyXyXyXyXyXyXyXyXyXyXyXyXyXyXyXyXyXyXyXyXyXyXyXyXyXyXyXyXyXyXyXyXyXyXyXyXyXyXyXyXyXyXyXyXyXyXyX",
"yXyXyXyXyXyXyXyXyXyXyXyXyXyXyXyXyXyXyXyXyXyXyXyXyXyXyXyXyXyXyXyXyXyXyXyXyXyXyXyXyXyXyXyXyXyXyXyXyXyXyXyXyXyXyXyXyXyXyXyXyXyXyXyX",
"yXyXyXyXyXyXyXyXyXyXyXyXyXyXyXyXyXyXyXyXyXyXyXyXyXyXyXyXyXyXyXyXyXyXyXyXyXyXyXyXyXyXyXyXyXyXyXyXyXyXyXyXyXyXyXyXyXyXyXyXyXyXyXyX"
};
