/* XPM */
static char *result[] = {
/* columns rows colors chars-per-pixel */
"64 64 234 2 ",
"   c #040303",
".  c #2F2420",
"X  c #4E3C36",
"o  c #6C534A",
"O  c #E23000",
"+  c #E23100",
"@  c #E23200",
"#  c #E33200",
"$  c #E23300",
"%  c #E33300",
"&  c #E33400",
"*  c #E33500",
"=  c #E33702",
"-  c #E33703",
";  c #E63600",
":  c #E73800",
">  c #E53D00",
",  c #E33905",
"<  c #E43904",
"1  c #E43906",
"2  c #E43A07",
"3  c #E83F00",
"4  c #EC3D00",
"5  c #EF3E00",
"6  c #EF3F00",
"7  c #E43C09",
"8  c #E53E0B",
"9  c #E74405",
"0  c #EF4000",
"q  c #E94505",
"w  c #E7430F",
"e  c #E9440F",
"r  c #EF480C",
"t  c #F34300",
"y  c #F64500",
"u  c #FB4800",
"i  c #FB4B00",
"p  c #FC4800",
"a  c #FF4A00",
"s  c #FF4B00",
"d  c #FF4C00",
"f  c #FF4D00",
"g  c #FF4D01",
"h  c #FF4E02",
"j  c #FF4F03",
"k  c #FC4F05",
"l  c #FF4F04",
"z  c #FF5105",
"x  c #FF5309",
"c  c #FF550C",
"v  c #E64210",
"b  c #E64311",
"n  c #E54615",
"m  c #E64716",
"M  c #E74918",
"N  c #E74919",
"B  c #E54B1C",
"V  c #FF5811",
"C  c #FF5C16",
"Z  c #FF5E19",
"A  c #FC5D1C",
"S  c #FF601B",
"D  c #E64F21",
"F  c #E65527",
"G  c #E85020",
"H  c #E85021",
"J  c #E85224",
"K  c #E95424",
"L  c #E7592D",
"P  c #EA592C",
"I  c #EA5B2E",
"U  c #FF6422",
"Y  c #FF6423",
"T  c #FF6523",
"R  c #FF6524",
"E  c #FF6625",
"W  c #FD6B2F",
"Q  c #E86035",
"!  c #EB6035",
"~  c #EC6439",
"^  c #FF7135",
"/  c #FF7237",
"(  c #FF7337",
")  c #FF7338",
"_  c #FF753B",
"`  c #A57F71",
"'  c #EE6B42",
"]  c #EE6B43",
"[  c #EE6C43",
"{  c #EE6E46",
"}  c #EF6F46",
"|  c #EE6F48",
" . c #EF734B",
".. c #EF734C",
"X. c #EF744D",
"o. c #EF754E",
"O. c #F0754E",
"+. c #F07852",
"@. c #F07953",
"#. c #F17C57",
"$. c #F17D58",
"%. c #F17E59",
"&. c #B3897B",
"*. c #FC814A",
"=. c #ED825F",
"-. c #FF8350",
";. c #FF8451",
":. c #FF8756",
">. c #F2805B",
",. c #EC8968",
"<. c #F28461",
"1. c #F38561",
"2. c #F38866",
"3. c #F58C64",
"4. c #FC8E63",
"5. c #F58E6D",
"6. c #FF9063",
"7. c #FF9164",
"8. c #FF996F",
"9. c #FF9E77",
"0. c #F79C7E",
"q. c #FF9F78",
"w. c #FF9F79",
"e. c #FBA076",
"r. c LightSalmon",
"t. c #C19484",
"y. c #D3A291",
"u. c #F8A181",
"i. c #F9A281",
"p. c #FEA481",
"a. c #FFA481",
"s. c #FFA581",
"d. c #F8A386",
"f. c #FFA684",
"g. c #FAAA8F",
"h. c #FBAD92",
"j. c #FBAD93",
"k. c #FFB193",
"l. c #FBB097",
"z. c #FAB595",
"x. c #FBB299",
"c. c #FFB598",
"v. c #FFB599",
"b. c #FDB59C",
"n. c #FCB69E",
"m. c #FCB79F",
"M. c #E9B3A0",
"N. c #EFB8A4",
"B. c #F6BBA5",
"V. c #F4BBA7",
"C. c #FFB9A0",
"Z. c #FFBAA1",
"A. c #FDB9A2",
"S. c #FDBAA3",
"D. c #FDBBA4",
"F. c #FFBCA4",
"G. c #FFBDA4",
"H. c #FFBDA5",
"J. c #FEBDA6",
"K. c #FFBDA6",
"L. c #FEBEA6",
"P. c #FFBEA6",
"I. c #FFBFA6",
"U. c #FFBEA7",
"Y. c #FFBFA7",
"T. c #F9BFAA",
"R. c #FFBDA8",
"E. c #FFBEA8",
"W. c #FEBFA9",
"Q. c #F9C0AB",
"!. c #FFC0AA",
"~. c #FDC2AA",
"^. c #FAC0AC",
"/. c #FFC2AC",
"(. c #FFC2AD",
"). c #FFC3AD",
"_. c #FCC3AE",
"`. c #FEC3AE",
"'. c #FFC3AE",
"]. c #FFC4AE",
"[. c #FFC4AF",
"{. c #FFC5AF",
"}. c #FFC3B0",
"|. c #FFC4B0",
" X c #FFC5B0",
".X c #FFC5B1",
"XX c #FFC6B1",
"oX c #FEC6B2",
"OX c #FFC6B2",
"+X c #FFC7B2",
"@X c #FFC6B3",
"#X c #FFC7B3",
"$X c #FFC7B4",
"%X c #FAC8B0",
"&X c #FFC8B3",
"*X c #FFC8B4",
"=X c #FEC9B5",
"-X c #F3CCBB",
";X c #F3CEBD",
":X c #FECBB9",
">X c #FECCBA",
",X c #FDCEBC",
"<X c #FDCFBD",
"1X c #FDD0BF",
"2X c #FDD2C1",
"3X c #FCD5C6",
"4X c #FBD7C8",
"5X c #F5DBCD",
"6X c #F6DCCF",
"7X c #FBD8C8",
"8X c #FCD9CA",
"9X c #FCDACB",
"0X c #F5E0D4",
"qX c #FAE0D3",
"wX c #FAE0D4",
"eX c #F6E3D8",
"rX c #FAE4D9",
"tX c #F9E8DD",
"yX c #F8E9DE",
"uX c #F7EDE5",
"iX c #F7EFE6",
"pX c #F8EBE2",
"aX c #F8ECE2",
"sX c #F8EDE4",
"dX c #F8EEE5",
"fX c #F7F0E7",
"gX c #F7F0E8",
"hX c #F7F1E9",
"jX c #F7F2EA",
"kX c #F7F2EB",
"lX c #F7F3EC",
"zX c #F8F0E8",
"xX c #F7F6F0",
"cX c None",
/* pixels */
"cXcXcXcXcXcXcXcXcXcXcXcXcXcXcXcXcXcXcXcXcXcXcXcXcXcXcXcXcXcXcXcXcXcXcXcXcXcXcXcXcXcXcXcXcXcXcXcXcXcXcXcXcXcXcXcXcXcXcXcXcXcXcXcX",
"cXcXcXcXcXcXcXcXcXcXcXcXcXcXcXcXcXcXcXcXcXcXcXcXcXcXcXcXcXcXcXcXcXcXcXcXcXcXcXcXcXcXcXcXcXcXcXcXcXcXcXcXcXcXcXcXcXcXcXcXcXcXcXcX",
"cXcXcXcXcXcXcXcXcXcXcXcXcXcXcXcXcXcXcXcXcXcXcXcXcXcXcXcXcXcXcXcXcXcXcXcXcXcXcXcXcXcXcXcXcXcXcXcXcXcXcXcXcXcXcXcXcXcXcXcXcXcXcXcX",
"cXcXcXcXcXcXcXcXcXcXcXcXcXcXcXcXcXcXcXcXcXcXcXcXcXcXcXcXcXcXcXcXcXcXcXcXcXcXcXcXcXcXcXcXcXcXcXcXcXcXcXcXcXcXcXcXcXcXcXcXcXcXcXcX",
"cXcXcXcXcXcXcXcXcXcXcXcXcXcXcXcXcXcXcXcXcXcXcXcXcXcXcXcXcXcXcXcXcXcXcXcXcXcXcXcXcXcXcXcXcXcXcXcXcXcXcXcXcXcXcXcXcXcXcXcXcXcXcXcX",
"cXcXcXcXcXcXcXcXcXcXcXcXcXcXcXcXcXcXcXcXcXcXcXcXcXcXcXcXcXcXcXcXcXcXcXcXcXcXcXcXcXcXcXcXcXcXcXcXcXcXcXcXcXcXcXcXcXcXcXcXcXcXcXcX",
"cXcXcXcXcXcXcXcXcXcXcXcXcXcXcXcXcXcXcXcXcXcXcXcXcXcXcXcXcXcXcXcXcXcXcXcXcXcXcXcXcXcXcXcXcXcXcXcXcXcXcXcXcXcXcXcXcXcXcXcXcXcXcXcX",
"cXcXcXcXcXcXcXcXcXcXcXcXcXcXcXcXcXcXcXcXcXcXcXcXcXcXcXcXcXcXcXcXcXcXcXcXcXcXcXcXcXcXcXcXcXcXcXcXcXcXcXcXcXcXcXcXcXcXcXcXcXcXcXcX",
"cXcXcXcXcXcXcXcXcXcXcXcXcXcXcXcXcXcXcXcXcXcXcXcXcXcXcXcXcXcXcXcXcXcXcXcXcXcXcXcXcXcXcXcXcXcXcXcXcXcXcXcXcXcXcXcXcXcXcXcXcXcXcXcX",
"cXcXcXcXcXcXcXcXcXcXcXcXcXcXcXcXcXcXcXcXcXcXcXcXcXcXcXcXcXcXcXcXcXcXcXcXcXcXcXcXcXcXcXcXcXcXcXcXcXcXcXcXcXcXcXcXcXcXcXcXcXcXcXcX",
"cXcXcXcXcXcXcXcXcXcXcXcXcXcXcXcXcXcXcXcXcXcXcXcXcXcXcXcXcXcXcXcXcXcXcXcXcXcXcXcXcXcXcXcXcXcXcXcXcXcXcXcXcXcXcXcXcXcXcXcXcXcXcXcX",
"cXcXcXcXcXcXcXcXcXcXcXcXcXcXcXcXcXcXcXcXcXcXcXcXcXcXcXcXcXcXcXcXcXcXcXcXcXcXcXcXcXcXcXcXcXcXcXcXcXcXcXcXcXcXcXcXcXcXcXcXcXcXcXcX",
"cXcXcXcXcXcXcXcXcXcXcXcXcXcXcXcXcXcXcXcXcXcXcXcXcXcXcXcXcXcXcXcXcXcXcXcXcXcXcXcXcXcXcXcXcXcXcXcXcXcXcXcXcXcXcXcXcXcXcXcXcXcXcXcX",
"cXcXcXcXcXcXcXcXcXcXcXcXcXcXcXcXcXcXcXcXcXcXcXcXcXcXcXcXcXcXcXcXcXcXcXcXcXcXcXcXcXcXcXcXcXcXcXcXcXcXcXcXcXcXcXcXcXcXcXcXcXcXcXcX",
"cXcXcXcXcXcXcXcXcXcXcXcXcXcXcXcXcXcXcXcXcXcXcXcXcXcXcXcXcXcXcXcXcXcXcXcXcXcXcXcXcXcXcXcXcXcXcXcXcXcXcXcXcXcXcXcXcXcXcXcXcXcXcXcX",
"cXcXcXcXcXcXcXcXcXcXcXcXcXcXcXcXcXcXcXcXcXcXcXcXcXcXcXcXcXcXcXcXcXcXcXcXcXcXcXcXcXcXcXcXcXcXcXcXcXcXcXcXcXcXcXcXcXcXcXcXcXcXcXcX",
"cXcXcXcXcXcXcXcXcXcXcXcXcXcXcXcXcXcXcXcXcXcXcXcXcXcXcXcXcXcXcXcXcXcXcXcXcXcXcXcXcXcXcXcXcXcXcXcXcXcXcXcXcXcXcXcXcXcXcXcXcXcXcXcX",
"cXcXcXcXcXcXcXcXcXcXcXcXcXcXcXcXcXcXcXcXcXcXcXcXcXcXcXcXcXcXcXcXcXcXcXcXcXcXcXcXcXcXcXcXcXcXcXcXcXcXcXcXcXcXcXcXcXcXcXcXcXcXcXcX",
"cXcXcXcXcXcXcXcXcXcXcXcXcXcXcXcXcXcXcXcXcXcXcXcXcXcXcXcXcXcXcXcXcXcXcXcXcXcXcXcXcXcXcXcXcXcXcXcXcXcXcXcXcXcXcXcXcXcXcXcXcXcXcXcX",
"cXcXcXcXcXcXcXcXcXcXcXcXcXcXcXcXcXcXcXcXcXcXcXcXcXcXcXcXcXcXcXcXcXcXcXcXcXcXcXcXcXcXcXcXcXcXcXcXcXcXcXcXcXcXcXcXcXcXcXcXcXcXcXcX",
"cXcXcXcXcXcXcXcXcXcXcXcXcXcXcXcXcXcXcXcXcXcXcXcXcXcXcXcXcXcXcXcXcXcXcXcXcXcXcXcXcXcXcXcXcXcXcXcXcXcXcXcXcXcXcXcXcXcXcXcXcXcXcXcX",
"cXcXcXcXcXcXcXcXcXcXcXcXcXcXcXcXcXcXcXcXcXcXcXcXcXcXcXcXcXcXcXcXcXcX% % % % * * cXcXcXcXcXcXcXcXcXcXcXcXcXcXcXcXcXcXcXcXcXcXcXcX",
"cXcXcXcXcXcXcXcXcXcXcXcXcXcXcXcXcXcXcXcXcXcXcXcXcXcXcXcXcXcXcXcXcXcXH J L F , * cXcXcXcXcXcXcXcXcXcXcXcXcXcXcXcXcXcXcXcXcXcXcXcX",
"cXcXcXcXcXcXcXcXcXcXcXcXcXcXcXcXcXcXcXcXcXcXcXcXcXcXcXcX& & * 1 cXcXS._.eX-Xn # * * cXcXcXcX[.[.[ + & * cXcXcXcXcXcXcXcXcXcXcXcX",
"cXcXcXcXcXcXcXcXcXcXcXcXcXcXcXcXcXcXcXcXcXcXcXcXcXcXcXI M w : e cXcX=X2XzX5XQ B , * cXcXcXcX[.[.@.m 8 * * cXcXcXcXcXcXcXcXcXcXcX",
"cXcXcXcXcXcXcXcXcXcXcXcXcXcXcXcXcXcXcXcXcX% & * % $.OXJ.m.4.p W (.,XyXaXgXuX0X;XD & > 9 u.OX[.[.D.n.{ % * cXcXcXcXcXcXcXcXcXcXcX",
"cXcXcXcXcXcXcXcXcXcXcXcXcXcXcXcXcXcXcXcXcXN v 2 % $.XX|.#X9.V _ c.~.yXsXgXfXdX6XK ; 3 q i.OX[.[. XOXO.% * cXcXcXcXcXcXcXcXcXcXcX",
"cXcXcXcXcXcXcXcXcXcXcXcXcXcXcXcXcX[.[. X Xb.h.~ + $.+X[.[.P.v.8.C ) oX3XiXpX<XL.A u i k p.OX[.[.[..Xo.% * cXcXcXcXcXcXcXcXcXcXcX",
"cXcXcXcXcXcXcXcXcXcXcXcXcXcXcXcXcX[.[.V.N.T.{.[ + +.J.W.[.|.$Xw.d T !.1XaXtX=XC.E x h z s.OX[.[.[..Xo.% * cXcXcXcXcXcXcXcXcXcXcX",
"cXcXcXcXcXcXcXcXcXcXcXcXcXcXcX[.[.[.^.o . &.+X| @ b G <. X[.OXq.f E E.@X>X:X X/.k.f.S l s.OX[.[.[..Xo.% * cXcXcXcXcXcXcXcXcXcXcX",
"cXcXcXcXcXcXcXcXcXcXcXcXcXcXcX[.[.[.Q.X   ` &XX.< = + X..X[.OXq.f E R.}.'.].[.[.OXP.U j s.OX[.[.[..Xo.% * cXcXcXcXcXcXcXcXcXcXcX",
"cXcXcXcXcXcXcXcXcXcXcXcXcXcXcX[.[.[.`.y.t.M. Xl.d.] + o..X[.OXq.g R Y. X[.[.[.[.|.G.U j s.OX[.[.[..Xo.% * cXcXcXcXcXcXcXcXcXcXcX",
"cXcXcXcXcXcXcXcXcXcXcXcXcXcXcX[.[.[.[.XX+X X[. X*X%.+ o.XX|.OXq.g R Y. X[.[.[.[.|.G.U j a.OX[.[.).'.X.% * cXcXcXcXcXcXcXcXcXcXcX",
"cXcXcXcXcXcXcXcXcXcXcXcXcXcXcX[.[.[.[.[.[.[.[.[.XX#.O =.rX4XOXq.g T I. X[.[.[.[. XG.U f 6.cX[.[.2.! M & * cXcXcXcXcXcXcXcXcXcXcX",
"cXcXcXcXcXcXcXcXcXcXcXcXcXcXcX[.[.[.[.[.[.[.[.[.XX$.O ,.lXwXOXq.g U I. X[.[.[.[.[.F.U d cXcX[.[.' O & * * cXcXcXcXcXcXcXcXcXcXcX",
"cXcXcXcXcXcXcXcXcXcXcXcXcXcXcXcXcX[.[.[.[.[.[.[. Xg.5.B.jXqXOXq.g U U. X[.[.|.H.;._ c f cXcXcXcXcXcXcXcXcXcXcXcXcXcXcXcXcXcXcXcX",
"cXcXcXcXcXcXcXcXcXcXcXcXcXcXcXcXcX[.[.[.[. X.X.X.XXXXX8XhXwX$Xr.g Y U.|.[.[.XXZ.Z a f f cXcXcXcXcXcXcXcXcXcXcXcXcXcXcXcXcXcXcXcX",
"cXcXcXcXcXcXcXcXcXcXcXcXcXcXcXcXcXcXcXcXcX1.X.o...0.[.7XkX%X-.^ d R P.[. XA.$.} r 6 0 0 cXcXcXcXcXcXcXcXcXcXcXcXcXcXcXcXcXcXcXcX",
"cXcXcXcXcXcXcXcXcXcXcXcXcXcXcXcXcXcXcXcXcX+ % % + #.#X9XxXz.s s a T K.[.#Xx.v @ & * * * cXcXcXcXcXcXcXcXcXcXcXcXcXcXcXcXcXcXcXcX",
"cXcXcXcXcXcXcXcXcXcXcXcXcXcXcXcXcXcXcXcXcXcX* * & P $.3.e.*.d S :.7.!.j.>. .7 & * cX* cXcXcXcXcXcXcXcXcXcXcXcXcXcXcXcXcXcXcXcXcX",
"cXcXcXcXcXcXcXcXcXcXcXcXcXcXcXcXcXcXcXcXcXcXcX* * & $ 5 s d s ( [..XcXcX* % * * cXcXcXcXcXcXcXcXcXcXcXcXcXcXcXcXcXcXcXcXcXcXcXcX",
"cXcXcXcXcXcXcXcXcXcXcXcXcXcXcXcXcXcXcXcXcXcXcXcX* * * 4 t y s / /.cXcXcX- * * * cXcXcXcXcXcXcXcXcXcXcXcXcXcXcXcXcXcXcXcXcXcXcXcX",
"cXcXcXcXcXcXcXcXcXcXcXcXcXcXcXcXcXcXcXcXcXcXcXcXcXcXcXcX* * cXcXcXcXcXcXcXcXcXcXcXcXcXcXcXcXcXcXcXcXcXcXcXcXcXcXcXcXcXcXcXcXcXcX",
"cXcXcXcXcXcXcXcXcXcXcXcXcXcXcXcXcXcXcXcXcXcXcXcXcXcXcXcX* cXcXcXcXcXcXcXcXcXcXcXcXcXcXcXcXcXcXcXcXcXcXcXcXcXcXcXcXcXcXcXcXcXcXcX",
"cXcXcXcXcXcXcXcXcXcXcXcXcXcXcXcXcXcXcXcXcXcXcXcXcXcXcXcXcXcXcXcXcXcXcXcXcXcXcXcXcXcXcXcXcXcXcXcXcXcXcXcXcXcXcXcXcXcXcXcXcXcXcXcX",
"cXcXcXcXcXcXcXcXcXcXcXcXcXcXcXcXcXcXcXcXcXcXcXcXcXcXcXcXcXcXcXcXcXcXcXcXcXcXcXcXcXcXcXcXcXcXcXcXcXcXcXcXcXcXcXcXcXcXcXcXcXcXcXcX",
"cXcXcXcXcXcXcXcXcXcXcXcXcXcXcXcXcXcXcXcXcXcXcXcXcXcXcXcXcXcXcXcXcXcXcXcXcXcXcXcXcXcXcXcXcXcXcXcXcXcXcXcXcXcXcXcXcXcXcXcXcXcXcXcX",
"cXcXcXcXcXcXcXcXcXcXcXcXcXcXcXcXcXcXcXcXcXcXcXcXcXcXcXcXcXcXcXcXcXcXcXcXcXcXcXcXcXcXcXcXcXcXcXcXcXcXcXcXcXcXcXcXcXcXcXcXcXcXcXcX",
"cXcXcXcXcXcXcXcXcXcXcXcXcXcXcXcXcXcXcXcXcXcXcXcXcXcXcXcXcXcXcXcXcXcXcXcXcXcXcXcXcXcXcXcXcXcXcXcXcXcXcXcXcXcXcXcXcXcXcXcXcXcXcXcX",
"cXcXcXcXcXcXcXcXcXcXcXcXcXcXcXcXcXcXcXcXcXcXcXcXcXcXcXcXcXcXcXcXcXcXcXcXcXcXcXcXcXcXcXcXcXcXcXcXcXcXcXcXcXcXcXcXcXcXcXcXcXcXcXcX",
"cXcXcXcXcXcXcXcXcXcXcXcXcXcXcXcXcXcXcXcXcXcXcXcXcXcXcXcXcXcXcXcXcXcXcXcXcXcXcXcXcXcXcXcXcXcXcXcXcXcXcXcXcXcXcXcXcXcXcXcXcXcXcXcX",
"cXcXcXcXcXcXcXcXcXcXcXcXcXcXcXcXcXcXcXcXcXcXcXcXcXcXcXcXcXcXcXcXcXcXcXcXcXcXcXcXcXcXcXcXcXcXcXcXcXcXcXcXcXcXcXcXcXcXcXcXcXcXcXcX",
"cXcXcXcXcXcXcXcXcXcXcXcXcXcXcXcXcXcXcXcXcXcXcXcXcXcXcXcXcXcXcXcXcXcXcXcXcXcXcXcXcXcXcXcXcXcXcXcXcXcXcXcXcXcXcXcXcXcXcXcXcXcXcXcX",
"cXcXcXcXcXcXcXcXcXcXcXcXcXcXcXcXcXcXcXcXcXcXcXcXcXcXcXcXcXcXcXcXcXcXcXcXcXcXcXcXcXcXcXcXcXcXcXcXcXcXcXcXcXcXcXcXcXcXcXcXcXcXcXcX",
"cXcXcXcXcXcXcXcXcXcXcXcXcXcXcXcXcXcXcXcXcXcXcXcXcXcXcXcXcXcXcXcXcXcXcXcXcXcXcXcXcXcXcXcXcXcXcXcXcXcXcXcXcXcXcXcXcXcXcXcXcXcXcXcX",
"cXcXcXcXcXcXcXcXcXcXcXcXcXcXcXcXcXcXcXcXcXcXcXcXcXcXcXcXcXcXcXcXcXcXcXcXcXcXcXcXcXcXcXcXcXcXcXcXcXcXcXcXcXcXcXcXcXcXcXcXcXcXcXcX",
"cXcXcXcXcXcXcXcXcXcXcXcXcXcXcXcXcXcXcXcXcXcXcXcXcXcXcXcXcXcXcXcXcXcXcXcXcXcXcXcXcXcXcXcXcXcXcXcXcXcXcXcXcXcXcXcXcXcXcXcXcXcXcXcX",
"cXcXcXcXcXcXcXcXcXcXcXcXcXcXcXcXcXcXcXcXcXcXcXcXcXcXcXcXcXcXcXcXcXcXcXcXcXcXcXcXcXcXcXcXcXcXcXcXcXcXcXcXcXcXcXcXcXcXcXcXcXcXcXcX",
"cXcXcXcXcXcXcXcXcXcXcXcXcXcXcXcXcXcXcXcXcXcXcXcXcXcXcXcXcXcXcXcXcXcXcXcXcXcXcXcXcXcXcXcXcXcXcXcXcXcXcXcXcXcXcXcXcXcXcXcXcXcXcXcX",
"cXcXcXcXcXcXcXcXcXcXcXcXcXcXcXcXcXcXcXcXcXcXcXcXcXcXcXcXcXcXcXcXcXcXcXcXcXcXcXcXcXcXcXcXcXcXcXcXcXcXcXcXcXcXcXcXcXcXcXcXcXcXcXcX",
"cXcXcXcXcXcXcXcXcXcXcXcXcXcXcXcXcXcXcXcXcXcXcXcXcXcXcXcXcXcXcXcXcXcXcXcXcXcXcXcXcXcXcXcXcXcXcXcXcXcXcXcXcXcXcXcXcXcXcXcXcXcXcXcX",
"cXcXcXcXcXcXcXcXcXcXcXcXcXcXcXcXcXcXcXcXcXcXcXcXcXcXcXcXcXcXcXcXcXcXcXcXcXcXcXcXcXcXcXcXcXcXcXcXcXcXcXcXcXcXcXcXcXcXcXcXcXcXcXcX",
"cXcXcXcXcXcXcXcXcXcXcXcXcXcXcXcXcXcXcXcXcXcXcXcXcXcXcXcXcXcXcXcXcXcXcXcXcXcXcXcXcXcXcXcXcXcXcXcXcXcXcXcXcXcXcXcXcXcXcXcXcXcXcXcX",
"cXcXcXcXcXcXcXcXcXcXcXcXcXcXcXcXcXcXcXcXcXcXcXcXcXcXcXcXcXcXcXcXcXcXcXcXcXcXcXcXcXcXcXcXcXcXcXcXcXcXcXcXcXcXcXcXcXcXcXcXcXcXcXcX"
};
