/* XPM */
static char *result[] = {
/* columns rows colors chars-per-pixel */
"16 16 21 1 ",
"  c #1F2123",
". c #1F2223",
"X c #1F2024",
"o c #1F2124",
"O c #1F2125",
"+ c #1F2224",
"@ c #1F2225",
"# c #202023",
"$ c #212023",
"% c #202123",
"& c #212123",
"* c #202223",
"= c #202024",
"- c #212024",
"; c #202124",
": c #212124",
"> c #202025",
", c #202125",
"< c #212125",
"1 c #202224",
"2 c #212224",
/* pixels */
";1o1o;:=:=1=;;%1",
"1=;;,o1;11;+,o>@",
",%;,&%;oX:;;-1--",
",O;+oo#;1=;.;O1;",
";%;%%;<;o;,;;<*;",
"o;;,:,+#;;$;;:1;",
";;* ##1;o1;o:;;o",
"1:;;2,:;;=;;%;%<",
"o;=;;;o;-,o;:@=:",
"=,%; :@=;;=;;;;;",
";o;%,1&,#1<1;:%;",
"1,;;X;;o;;%>oX:;",
";;%;;;,2;;%;;%2,",
"-,1;;;1=%<+=;;o;",
"o%%O;;,;;.;:+%=:",
";2,;;&;%;=>;;;;*"
};
