/* XPM */
static char *result[] = {
/* columns rows colors chars-per-pixel */
"64 64 212 2 ",
"   c #010000",
".  c #0C0503",
"X  c #000903",
"o  c #0A0C04",
"O  c #0A090A",
"+  c #130605",
"@  c #140805",
"#  c #1A0A06",
"$  c #1F0A08",
"%  c #081509",
"&  c #121509",
"*  c #141A0D",
"=  c #191B09",
"-  c #141914",
";  c #210B08",
":  c #2D0E0C",
">  c #240B07",
",  c #231208",
"<  c #2C140B",
"1  c #2E190F",
"2  c #34110C",
"3  c #3F140D",
"4  c #331210",
"5  c #00200C",
"6  c #1D210A",
"7  c #062913",
"8  c #1B2515",
"9  c #182718",
"0  c #003D16",
"q  c #093D18",
"w  c #163B19",
"e  c #23280A",
"r  c #242B13",
"t  c #262B1B",
"y  c #2C3417",
"u  c #303718",
"i  c #3A300F",
"p  c #353B24",
"a  c #4A170F",
"s  c #4A1913",
"d  c #461C17",
"f  c #521B14",
"g  c #5B1E14",
"h  c #5F1F18",
"j  c #462411",
"k  c #542519",
"l  c #5B2417",
"z  c #583015",
"x  c #642119",
"c  c #6B241A",
"v  c #662115",
"b  c #74261B",
"n  c #7B281C",
"m  c #792618",
"M  c #6B391A",
"N  c #004419",
"B  c #094119",
"V  c #05491D",
"C  c #0A4C1C",
"Z  c #1E591D",
"A  c #16531C",
"S  c #144B1A",
"D  c #225B1C",
"F  c #295E1C",
"G  c #304418",
"H  c #2D621E",
"J  c #33661E",
"K  c #3C6B1E",
"L  c #075A29",
"P  c #155423",
"I  c #1E5923",
"U  c #175629",
"Y  c #195728",
"T  c #1F5B2A",
"R  c #195622",
"E  c #124722",
"W  c #2D492A",
"Q  c #2B4627",
"!  c #354A26",
"~  c #205D25",
"^  c #225D28",
"/  c #335531",
"(  c #365F22",
")  c #28632A",
"_  c #346823",
"`  c #3C6D22",
"'  c #336828",
"]  c #3C722C",
"[  c #37702E",
"{  c #2B6533",
"}  c #346B35",
"|  c #3C6A38",
" . c #3B713E",
".. c #485416",
"X. c #4E5215",
"o. c #58671A",
"O. c #45711F",
"+. c #406E1F",
"@. c #6A7A1E",
"#. c #434E22",
"$. c #4A5625",
"%. c #57652C",
"&. c #4A7522",
"*. c #4D7823",
"=. c #49782A",
"-. c #537B22",
";. c #567F2E",
":. c #476D3D",
">. c #586B32",
",. c #4B7C34",
"<. c #487A37",
"1. c #537F36",
"2. c #547B3B",
"3. c #4D6122",
"4. c #637433",
"5. c #697B34",
"6. c #6C7E21",
"7. c #3D7741",
"8. c #427642",
"9. c #4C7D46",
"0. c #4C7E49",
"q. c #547F41",
"w. c #832A1C",
"e. c #8C2D1D",
"r. c #932F1E",
"t. c #95311F",
"y. c #9B311F",
"u. c #913C1F",
"i. c #9F3420",
"p. c #983C21",
"a. c #A43C22",
"s. c #894521",
"d. c #934522",
"f. c #AE4A27",
"g. c #B14B27",
"h. c #B54D28",
"j. c #AB5B2A",
"k. c #A55227",
"l. c #B55E2B",
"z. c #BA552B",
"x. c #B9632D",
"c. c #C6652F",
"v. c #70811F",
"b. c #5D8122",
"n. c #5F872D",
"m. c #5B883A",
"M. c #4D8035",
"N. c #628523",
"B. c #6B8B24",
"V. c #688A2A",
"C. c #778822",
"Z. c #759226",
"A. c #7B9526",
"S. c #7B972F",
"D. c #7E992D",
"F. c #799529",
"G. c #628835",
"H. c #638A3C",
"J. c #698E3A",
"K. c #6C8934",
"L. c #73873A",
"P. c #6C933A",
"I. c #719235",
"U. c #7A9731",
"Y. c #7A9638",
"T. c #518145",
"R. c #5B8641",
"E. c #538449",
"W. c #5B8947",
"Q. c #6A9643",
"!. c #779943",
"~. c #7CA345",
"^. c #78A54A",
"/. c #849B26",
"(. c #8A9F27",
"). c #849C2B",
"_. c #899F28",
"`. c #819425",
"'. c #849A3B",
"]. c #8BA027",
"[. c #8DA229",
"{. c #91A72E",
"}. c #93A82E",
"|. c #89A63C",
" X c #94AC33",
".X c #94AD3B",
"XX c #9BB33C",
"oX c #99B137",
"OX c #869D43",
"+X c #89A848",
"@X c #8CB24C",
"#X c #9CB742",
"$X c #98B24E",
"%X c #95B64A",
"&X c #9CBB51",
"*X c #97B753",
"=X c #8AAB50",
"-X c #A3BD46",
";X c #A1BC49",
":X c #A3BE52",
">X c #9FC057",
",X c #A6C14B",
"<X c #A9C44D",
"1X c #A4C355",
"2X c #AAC651",
"3X c #ADC953",
"4X c #AECC59",
"5X c #A7C659",
"6X c #B0CE5B",
"7X c #B0CD56",
"8X c #B3D15B",
"9X c None",
/* pixels */
"9X9X9X9X9X9X9X9X9X9X9X9X9X9X9X9X9X9X9X9X9X9X9X9X9X9X9X9X9X9X9X9X9X9X9X9X9X9X9X9X9X9X9X9X9X9X9X9X9X9X9X9X9X9X9X9X9X9X9X9X9X9X9X9X",
"9X9X9X9X9X9X9X9X9X9X9X9X9X9X9X9X9X9X9X9X9X9X9X9X9X9X9X9X9X9X9X9X9X9X9X9X9X9X9X9X9X9X9X9X9X9X9X9X9X9X9X9X9X9X9X9X9X9X9X9X9X9X9X9X",
"9X9X9X9X9X9X9X9X9X9X9X9X9X9X9X9X9X9X9X9X9X9X9X9X9X9X9X9X9X9X9X9X9X9X9X9X9X9X9X9X9X9X9X9X9X9X9X9X9X9X9X9X9X9X9X9X9X9X9X9X9X9X9X9X",
"9X9X9X9X9X9X9X9X9X9X9X9X9X9X9X9X9X9X9X9X9X9X9X9X9X9X9X9X9X9X9X9X9X9X9X9X9X9X9X9X9X9X9X9X9X9X9X9X9X9X9X9X9X9X9X9X9X9X9X9X9X9X9X9X",
"9X9X9X9X9X9X9X9X9X9X9X9X9X9X9X9X9X9X9X9X9X9X9X9X9X9X9X9X9X9X9X9X9X9X9X9X9X9X9X9X9X9X9X9X9X9X9X9X9X9X9X9X9X9X9X9X9X9X9X9X9X9X9X9X",
"9X9X9X9X9X9X9X9X9X9X9X9X9X9X9X9X9X9X9X9X9X9X9X9X9X9X9X9X9X9X9X9X9X9X9X9X9X9X9X9X9X9X9X9X9X9X9X9X9X9X9X9X9X9X9X9X9X9X9X9X9X9X9X9X",
"9X9X9X9X9X9X9X9X9X9X9X9X9X9X9X9X9X9X9X9X9X9X9X9X9X9X9X9X9X9X9X9X9X9X9X9X9X9X9X9X9X9X9X9X9X9X9X9X9X9X9X9X9X9X9X9X9X9X9X9X9X9X9X9X",
"9X9X9X9X9X9X9X9X9X9X9X9X9X9X9X9X9X9X9X9X9X9X9X9X9X9X9X9X9X9X9X9X9X9X9X9X9X9X9X9X9X9X9X9X9X9X9X9X9X9X9X9X9X9X9X9X9X9X9X9X9X9X9X9X",
"9X9X9X9X9X9X9X9X9X9X9X9X9X9X9X9X9X9X9X9X9X9X9X9X9X9X9X9X9X9X9X9X9X9X9X9X9X9X9X9X9X9X9X9X9X9X9X9X9X9X9X9X9X9X9X9X9X9X9X9X9X9X9X9X",
"9X9X9X9X9X9X9X9X9X9X9X9X9X9X9X9X9X9X9X9X9X9X9X9X9X9X9X9X9X9X9X9X9X9X9X9X9X9X9X9X9X9X9X9X9X9X9X9X9X9X9X9X9X9X9X9X9X9X9X9X9X9X9X9X",
"9X9X9X9X9X9X9X9X9X9X9X9X9X9X9X9X9X9X9X9X9X9X9X9X9X9X9X9X9X9X9X& & & & & & & 9X9X9X9X9X9X9X9X9X9X9X9X9X9X9X9X9X9X9X9X9X9X9X9X9X9X",
"9X9X9X9X9X9X9X9X9X9X9X9X9X9X9X9X9X9X9X9X9X9X9X9X9X9X9X      & +X$X$X$X$X$X+Xr 9X9X9X9X9X9X9X9X9X9X9X9X9X9X9X9X9X9X9X9X9X9X9X9X9X",
"9X9X9X9X9X9X9X9X9X9X9X9X9X9X9X9X9X9X9X9X9X9X9X9X9X9X- Q 7 G 5..XXXXXXXXX#XXXL.#.9X9X9X9X9X9X9X9X9X9X9X9X9X9X9X9X9X9X9X9X9X9X9X9X",
"9X9X9X9X9X9X9X9X9X9X9X9X9X9X9X9X9X9X9X9X9X9X9X9X9XX 9  .Z m.2X X[.[.(.(.(.).&X>.  9X9X9X9X9X9X9X9X9X9X9X9X9X9X9X9X9X9X9X9X9X9X9X",
"9X9X9X9X9X9X9X9X9X9X9X9X9X9X9X9X9X9X9X9X9X9X9X9X  0 N C B.(. X2XXX(.[.].U.T.E.W   9X9X9X9X9X9X9X9X9X9X9X9X9X9X9X9X9X9X9X9X9X9X9X",
"9X9X9X9X9X9X9X9X9X9X9X9X9X9X9X9X9X9X9X9X9X9X9X8 L.P.~.~.` -.[. X X(.(.[.B.Y U ( o.@     9X9X9X9X9X9X9X9X9X9X9X9X9X9X9X9X9X9X9X9X",
"9X9X9X9X9X9X9X9X9X9X9X9X9X9X9X9X9X9X9X9X9X9Xe ..&X&X*X=X{ =.(.(.).S.(.B.*.F F -./.u 8 9 9X9X9X9X9X9X9X9X9X9X9X9X9X9X9X9X9X9X9X9X",
"9X9X9X9X9X9X9X9X9X9X9X9X9X9X9X9X9X9X9X9X9X  ..).[.m.9.9.9.J.[.].J.R._.H J (.(.(.]./.G.| o o O 9X9X9X9X9X9X9X9X9X9X9X9X9X9X9X9X9X",
"9X9X9X9X9X9X9X9X9X9X9X9X9X9X9X9X9X9X9X9X9X  ! P.]._ C L 7.J.].(.).).(.1.1.(.(.{.`.H } q.B.'.5.  9X9X9X9X9X9X9X9X9X9X9X9X9X9X9X9X",
"9X9X9X9X9X9X9X9X9X9X9X9X9X9X9X9X9X9X9X9X9X  W T.-.=.<.M.} ;.].[._._.(.I.I.(.(.(.`.O.' | K.#X'.$.6 9X9X9X9X9X9X9X9X9X9X9X9X9X9X9X",
"9X9X9X9X9X9X9X9X9X9X9X9X9X9X9X9X9X9X9X9X9X& !  .R ~.7X,X_ O.].].[.(.[.(.(.(.{.[.].].O.A 7.I.oX1Xr   9X9X9X9X9X9X9X9X9X9X9X9X9X9X",
"9X9X9X9X9X9X9X9X9X9X9X9X9X9X9X9X9X9X9X9X* +X<.) @X.X{.{.A.A.].].[.(.[.].(.[.;X-X].]./.N.P b.oX2Xr   9X9X9X9X9X9X9X9X9X9X9X9X9X9X",
"9X9X9X9X9X9X9X9X9X9X9X9X9X9X9X9X9X9X9X9X= |.] Z XX{.].].[.B.` ` K K K Z.(.[.oX X[.(.U.M.V @.{.XXL.#.9X9X9X9X9X9X9X9X9X9X9X9X9X9X",
"9X9X9X9X9X9X9X9X9X9X9X9X9X9X9X9X9X9X9Xt ! `.O.J A.].].].Z.*.~ ~ ) ~ ~ -.Z.).).).(.[.P.,.D B.(.[.3X4.  9X9X9X9X9X9X9X9X9X9X9X9X9X",
"9X9X9X9X9X9X9X9X9X9X9X9X9X9X9X9X9X.   #.;X{././.[.(.[./.Z M.5X1X1X1X1X] I T.E.J.(.(.(._./.(.(.[.2X4.  9X9X9X9X9X9X9X9X9X9X9X9X9X",
"9X9X9X9X9X9X9X9X9X9X9X9X9X9X9X9Xu L.L.'. X{.(.(.(.[.C.J H.|.XXoXoXoXoX~.m.T G.D.[._.[.(.(.(.(./...u 9X9X9X9X9X9X9X9X9X9X9X9X9X9X",
"9X9X9X9X9X9X9X9X9X9X9X9X9X9X9Xy %.,X2XXX(.(.(.[.[.[.b.C @X-X(.(.(.(.].<X^.L n.S.U._.(.[.(.(.]./.6   9X9X9X9X9X9X9X9X9X9X9X9X9X9X",
"9X9X9X9X9X9X9X9X9X9X9X9X9X9Xo L.-X[.[.[.(.[.(.(.].[.b.A @X#X].].].].].-X^.L  .T.R.)._._.(.(.]./.e O 9X9X9X9X9X9X9X9X9X9X9X9X9X9X",
"9X9X9X9X9X9X9X9X9X9X9X9X9X6 @.(.}.[.].].(.].(.(.].]./.B.' *.].].].].].] R V  .H.S.m.R.<.Z B.[.[.+X%.    9X9X9X9X9X9X9X9X9X9X9X9X",
"9X9X9X9X9X9X9X9X9X9X9X9X  6 (.].A.-.-.B.[.].(.).I.I.S.(.&.b.].].].].].n.M.M.} M.I.J.H.H.,.*.N.[.<XOX#.$.u 9X9X9X9X9X9X9X9X9X9X9X",
"9X9X9X9X9X9X9X9X9X9X9X9X  6 C.A.-.V V K A.].(.U.W.E.J.].[.[.].].].].].,X6X5X[ { 9./.]. X2X] J /.1X6X8X8X%.& 9X9X9X9X9X9X9X9X9X9X",
"9X9X9X9X9X9X9X9X9X9X9X9X9X9X& w ^ 8.8.{ D A.J.Q.>X1X&X[.,X#X].].].].].{.XX6X>Xm.A A.].[.}.%XQ.Z @X8X6X6X:X!.o 9X9X9X9X9X9X9X9X9X",
"9X9X9X9X9X9X9X9X9X9X9X9X9X9X. E 9.^.Y.,.} m.!.+X#X#X|.I..XoX[.(.].].].].{.XX=Xm.*.(.].].].<X~.C @X8X7X6X8X+X@ 9X9X9X9X9X9X9X9X9X",
"9X9X9X9X9X9X9X9X9X9X9X9X9X9Xr :.^.<X}.I.7.W.=X,X].[.U.R.).(.(.[.].].].Z.Z.S.R.H.).D.D.D.D.+XQ.) @X3X6X2X3X'.o 9X9X9X9X9X9X9X9X9X",
"9X9X9X9X9X9X9X9X9X9X9X9X  r &X5X;X[.].O.Y *XXX].].].(._.(.(.(.(.].].].H Y T.T.T.T.9.T.T.T.I [ 1X XXX3X{.[.C.o 9X9X9X9X9X9X9X9X9X",
"9X9X9X9X9X9X9X9X9X9X9X  $.'..XoX X(.K M.~..X{.].].].[.(.[.(.(.(.].].].=.{ U U U Y Y Y Y Y &.Z..X[.{..X[.[.@.o 9X9X9X9X9X9X9X9X9X",
"9X9X9X9X9X9X9X9X9X9X9X  >.&X[.).D.A.A ,.,X].].].].C.B.].U.)._.U.U.D.).H. .P P Y D D F D H B.[.].].].].].[.v.o 9X9X9X9X9X9X9X9X9X",
"9X9X9X9X9X9X9X9X9X9X9X  W W./.R.H./.Z K ]././././.( H /.R.J.).q.9.R._.H.0.0.9.m././././.A././.(./.].].].].@.o 9X9X9X9X9X9X9X9X9X",
"9X9X9X9X9X9X9X9X9X9X9X  W E.R.q.H.].Z.O.Z H D D D O.V.R.0.W.2.8 3.).].H.0.9.T R D D D D D D D D Z O.[.[.o.=   9X9X9X9X9X9X9X9X9X",
"9X9X9X9X9X9X9X9X9X9X9X  t / 0.0.,.-./.B.J D w E =.|.+X9./ W W G ..o.*.[ { { V N N N N N N N N N [ P.oXo.6     9X9X9X9X9X9X9X9X9X",
"9X9X9X9X9X9X9X9X9X9X9X9X  - 8.8.{ V N./.A.o.u ! &X:X=X8.- . $ C.X.o q q q B B q 0 0 0 0 0 0 0 B !.1X+X*     9X9X9X9X9X9X9X9X9X9X",
"9X9X9X9X9X9X9X9X9X9X9X9X9X9X% q V V C S S 8 9X9Xt t t 9 d f f p.e.m k k k f k 1 X X X X X X X X * 6 = 9X9X9X9X9X9X9X9X9X9X9X9X9X",
"9X9X9X9X9X9X9X9X9X9X9X9X9X9X9X% 5 5 5 7 7 - 9X9XO 1 d l n b x r.e.b x l f : : : 2     9X9X9X9X9X9X9X9X9X9X9X9X9X9X9X9X9X9X9X9X9X",
"9X9X9X9X9X9X9X9X9X9X9X9X9X9X9X        O - 9X9X9X  2 x a.i.e.b e.n c c c f # $ 2 s O 9X9X9X9X9X9X9X9X9X9X9X9X9X9X9X9X9X9X9X9X9X9X",
"9X9X9X9X9X9X9X9X9X9X9X9X9X9X9X9X9X9X9X9X9X9X9X9X9X  j c.a.y.e.c w.r.t.y.r.e.r.f . 9X9X9X9X9X9X9X9X9X9X9X9X9X9X9X9X9X9X9X9X9X9X9X",
"9X9X9X9X9X9X9X9X9X9X9X9X9X9X9X9X9X9X9X9X9X9X9X9X9X9X, k k.g.y.v w.r.b r.y.y.i.w.g + 9X9X9X9X9X9X9X9X9X9X9X9X9X9X9X9X9X9X9X9X9X9X",
"9X9X9X9X9X9X9X9X9X9X9X9X9X9X9X9X9X9X9X9X9X9X9X9X9X9X9X. j.z.r.m e.e.x w.y.y.y.a.p.@ 9X9X9X9X9X9X9X9X9X9X9X9X9X9X9X9X9X9X9X9X9X9X",
"9X9X9X9X9X9X9X9X9X9X9X9X9X9X9X9X9X9X9X9X9X9X9X9X9X9X9X+ j.z.y.t.y.e.x e.y.y.y.h.l.# 9X9X9X9X9X9X9X9X9X9X9X9X9X9X9X9X9X9X9X9X9X9X",
"9X9X9X9X9X9X9X9X9X9X9X9X9X9X9X9X9X9X9X9X9X9X9X9X9X9X9X. j.z.y.b w.r.h e.y.y.y.h.x.# 9X9X9X9X9X9X9X9X9X9X9X9X9X9X9X9X9X9X9X9X9X9X",
"9X9X9X9X9X9X9X9X9X9X9X9X9X9X9X9X9X9X9X9X9X9X9X9X9X9X9X. d.g.r.n e.e.x w.y.y.y.h.x.# 9X9X9X9X9X9X9X9X9X9X9X9X9X9X9X9X9X9X9X9X9X9X",
"9X9X9X9X9X9X9X9X9X9X9X9X9X9X9X9X9X9X9X9X9X9X9X9X9X9X9X$ w.y.t.e.y.e.c e.y.y.y.g.x.1 . 9X9X9X9X9X9X9X9X9X9X9X9X9X9X9X9X9X9X9X9X9X",
"9X9X9X9X9X9X9X9X9X9X9X9X9X9X9X9X9X9X9X9X9X9X9X9X9X  1 x.a.y.e.> h i.r.y.y.i.y.i.f.l.z   9X9X9X9X9X9X9X9X9X9X9X9X9X9X9X9X9X9X9X9X",
"9X9X9X9X9X9X9X9X9X9X9X9X9X9X9X9X9X9X9X9X9X9X9X    z s.g.l a s f a g t.y.w.a b e.t.g.d.z .   9X9X9X9X9X9X9X9X9X9X9X9X9X9X9X9X9X9X",
"9X9X9X9X9X9X9X9X9X9X9X9X9X9X9X9X9X9X9X9X9X9X, , @ d.h.n ; . $ w.a + e.r.c @ 3 c e.r.g.k.> # # 9X9X9X9X9X9X9X9X9X9X9X9X9X9X9X9X9X",
"9X9X9X9X9X9X9X9X9X9X9X9X9X9X9X9X9X9X9X9X9X  M l.l x s @ s g g x : + h x h f # < x x x b e.r.v   9X9X9X9X9X9X9X9X9X9X9X9X9X9X9X9X",
"9X9X9X9X9X9X9X9X9X9X9X9X9X9X9X9X9X9X9X9X9X  , j , ; @   @ ; $ $ +   $ > ; ;   . ; ; $ ; 2 2 >   9X9X9X9X9X9X9X9X9X9X9X9X9X9X9X9X",
"9X9X9X9X9X9X9X9X9X9X9X9X9X9X9X9X9X9X9X9X9X                                                      9X9X9X9X9X9X9X9X9X9X9X9X9X9X9X9X",
"9X9X9X9X9X9X9X9X9X9X9X9X9X9X9X9X9X9X9X9X9X9X9X9X9X9X9X9X9X9X9X9X9X9X9X9X9X9X9X9X9X9X9X9X9X9X9X9X9X9X9X9X9X9X9X9X9X9X9X9X9X9X9X9X",
"9X9X9X9X9X9X9X9X9X9X9X9X9X9X9X9X9X9X9X9X9X9X9X9X9X9X9X9X9X9X9X9X9X9X9X9X9X9X9X9X9X9X9X9X9X9X9X9X9X9X9X9X9X9X9X9X9X9X9X9X9X9X9X9X",
"9X9X9X9X9X9X9X9X9X9X9X9X9X9X9X9X9X9X9X9X9X9X9X9X9X9X9X9X9X9X9X9X9X9X9X9X9X9X9X9X9X9X9X9X9X9X9X9X9X9X9X9X9X9X9X9X9X9X9X9X9X9X9X9X",
"9X9X9X9X9X9X9X9X9X9X9X9X9X9X9X9X9X9X9X9X9X9X9X9X9X9X9X9X9X9X9X9X9X9X9X9X9X9X9X9X9X9X9X9X9X9X9X9X9X9X9X9X9X9X9X9X9X9X9X9X9X9X9X9X",
"9X9X9X9X9X9X9X9X9X9X9X9X9X9X9X9X9X9X9X9X9X9X9X9X9X9X9X9X9X9X9X9X9X9X9X9X9X9X9X9X9X9X9X9X9X9X9X9X9X9X9X9X9X9X9X9X9X9X9X9X9X9X9X9X",
"9X9X9X9X9X9X9X9X9X9X9X9X9X9X9X9X9X9X9X9X9X9X9X9X9X9X9X9X9X9X9X9X9X9X9X9X9X9X9X9X9X9X9X9X9X9X9X9X9X9X9X9X9X9X9X9X9X9X9X9X9X9X9X9X",
"9X9X9X9X9X9X9X9X9X9X9X9X9X9X9X9X9X9X9X9X9X9X9X9X9X9X9X9X9X9X9X9X9X9X9X9X9X9X9X9X9X9X9X9X9X9X9X9X9X9X9X9X9X9X9X9X9X9X9X9X9X9X9X9X"
};
