/* XPM */
static char *result[] = {
/* columns rows colors chars-per-pixel */
"64 64 209 2 ",
"   c #010100",
".  c #0B0403",
"X  c #020D05",
"o  c #0A0C05",
"O  c #140605",
"+  c #190907",
"@  c #190807",
"#  c #031B0B",
"$  c #081208",
"%  c #191D0D",
"&  c #19170B",
"*  c #101D10",
"=  c #210D08",
"-  c #290D09",
";  c #220B07",
":  c #28150A",
">  c #32120C",
",  c #3C130D",
"<  c #371C0E",
"1  c #3D1410",
"2  c #01240D",
"3  c #0F200D",
"4  c #19210B",
"5  c #002E11",
"6  c #152314",
"7  c #162A14",
"8  c #003714",
"9  c #212609",
"0  c #242A0A",
"q  c #3B200E",
"w  c #2B370E",
"e  c #232612",
"r  c #2C3417",
"t  c #303819",
"y  c #44160E",
"u  c #451711",
"i  c #4A1912",
"p  c #561B13",
"a  c #591D17",
"s  c #5D1F18",
"d  c #621F14",
"f  c #5F2119",
"g  c #512A13",
"h  c #642119",
"j  c #6A2218",
"k  c #72251A",
"l  c #79271C",
"z  c #7E291C",
"x  c #683819",
"c  c #01451A",
"v  c #06481B",
"b  c #0A4B1C",
"n  c #064017",
"m  c #14511C",
"M  c #1E581D",
"N  c #1A551C",
"B  c #1A4615",
"V  c #3A4411",
"C  c #3A441D",
"Z  c #384617",
"A  c #235C1E",
"S  c #2C5C1B",
"D  c #2C621E",
"F  c #33661E",
"G  c #3C6C1F",
"H  c #0D4D21",
"J  c #174723",
"K  c #145323",
"L  c #1A5827",
"P  c #284226",
"I  c #274126",
"U  c #235E25",
"Y  c #295F2E",
"T  c #33522F",
"R  c #245F30",
"E  c #385832",
"W  c #246027",
"Q  c #2A632D",
"!  c #2D6220",
"~  c #3A6C22",
"^  c #346B29",
"/  c #3C712B",
"(  c #2C6533",
")  c #346B32",
"_  c #336B38",
"`  c #346B36",
"'  c #3E723B",
"]  c #414C16",
"[  c #4C5A19",
"{  c #515D17",
"}  c #66531A",
"|  c #4F6C1D",
" . c #68791E",
".. c #78651E",
"X. c #495525",
"o. c #475623",
"O. c #404B21",
"+. c #57652C",
"@. c #457221",
"#. c #4F7924",
"$. c #48762B",
"%. c #557C22",
"&. c #5B7C25",
"*. c #436A3B",
"=. c #466B33",
"-. c #467A33",
";. c #497B35",
":. c #537034",
">. c #657734",
",. c #3E7340",
"<. c #427541",
"1. c #457943",
"2. c #4B7C46",
"3. c #4D7E48",
"4. c #507F47",
"5. c #842A1C",
"6. c #8D2D1E",
"7. c #942F1E",
"8. c #982F1E",
"9. c #89381E",
"0. c #97301F",
"q. c #9B311F",
"w. c #8A3B21",
"e. c #9D3320",
"r. c #A33922",
"t. c #894921",
"y. c #884221",
"u. c #9C5326",
"i. c #984B24",
"p. c #AB4325",
"a. c #AB4A26",
"s. c #AE542A",
"d. c #BA572B",
"f. c #BA632D",
"g. c #C25B2D",
"h. c #CB6B31",
"j. c #C4622E",
"k. c #5E8323",
"l. c #5A812B",
"z. c #55833A",
"x. c #5C863D",
"c. c #5C8C3B",
"v. c #508233",
"b. c #4C8035",
"n. c #628524",
"m. c #6B8B24",
"M. c #68872A",
"N. c #718F24",
"B. c #7C8E23",
"V. c #7B9425",
"C. c #7B972D",
"Z. c #7E992E",
"A. c #759127",
"S. c #6C8E35",
"D. c #638B3C",
"F. c #6A8E3A",
"G. c #698637",
"H. c #74883C",
"J. c #738539",
"K. c #6F9136",
"L. c #68923D",
"P. c #739333",
"I. c #77963A",
"U. c #548245",
"Y. c #5A8542",
"T. c #5A8849",
"R. c #628C44",
"E. c #699644",
"W. c #7E9441",
"Q. c #719841",
"!. c #75A045",
"~. c #7AA14C",
"^. c #79A349",
"/. c #78A151",
"(. c #849B26",
"). c #899F26",
"_. c #849C2A",
"`. c #899F29",
"'. c #849D31",
"]. c #84993B",
"[. c #8CA027",
"{. c #8DA229",
"}. c #91A72D",
"|. c #94AB33",
" X c #94AE3A",
".X c #9BB43C",
"XX c #97B039",
"oX c #87A83E",
"OX c #809641",
"+X c #89A945",
"@X c #94AD4C",
"#X c #8FB44E",
"$X c #9EB740",
"%X c #9DBB4C",
"&X c #9BB648",
"*X c #9EBC52",
"=X c #8FB450",
"-X c #A2BB44",
";X c #A4BF49",
":X c #A2BE52",
">X c #A7C24C",
",X c #A9C44D",
"<X c #A4C254",
"1X c #ABC955",
"2X c #ABC958",
"3X c #A8C655",
"4X c #B0CE5A",
"5X c #B3D15B",
"6X c None",
/* pixels */
"6X6X6X6X6X6X6X6X6X6X6X6X6X6X6X6X6X6X6X6X6X6X6X6X6X6X6X6X6X6X6X6X6X6X6X6X6X6X6X6X6X6X6X6X6X6X6X6X6X6X6X6X6X6X6X6X6X6X6X6X6X6X6X6X",
"6X6X6X6X6X6X6X6X6X6X6X6X6X6X6X6X6X6X6X6X6X6X6X6X6X6X6X6X6X6X6X6X6X6X6X6X6X6X6X6X6X6X6X6X6X6X6X6X6X6X6X6X6X6X6X6X6X6X6X6X6X6X6X6X",
"6X6X6X6X6X6X6X6X6X6X6X6X6X6X6X6X6X6X6X6X6X6X6X6X6X6X6X6X6X6X6X6X6X6X6X6X6X6X6X6X6X6X6X6X6X6X6X6X6X6X6X6X6X6X6X6X6X6X6X6X6X6X6X6X",
"6X6X6X6X6X6X6X6X6X6X6X6X6X6X6X6X6X6X6X6X6X6X6X6X6X6X6X6X6X6X6X6X6X6X6X6X6X6X6X6X6X6X6X6X6X6X6X6X6X6X6X6X6X6X6X6X6X6X6X6X6X6X6X6X",
"6X6X6X6X6X6X6X6X6X6X6X6X6X6X6X6X6X6X6X6X6X6X6X6X6X6X6X6X6X6X6X6X6X6X6X6X6X6X6X6X6X6X6X6X6X6X6X6X6X6X6X6X6X6X6X6X6X6X6X6X6X6X6X6X",
"6X6X6X6X6X6X6X6X6X6X6X6X6X6X6X6X6X6X6X6X6X6X6X6X6X6X6X6X6X6X6X6X6X6X6X6X6X6X6X6X6X6X6X6X6X6X6X6X6X6X6X6X6X6X6X6X6X6X6X6X6X6X6X6X",
"6X6X6X6X6X6X6X6X6X6X6X6X6X6X6X6X6X6X6X6X6X6X6X6X6X6X6X6X6X6X6X6X6X6X6X6X6X6X6X6X6X6X6X6X6X6X6X6X6X6X6X6X6X6X6X6X6X6X6X6X6X6X6X6X",
"6X6X6X6X6X6X6X6X6X6X6X6X6X6X6X6X6X6X6X6X6X6X6X6X6X6X6X6X6X6X6X6X6X6X6X6X6X6X6X6X6X6X6X6X6X6X6X6X6X6X6X6X6X6X6X6X6X6X6X6X6X6X6X6X",
"6X6X6X6X6X6X6X6X6X6X6X6X6X6X6X6X6X6X6X6X6X6X6X6X6X6X6X6X6X6X6X6X6X6X6X6X6X6X6X6X6X6X6X6X6X6X6X6X6X6X6X6X6X6X6X6X6X6X6X6X6X6X6X6X",
"6X6X6X6X6X6X6X6X6X6X6X6X6X6X6X6X6X6X6X6X6X6X6X6X6X6X6X6X6X  X   X   o   6X6X6X6X6X6X6X6X6X6X6X6X6X6X6X6X6X6X6X6X6X6X6X6X6X6X6X6X",
"6X6X6X6X6X6X6X6X6X6X6X6X6X6X6X6X6X6X6X6X6X6X6X6X6X        >.OXW.W.W.W.W.o.  6X6X6X6X6X6X6X6X6X6X6X6X6X6X6X6X6X6X6X6X6X6X6X6X6X6X",
"6X6X6X6X6X6X6X6X6X6X6X6X6X6X6X6X6X6X6X6X6X6X6X6X6X6 # * ] +X,X>X>X>X>X,X>.t 6X6X6X6X6X6X6X6X6X6X6X6X6X6X6X6X6X6X6X6X6X6X6X6X6X6X",
"6X6X6X6X6X6X6X6X6X6X6X6X6X6X6X6X6X6X6X6X6X6X6X  * <.L ^ 3X|.[.[.[.[.[.`.&X+Xo 6X6X6X6X6X6X6X6X6X6X6X6X6X6X6X6X6X6X6X6X6X6X6X6X6X",
"6X6X6X6X6X6X6X6X6X6X6X6X6X6X6X6X6X6X6X6X6X6X  # 8 K #.C.}.>X$X[.[.[._.D.T.:.  6X6X6X6X6X6X6X6X6X6X6X6X6X6X6X6X6X6X6X6X6X6X6X6X6X",
"6X6X6X6X6X6X6X6X6X6X6X6X6X6X6X6X6X6X6X6X6X& o.=.b.;.%.n.`..X.X[.[.[._.) ( Y V 9 6X6X6X6X6X6X6X6X6X6X6X6X6X6X6X6X6X6X6X6X6X6X6X6X",
"6X6X6X6X6X6X6X6X6X6X6X6X6X6X6X6X6X6X6X6Xo e *X2X2X<X/ U `.[.`._.[.(.N.N H U (.V o o 6X6X6X6X6X6X6X6X6X6X6X6X6X6X6X6X6X6X6X6X6X6X",
"6X6X6X6X6X6X6X6X6X6X6X6X6X6X6X6X6X6X6X  ] V.{.Q.T.T.U.z.[.{.P.x._.%.M m.V.V.`.V. ._ 6     6X6X6X6X6X6X6X6X6X6X6X6X6X6X6X6X6X6X6X",
"6X6X6X6X6X6X6X6X6X6X6X6X6X6X6X6X6X6X6X  Z I.[.$.W W ,.T.[.[.Z.F.`.l.( _.[.).).n.-.U.o.[ +.4 6X6X6X6X6X6X6X6X6X6X6X6X6X6X6X6X6X6X",
"6X6X6X6X6X6X6X6X6X6X6X6X6X6X6X6X6X6X6X  P U.A.~ K L _ z.{.[.[.[.[.P.x._.).[.[.G L 1.P.XX<Xt & 6X6X6X6X6X6X6X6X6X6X6X6X6X6X6X6X6X",
"6X6X6X6X6X6X6X6X6X6X6X6X6X6X6X6X6X6X6X  P 1.K L.<X*X) D _.[.[.[.`.`._.).[.[.`._.n.H *.R.}.;X>.  6X6X6X6X6X6X6X6X6X6X6X6X6X6X6X6X",
"6X6X6X6X6X6X6X6X6X6X6X6X6X6X6X6X6X6Xo >.=.Q c.+X.XXXm.n.[.[.{.[.`.[.[.[.XX$X[.[.V.#.Q @.{.1X>.  6X6X6X6X6X6X6X6X6X6X6X6X6X6X6X6X",
"6X6X6X6X6X6X6X6X6X6X6X6X6X6X6X6X6X% r &Xv.N %XXX[.[.V.N.N.N.N.N.(.[.[.[.$X;X{.[.`._.U S `.;XJ.9 6X6X6X6X6X6X6X6X6X6X6X6X6X6X6X6X",
"6X6X6X6X6X6X6X6X6X6X6X6X6X6X6X    X.>X}.@.m (.{.[.(.F v b b b m N.`.).[.[.[.[.[.C.4.K D ).`.$X&X% 6X6X6X6X6X6X6X6X6X6X6X6X6X6X6X",
"6X6X6X6X6X6X6X6X6X6X6X6X6X6Xt H.H.].XX{.N.n.(.{.V.F c.!.!.!.^.Q.~ $.F.`.P.S.`.[._.P.M.m.).).$X:X%   6X6X6X6X6X6X6X6X6X6X6X6X6X6X",
"6X6X6X6X6X6X6X6X6X6X6X6X6Xr +.>X,X.X[.C._.[.[.N.l.^ +X,X>X>X,X%X-.) ' K.D.D.[.[.[.[.[.[.[.[.'.H.% 6X6X6X6X6X6X6X6X6X6X6X6X6X6X6X",
"6X6X6X6X6X6X6X6X6X6X6X6Xo W.;X[.[.[._.U.P.[.[.F W <XXX[.[.[.[.{.3Xc.H 1.K.[.(.[.[.[.[.[.[.[.{   6X6X6X6X6X6X6X6X6X6X6X6X6X6X6X6X",
"6X6X6X6X6X6X6X6X6X6X6X9  ._.|.{.{.[.[.Z._.`.`.F W 1XXX[.[.[.[.{.1Xc.b 1.U.Y.x.C.{.[.{.{.[.{.{   6X6X6X6X6X6X6X6X6X6X6X6X6X6X6X6X",
"6X6X6X6X6X6X6X6X6X6X  0 [.[.V.%.k.m.[.[.[.[.[.%./ L.Z.[.[.[.[.[.I./ v ( <.3.U.D.P.P.k.l.C.P.&.C 6X6X6X6X6X6X6X6X6X6X6X6X6X6X6X6X",
"6X6X6X6X6X6X6X6X6X6X  0 V.(.k.v c ~ (.`.`.[.`.`.N.m k.[.[.[.(.V.M b b b ( 2.U.2.U.U.L W 1.2./.:Xe o o 6X6X6X6X6X6X6X6X6X6X6X6X6X",
"6X6X6X6X6X6X6X6X6X6X6X6X% B W ' ' ( A V.[._.Y.Y.c.N._.[.[.[.k.U ^.#X#X#X-.L 2.L.Z.Z.+XL.K ,./.2X@X+XW.o 6X6X6X6X6X6X6X6X6X6X6X6X",
"6X6X6X6X6X6X6X6X6X6X6X6X  J *./.Q.;.Q G.K.F././.^.[.[.[.[.[.m.@. X-X>X4X^.-.( M.[.[..X+X;.` R.5X4X5X:X+.t 6X6X6X6X6X6X6X6X6X6X6X",
"6X6X6X6X6X6X6X6X6X6X6X6X% *.~.,X}.S.1.T.T.E.<X1X;X_.[.[.[.[.[.[.[.[.}.,X2X+XL k.[.[.[.XX3XW ;.4X4X4X4X5XX.  6X6X6X6X6X6X6X6X6X6X",
"6X6X6X6X6X6X6X6X6X6X  r @X<X%X{.{.l.L =X<X<X}.}._.T.Z.[.`.[.`.[.[.[.{.{.I.T.V.[.[.[.[.XX1XW b.4X4X4X4X4XX.  6X6X6X6X6X6X6X6X6X6X",
"6X6X6X6X6X6X6X6X6X6Xo.J.$X.X.X(.#.$.L. X$X.X[.[._.F._.[.[.[.[.[.{.n.@.D.Y.U.F.L.F.D.F.D.v.c.!..X1X,X.X.XZ   6X6X6X6X6X6X6X6X6X6X",
"6X6X6X6X6X6X6X6X6X  >.;X{._._.(.m $.,X}.[.`.[.[.`.).[.).[.[.[.[.{.#.H ' ,.,.' ,.,.,.' ^ M +X-X{.>X.X{.[.V   6X6X6X6X6X6X6X6X6X6X",
"6X6X6X6X6X6X6X6X6X  E R.`.Y.D._.m G {.[.[.[.[.[.[.[.[.[.[.).`.[.{.K.' H v v v v v v v D Z.[.{.[.{.{.[.{.V   6X6X6X6X6X6X6X6X6X6X",
"6X6X6X6X6X6X6X6X6X  T U.D.U.D.`.n.@.F F n.[.[.%.@._.P.H.`.K.D.F.D.T.1._ ( ` %.%.k.%.%.m.[.[.{.[.[.{.(.] : 6X6X6X6X6X6X6X6X6X6X6X",
"6X6X6X6X6X6X6X6X6X  I ' 2.3.z.m.[.k.M M @.m.m.G ~ A.x.U.Z.=.*.Y.Y.U.3.3.1.;.M.m.m.m.m.m.m.m.m.m.m. .| o 6X6X6X6X6X6X6X6X6X6X6X6X",
"6X6X6X6X6X6X6X6X6X6X  6 2.3._ b m.[.(.(.@.c v l.C.U.U.2.2.6 t _._.S.3.3.W c v v v v v v v v v 8 o   o 6X6X6X6X6X6X6X6X6X6X6X6X6X",
"6X6X6X6X6X6X6X6X6X6X6X$ 7 J K v A D D w 4 5 I.%X=XU.P 6 7 { [ r S U L L H c c c c c c c c c 5 # 6X6X6X6X6X6X6X6X6X6X6X6X6X6X6X6X",
"6X6X6X6X6X6X6X6X6X6X6X6X  2 5 5 5 5 5     % H.I.G.E e @ = ..} @ 2 5 5 5 8 c c 8 5 5 5 5 5 5 2   6X6X6X6X6X6X6X6X6X6X6X6X6X6X6X6X",
"6X6X6X6X6X6X6X6X6X6X6X6X6X            6X6X6X.     . u h d 6.5.a O     . 5 8 8 #               6X6X6X6X6X6X6X6X6X6X6X6X6X6X6X6X6X",
"6X6X6X6X6X6X6X6X6X6X6X6X6X6X6X6X6X6X6X6X6X6X6X  O i l 7.6.k l 6.a i i i & X X > 1   6X6X6X6X6X6X6X6X6X6X6X6X6X6X6X6X6X6X6X6X6X6X",
"6X6X6X6X6X6X6X6X6X6X6X6X6X6X6X6X6X6X6X6X6X6X6X6XO , 9.a.e.z z 5.l l l z p , , 1 >   6X6X6X6X6X6X6X6X6X6X6X6X6X6X6X6X6X6X6X6X6X6X",
"6X6X6X6X6X6X6X6X6X6X6X6X6X6X6X6X6X6X6X6X6X6X6X6X6X  t.d.r.q.5.h 6.e.7.e.q.q.q.y . 6X6X6X6X6X6X6X6X6X6X6X6X6X6X6X6X6X6X6X6X6X6X6X",
"6X6X6X6X6X6X6X6X6X6X6X6X6X6X6X6X6X6X6X6X6X6X6X6X6X6X+ g j.r.5.h 6.5.k 7.q.q.0.7.h   6X6X6X6X6X6X6X6X6X6X6X6X6X6X6X6X6X6X6X6X6X6X",
"6X6X6X6X6X6X6X6X6X6X6X6X6X6X6X6X6X6X6X6X6X6X6X6X6X6X  q h.p.6.z 0.5.h 7.q.q.q.p.9.. 6X6X6X6X6X6X6X6X6X6X6X6X6X6X6X6X6X6X6X6X6X6X",
"6X6X6X6X6X6X6X6X6X6X6X6X6X6X6X6X6X6X6X6X6X6X6X6X6X6X  < h.p.8.8.e.z h 7.q.q.q.g.u.  6X6X6X6X6X6X6X6X6X6X6X6X6X6X6X6X6X6X6X6X6X6X",
"6X6X6X6X6X6X6X6X6X6X6X6X6X6X6X6X6X6X6X6X6X6X6X6X6X6X  < h.p.5.j 7.z d 7.q.q.q.g.u.. 6X6X6X6X6X6X6X6X6X6X6X6X6X6X6X6X6X6X6X6X6X6X",
"6X6X6X6X6X6X6X6X6X6X6X6X6X6X6X6X6X6X6X6X6X6X6X6X6X6X  > a.r.7.5.0.5.d 8.q.q.q.g.u.  6X6X6X6X6X6X6X6X6X6X6X6X6X6X6X6X6X6X6X6X6X6X",
"6X6X6X6X6X6X6X6X6X6X6X6X6X6X6X6X6X6X6X6X6X6X6X6X6X6X: i 8.q.7.5.0.5.k 8.q.q.0.d.u.> 6X6X6X6X6X6X6X6X6X6X6X6X6X6X6X6X6X6X6X6X6X6X",
"6X6X6X6X6X6X6X6X6X6X6X6X6X6X6X6X6X6X6X6X6X6X6X6X6XX t.d.q.q.d O 5.e.8.q.q.q.e.e.a.f.<   6X6X6X6X6X6X6X6X6X6X6X6X6X6X6X6X6X6X6X6X",
"6X6X6X6X6X6X6X6X6X6X6X6X6X6X6X6X6X6X6X6X6X6X    : t.a.0.> > y h 1 d e.q.d , k 6.r.a.i.x     6X6X6X6X6X6X6X6X6X6X6X6X6X6X6X6X6X6X",
"6X6X6X6X6X6X6X6X6X6X6X6X6X6X6X6X6X6X6X6X6X6X< + < s.9.p @ O y 5.O 1 6.7.i @ u k 6.6.s.y.- ; ; 6X6X6X6X6X6X6X6X6X6X6X6X6X6X6X6X6X",
"6X6X6X6X6X6X6X6X6X6X6X6X6X6X6X6X6X6X6X6X  & f.w.s h + @ a a f a O - d s a i . 1 h d d k 7.7.p   6X6X6X6X6X6X6X6X6X6X6X6X6X6X6X6X",
"6X6X6X6X6X6X6X6X6X6X6X6X6X6X6X6X6X6X6X6X  . < = @ @ .   @ @ O @   . @ @ @ @   . @ @ @ @ - - O   6X6X6X6X6X6X6X6X6X6X6X6X6X6X6X6X",
"6X6X6X6X6X6X6X6X6X6X6X6X6X6X6X6X6X6X6X6X6X                                                      6X6X6X6X6X6X6X6X6X6X6X6X6X6X6X6X",
"6X6X6X6X6X6X6X6X6X6X6X6X6X6X6X6X6X6X6X6X6X6X6X6X6X6X6X6X6X6X6X6X6X6X6X6X6X6X6X6X6X6X6X6X6X6X6X6X6X6X6X6X6X6X6X6X6X6X6X6X6X6X6X6X",
"6X6X6X6X6X6X6X6X6X6X6X6X6X6X6X6X6X6X6X6X6X6X6X6X6X6X6X6X6X6X6X6X6X6X6X6X6X6X6X6X6X6X6X6X6X6X6X6X6X6X6X6X6X6X6X6X6X6X6X6X6X6X6X6X",
"6X6X6X6X6X6X6X6X6X6X6X6X6X6X6X6X6X6X6X6X6X6X6X6X6X6X6X6X6X6X6X6X6X6X6X6X6X6X6X6X6X6X6X6X6X6X6X6X6X6X6X6X6X6X6X6X6X6X6X6X6X6X6X6X",
"6X6X6X6X6X6X6X6X6X6X6X6X6X6X6X6X6X6X6X6X6X6X6X6X6X6X6X6X6X6X6X6X6X6X6X6X6X6X6X6X6X6X6X6X6X6X6X6X6X6X6X6X6X6X6X6X6X6X6X6X6X6X6X6X",
"6X6X6X6X6X6X6X6X6X6X6X6X6X6X6X6X6X6X6X6X6X6X6X6X6X6X6X6X6X6X6X6X6X6X6X6X6X6X6X6X6X6X6X6X6X6X6X6X6X6X6X6X6X6X6X6X6X6X6X6X6X6X6X6X",
"6X6X6X6X6X6X6X6X6X6X6X6X6X6X6X6X6X6X6X6X6X6X6X6X6X6X6X6X6X6X6X6X6X6X6X6X6X6X6X6X6X6X6X6X6X6X6X6X6X6X6X6X6X6X6X6X6X6X6X6X6X6X6X6X",
"6X6X6X6X6X6X6X6X6X6X6X6X6X6X6X6X6X6X6X6X6X6X6X6X6X6X6X6X6X6X6X6X6X6X6X6X6X6X6X6X6X6X6X6X6X6X6X6X6X6X6X6X6X6X6X6X6X6X6X6X6X6X6X6X"
};
